<?xml version="1.0" encoding="utf-8"?>
<!DOCTYPE svg PUBLIC "-//W3C//DTD SVG 1.0//EN" "http://www.w3.org/TR/2001/REC-SVG-20010904/DTD/svg10.dtd">
<svg class="img-fluid" id="outputsvg" xmlns="http://www.w3.org/2000/svg" style="transform: matrix(0.856831, 0, 0, 0.856831, 0.603615, 3.80942); transform-origin: 50% 50%; cursor: move; transition: transform 200ms ease-in-out;" width="1006" height="1007" viewBox="0 0 10060 10070"><g id="l4D97qZNVZW479qfGduGE14" fill="rgb(156,102,41)" style="transform: none;"><g style="transform: none;"><path id="p1HtuWny3N" d="M7910 8851 c0 -6 25 -34 56 -63 66 -61 280 -292 327 -352 l32 -41 -61 48 c-67 52 -104 61 -104 25 0 -16 18 -36 58 -65 77 -56 207 -164 260 -216 51 -49 160 -205 257 -364 68 -112 74 -118 108 -105 16 7 10 20 -48 117 -60 101 -63 107 -29 75 58 -56 215 -237 298 -345 43 -55 84 -105 92 -111 17 -14 54 -7 54 10 0 36 -303 390 -510 596 -92 91 -195 203 -230 250 -95 125 -247 300 -379 433 -101 102 -120 117 -148 117 -18 0 -33 -4 -33 -9z"></path><path id="pUvseCBQ1" d="M1955 8718 c-130 -133 -130 -133 -98 -136 26 -3 51 10 137 70 58 40 105 77 106 82 0 6 10 21 23 35 l22 25 -30 -21 c-57 -38 -60 -36 -12 14 40 41 46 51 32 57 -37 14 -56 1 -180 -126z"></path><path id="p18LBSoEaK" d="M7790 8673 c47 -43 123 -115 170 -161 l85 -84 -100 79 c-117 93 -133 103 -174 103 -42 0 -39 -14 12 -50 111 -80 374 -309 527 -461 141 -139 190 -200 333 -409 47 -69 95 -133 106 -142 23 -19 81 -25 81 -8 0 6 9 10 21 10 17 0 11 12 -40 78 -33 42 -101 124 -151 182 -50 58 -167 195 -259 305 -92 110 -224 258 -292 329 -68 71 -112 121 -96 112 26 -18 27 -18 27 2 0 23 -26 43 -177 136 -63 39 -101 56 -124 56 l-34 0 85 -77z"></path><path id="pp09yva9W" d="M1617 8665 c-38 -30 -73 -55 -79 -55 -16 0 -155 -130 -246 -231 -244 -270 -372 -439 -539 -714 -55 -92 -69 -121 -57 -123 41 -9 60 10 132 131 123 207 321 469 482 637 l81 85 -69 -95 c-90 -124 -176 -254 -242 -365 -29 -49 -99 -148 -155 -220 -114 -147 -175 -230 -175 -239 0 -3 15 -6 34 -6 28 0 38 6 56 35 26 43 36 46 15 5 -19 -37 -19 -39 3 -33 28 8 95 101 150 208 29 56 72 125 98 155 98 116 349 363 493 485 24 20 24 20 10 0 -8 -11 -40 -55 -72 -97 -75 -100 -220 -319 -285 -430 l-52 -88 29 0 c35 0 41 7 136 160 101 163 214 321 347 486 58 73 103 136 100 140 -4 4 -2 4 4 1 6 -3 21 5 32 18 l22 25 -29 0 c-30 0 -91 -29 -91 -42 0 -5 -10 -8 -22 -8 -25 -1 -198 -142 -379 -310 l-113 -105 59 85 c120 173 262 347 391 481 35 37 64 70 64 73 0 3 -15 6 -32 6 -24 -1 -51 -15 -101 -55z"></path><path id="pIcb8tDBW" d="M376 3424 c-8 -20 135 -307 239 -480 224 -373 441 -643 806 -1004 97 -96 205 -211 240 -255 88 -112 178 -214 288 -328 82 -84 99 -97 128 -97 18 0 33 3 33 6 0 3 -58 67 -129 142 -71 75 -142 152 -157 171 l-29 35 28 -18 c26 -18 27 -18 27 2 0 11 -7 25 -15 32 -8 7 -15 20 -16 29 0 9 -48 54 -105 101 -111 90 -171 162 -297 356 -115 178 -256 424 -243 424 2 0 21 -24 43 -52 21 -29 94 -120 163 -203 69 -82 170 -206 224 -274 118 -147 246 -292 370 -420 50 -51 81 -88 68 -81 -22 11 -23 10 -20 -11 5 -33 175 -140 233 -147 25 -2 45 -2 45 1 0 3 -28 32 -62 64 -109 101 -264 256 -237 237 15 -11 61 -47 102 -82 57 -47 83 -62 107 -62 22 0 31 4 28 14 -2 8 -52 56 -113 106 -300 249 -527 479 -661 669 -188 264 -396 630 -514 904 -34 78 -62 100 -73 57 -7 -28 -19 -25 -39 10 -20 35 -53 42 -45 10 9 -33 -1 -23 -28 30 -22 43 -29 50 -55 50 -17 0 -30 -3 -30 -7 0 -10 112 -218 174 -323 31 -52 109 -203 174 -335 116 -235 235 -450 315 -570 47 -69 33 -60 -62 39 -310 322 -573 697 -769 1098 -72 145 -91 177 -108 177 -12 1 -25 -6 -28 -15z m710 -630 c20 -35 33 -64 31 -64 -3 0 -31 39 -63 88 -49 74 -164 322 -164 357 0 5 36 -64 80 -154 44 -89 96 -192 116 -227z"></path><path id="p15k6wWK7b" d="M9720 3426 c0 -8 -7 -16 -15 -18 -9 -2 -30 -38 -49 -83 -82 -200 -228 -466 -377 -685 -123 -180 -137 -193 -80 -70 70 150 151 360 210 543 28 87 51 161 51 163 0 3 -14 4 -32 2 -24 -2 -33 -9 -39 -28 -38 -129 -101 -311 -150 -436 -71 -180 -223 -492 -284 -584 -53 -79 -353 -379 -485 -485 -13 -11 -20 -13 -14 -5 6 8 43 58 81 110 90 122 215 310 282 425 29 50 59 101 67 115 43 73 217 432 263 545 92 223 123 315 106 315 -8 0 -15 5 -15 10 0 6 -6 10 -12 10 -7 0 -30 -48 -52 -108 -138 -383 -364 -820 -599 -1157 -102 -147 -256 -344 -330 -422 l-50 -53 32 0 c21 0 53 15 101 50 39 27 76 50 83 50 12 0 139 106 289 240 l72 65 -42 -60 c-80 -113 -241 -310 -352 -430 -109 -118 -110 -120 -80 -123 16 -2 41 3 54 10 35 19 167 122 195 152 14 14 33 26 43 26 31 0 229 208 418 440 62 76 210 285 210 297 0 6 4 13 9 15 20 7 183 295 271 478 64 132 132 304 199 499 67 198 67 201 44 201 -13 0 -23 -6 -23 -14z m-310 -736 c-197 -394 -426 -713 -733 -1025 l-158 -160 103 130 c119 149 207 273 309 436 39 63 94 141 122 173 87 101 268 348 347 474 41 66 76 118 78 117 2 -2 -29 -67 -68 -145z"></path><path id="pXUOsvoRj" d="M8100 1429 c-30 -22 -63 -46 -73 -54 -9 -8 -21 -15 -25 -15 -4 0 -20 -16 -35 -35 -31 -39 -29 -43 11 -18 24 15 24 13 -7 -20 l-35 -37 38 0 c35 0 47 8 123 83 47 45 94 94 105 110 l19 27 -33 0 c-22 -1 -51 -14 -88 -41z"></path></g></g><g id="l2mwQxp8IyA7Yp6MK90X5au" fill="rgb(169,118,44)" style="transform: none;"><g style="transform: none;"><path id="p13QVkhGiV" d="M7722 9012 c3 -9 147 -139 201 -182 17 -14 27 -19 23 -12 -11 19 25 11 41 -8 10 -12 14 -13 25 -2 11 11 10 12 -5 6 -12 -4 -16 -2 -12 8 6 15 -146 163 -192 187 -25 13 -86 15 -81 3z"></path><path id="p11v9hST7" d="M2166 8924 c-52 -47 -98 -94 -101 -105 -4 -11 -11 -16 -17 -13 -7 4 -8 2 -4 -4 10 -17 26 -15 26 4 0 14 1 14 16 0 19 -20 31 -21 15 -2 -10 12 -9 14 7 9 13 -3 40 14 88 59 38 35 86 77 107 95 20 18 37 35 37 38 0 3 -18 5 -40 5 -36 0 -49 -8 -134 -86z"></path><path id="pJ7bEfaO6" d="M1905 8936 l-60 -55 35 -1 c23 0 41 7 52 19 8 10 21 20 28 23 7 2 10 17 8 37 l-3 33 -60 -56z"></path><path id="pHA9LOF0K" d="M7530 8923 c0 -27 5 -41 19 -48 10 -6 33 -18 50 -28 18 -10 46 -17 63 -15 l32 3 -70 56 c-97 77 -94 77 -94 32z"></path><path id="pN0035rJJ" d="M2107 8769 c-15 -12 -34 -22 -41 -23 -25 -3 -344 -238 -388 -285 -11 -11 -7 -12 24 -7 25 5 38 3 41 -6 4 -10 6 -10 6 0 1 6 8 12 16 12 8 0 15 4 15 8 0 4 15 16 33 27 17 10 37 24 43 30 6 6 41 31 77 56 49 33 65 48 61 62 -3 11 0 17 9 17 9 0 17 3 19 8 2 4 17 15 33 24 17 9 32 24 33 34 2 9 16 27 30 40 33 29 27 31 -11 3z"></path><path id="p163xXe9Cs" d="M7580 8770 c0 -5 -13 -10 -30 -10 -16 0 -30 -3 -29 -7 0 -5 50 -43 112 -86 62 -43 126 -88 142 -102 23 -18 34 -21 45 -14 12 9 11 10 -5 4 -16 -5 -17 -4 -8 6 10 10 15 9 27 0 8 -7 23 -11 33 -9 13 2 2 15 -42 49 -129 98 -245 179 -245 169z"></path><path id="p1Aum46hSC" d="M1717 8760 c-15 -5 -65 -40 -110 -78 -78 -67 -155 -143 -130 -128 6 3 14 2 17 -3 4 -5 14 -8 24 -6 9 2 20 4 25 4 4 1 15 9 25 19 9 9 51 43 92 74 92 70 139 111 140 121 0 9 -47 8 -83 -3z"></path><path id="p11eGMiP8l" d="M7690 8763 c0 -5 15 -18 33 -30 59 -39 259 -163 263 -163 4 0 71 -47 184 -128 18 -13 36 -16 65 -12 l40 5 -95 71 c-136 101 -187 134 -203 134 -8 0 -62 29 -121 65 -68 42 -117 65 -136 65 -17 0 -30 -3 -30 -7z"></path><path id="pl7kYbWLw" d="M1645 8440 c-4 -6 6 -10 22 -10 22 0 25 2 13 10 -19 12 -27 12 -35 0z"></path><path id="pddO4VMbp" d="M8770 7763 c8 -12 18 -19 24 -16 5 3 6 1 3 -4 -4 -6 8 -37 26 -69 28 -51 37 -59 65 -62 18 -2 32 -1 32 3 0 13 -75 135 -83 135 -4 0 -5 5 -2 10 4 7 -2 9 -19 4 -16 -4 -33 -1 -43 7 -15 13 -15 12 -3 -8z"></path><path id="p2GjM3COP" d="M1192 7693 c-24 -40 -40 -78 -37 -83 3 -6 17 -10 29 -10 19 0 30 12 52 57 16 32 35 63 42 71 6 7 12 18 12 23 0 5 -6 9 -12 10 -7 0 -20 2 -28 4 -10 2 -30 -23 -58 -72z"></path><path id="pVH8ZwFRz" d="M952 7644 c-68 -79 -119 -161 -108 -172 4 -3 9 4 13 16 3 15 13 22 28 22 26 0 48 27 89 108 27 52 48 102 43 102 -1 0 -30 -34 -65 -76z"></path><path id="puzl0wwCd" d="M8646 7688 c90 -149 171 -248 202 -248 16 0 21 4 16 13 -6 10 -4 10 7 0 7 -7 30 -13 51 -13 36 0 38 1 38 33 0 35 -15 57 -38 57 -9 0 -13 -7 -9 -20 3 -11 4 -20 3 -20 -2 0 -17 20 -35 45 -23 32 -39 45 -57 45 -13 0 -24 -6 -24 -12 0 -7 -30 20 -68 60 -37 39 -73 72 -80 72 -8 0 -10 -5 -6 -12z"></path><path id="p12e9xHuiR" d="M765 7594 c-11 -8 -27 -13 -35 -11 -9 2 -21 -2 -27 -8 -12 -13 -73 -130 -73 -140 0 -3 13 -5 29 -5 26 0 34 9 79 90 27 50 49 90 49 90 -1 0 -11 -7 -22 -16z"></path><path id="p1HSL50gGp" d="M766 7496 c-15 -12 -96 -131 -96 -141 0 -3 14 -5 32 -3 26 2 40 15 79 68 26 36 48 68 48 71 2 12 -49 16 -63 5z"></path><path id="ptby7NGTh" d="M9130 7486 c0 -8 8 -21 19 -28 10 -7 18 -15 18 -18 0 -3 10 -22 24 -42 21 -33 29 -38 63 -38 l38 0 -28 38 c-15 20 -39 52 -52 70 -18 23 -32 32 -53 32 -19 0 -29 -5 -29 -14z"></path><path id="p1AzWqk7lE" d="M140 4072 c0 -41 114 -381 190 -564 50 -124 52 -126 78 -119 32 9 31 18 -4 98 -64 142 -155 401 -194 551 -10 37 -14 42 -40 42 -17 0 -30 -4 -30 -8z"></path><path id="pX8eJ7JWV" d="M9895 4048 c-2 -7 -11 -38 -19 -68 l-15 -55 6 48 c5 47 5 47 -25 47 -28 0 -31 -3 -37 -42 -33 -217 -94 -513 -121 -583 -5 -12 2 -15 28 -15 33 0 35 2 62 73 72 183 176 528 176 585 0 17 -6 22 -25 22 -14 0 -28 -6 -30 -12z"></path><path id="p19lQEHkgy" d="M400 4035 c0 -12 95 -268 142 -380 85 -204 150 -336 164 -331 8 3 10 -3 7 -17 -4 -18 -3 -19 6 -7 6 8 15 16 21 16 5 1 12 2 14 3 3 0 -20 54 -50 119 -80 169 -130 287 -190 452 -51 141 -53 145 -83 148 -17 2 -31 1 -31 -3z"></path><path id="p8g4V8s2T" d="M9420 3981 c0 -11 -5 -21 -10 -23 -6 -2 -24 -62 -39 -134 -30 -135 -99 -385 -149 -535 -24 -72 -26 -86 -13 -85 9 1 19 6 23 11 5 6 8 4 8 -5 2 -83 141 380 203 673 l25 117 -24 0 c-17 0 -24 -6 -24 -19z"></path><path id="p1AaGy2JBn" d="M641 3818 c43 -187 77 -313 121 -448 34 -106 52 -144 78 -172 18 -19 18 -19 44 3 14 12 26 30 27 38 0 11 2 12 6 4 2 -7 8 -13 13 -13 4 0 -10 42 -32 93 -62 143 -152 389 -194 530 l-37 127 -32 0 -32 0 38 -162z"></path><path id="p1BllsUbot" d="M9530 3898 c-20 -134 -77 -414 -109 -532 -16 -61 -28 -114 -25 -118 3 -4 0 -8 -5 -8 -6 0 -11 -5 -11 -10 0 -7 6 -7 19 -1 10 6 21 7 25 4 3 -3 6 -1 6 6 0 7 4 10 9 6 20 -11 94 297 141 585 11 69 20 131 20 138 0 7 -12 12 -29 12 -28 0 -29 -1 -41 -82z"></path><path id="p6lqaWtd0" d="M1721 1700 c-1 -27 20 -46 142 -135 57 -42 74 -49 105 -46 20 1 38 4 40 6 2 2 -43 38 -100 80 -57 43 -109 82 -116 88 -9 7 -11 6 -7 -4 4 -10 -2 -15 -15 -16 -11 -1 -18 2 -15 7 3 5 1 11 -5 15 -5 3 -10 0 -11 -7 -1 -7 -5 -2 -9 12 l-8 25 -1 -25z"></path><path id="peQtXjVY5" d="M8480 1685 c-7 -9 -15 -13 -18 -10 -3 3 -11 0 -18 -5 -8 -8 -17 -6 -28 5 -13 13 -16 14 -16 2 0 -7 -6 -14 -13 -14 -27 0 -232 -157 -232 -177 0 -14 -27 -41 -48 -49 -9 -3 -17 -11 -17 -17 0 -5 -7 -10 -15 -10 -8 0 -15 -4 -15 -10 0 -5 -7 -10 -15 -10 -8 0 -15 -4 -15 -10 0 -5 -7 -10 -15 -10 -8 0 -15 -4 -15 -10 0 -5 -6 -10 -14 -10 -8 0 -21 -13 -30 -30 -17 -35 -15 -36 20 -14 41 27 25 -6 -17 -36 -20 -14 -69 -55 -110 -92 l-73 -68 46 0 c46 0 48 2 165 116 65 64 110 111 101 104 -14 -9 -18 -9 -18 -1 0 7 -4 9 -10 6 -5 -3 -10 -3 -10 2 1 4 37 33 81 63 45 30 92 68 106 85 14 16 29 29 32 28 7 -2 231 175 231 183 0 8 -8 4 -20 -11z m-431 -364 c13 -9 9 -13 -21 -24 -14 -5 -17 4 -9 31 2 5 16 1 30 -7z"></path><path id="p11m7LVcmL" d="M2061 1606 c29 -29 84 -64 92 -59 5 3 7 1 4 -5 -4 -6 41 -47 105 -96 89 -67 114 -82 121 -71 4 8 15 15 22 15 8 0 15 3 14 8 -1 15 -208 159 -213 148 -3 -7 -5 -7 -5 1 -1 7 -7 10 -15 7 -7 -3 -20 2 -28 10 -10 9 -19 11 -27 5 -6 -5 -9 -6 -6 -2 3 3 -9 15 -25 25 -28 16 -50 24 -39 14z"></path><path id="pHEymUAiG" d="M8581 1556 c0 -11 -4 -17 -7 -13 -5 5 -66 -40 -206 -153 -42 -35 -49 -37 -42 -12 3 12 2 11 -6 -3 -6 -11 -29 -33 -50 -49 -21 -16 -58 -48 -81 -72 l-43 -44 32 0 c25 0 59 19 142 80 61 45 121 85 135 90 18 7 155 128 215 189 3 3 -7 -2 -21 -11 -20 -13 -29 -14 -39 -5 -10 9 -11 9 -6 0 4 -7 3 -13 -3 -13 -5 0 -12 8 -14 18 -4 15 -5 15 -6 -2z"></path><path id="p19EIDfKZf" d="M2050 1475 c0 -14 5 -25 10 -25 6 0 21 -9 33 -20 12 -12 32 -23 44 -26 13 -4 23 -10 23 -15 0 -5 7 -9 15 -9 8 0 15 -3 15 -7 0 -16 99 -63 131 -63 l33 0 -29 30 c-16 17 -44 35 -62 42 -18 7 -33 16 -33 20 0 4 -3 7 -7 6 -5 -2 -42 19 -84 45 -42 26 -79 47 -82 47 -4 0 -7 -11 -7 -25z"></path><path id="p3O9IZEph" d="M2084 1226 c71 -71 132 -124 134 -117 2 6 12 11 23 11 10 0 19 6 18 13 0 6 -53 59 -117 117 -65 58 -111 98 -105 89 7 -9 10 -19 6 -22 -3 -4 1 -7 10 -7 9 0 19 -4 22 -10 12 -20 -61 3 -91 29 -17 14 28 -32 100 -103z"></path></g></g><g id="l2fesRQbINz75W4xkyP1U4Q" fill="rgb(183,135,45)" style="transform: none;"><g style="transform: none;"><path id="pgvNXbrip" d="M52 4493 c16 -105 84 -431 92 -441 2 -1 17 -4 35 -6 26 -3 31 -1 26 13 -19 48 -84 370 -100 491 -8 58 -16 70 -51 70 l-21 0 19 -127z"></path><path id="popI6S3El" d="M9994 4612 c-6 -4 -21 -81 -32 -172 -19 -144 -52 -340 -68 -392 -4 -12 0 -18 10 -18 9 0 16 -4 16 -9 0 -5 6 -11 14 -14 10 -4 21 33 44 156 29 149 62 380 62 434 0 23 -23 31 -46 15z"></path><path id="pOMJaXe0Q" d="M271 4593 c-12 -13 -10 -32 14 -137 30 -134 97 -374 116 -421 7 -16 12 -33 11 -36 0 -3 5 -6 13 -6 8 0 12 4 9 9 -3 4 0 8 5 8 6 0 11 -4 11 -8 0 -5 6 -9 13 -9 9 0 1 39 -29 137 -23 75 -58 208 -79 296 -20 87 -39 165 -41 172 -5 17 -26 15 -43 -5z"></path><path id="phxzbzvtd" d="M9837 4388 c-5 -178 -15 -298 -32 -403 -4 -25 -3 -27 6 -12 8 13 18 17 34 13 22 -6 23 -2 34 97 6 56 13 152 16 212 3 61 7 152 10 203 l4 92 -33 0 -33 0 -6 -202z"></path><path id="pHMLXVkXu" d="M496 4448 c25 -133 104 -472 114 -488 3 -5 20 -12 36 -16 l30 -6 -17 89 c-22 106 -55 339 -65 446 l-7 77 -33 0 c-19 0 -34 5 -34 10 0 6 -11 10 -24 10 l-23 0 23 -122z"></path><path id="pMoHZbKJR" d="M9577 4398 c-4 -90 -14 -221 -22 -293 -18 -164 -19 -175 0 -175 8 0 15 4 15 10 0 5 7 7 15 4 9 -4 15 0 15 7 0 8 7 72 15 144 8 72 18 201 22 288 7 167 4 176 -38 177 -14 0 -17 -23 -22 -162z"></path><path id="pAtbc6Amf" d="M9472 4433 c-10 -91 -45 -324 -75 -497 -1 -6 10 -12 26 -14 17 -2 27 1 28 10 0 7 2 20 5 28 25 93 84 484 84 561 0 25 -4 29 -28 29 l-28 0 -12 -117z"></path></g></g><g id="ltJh9bcHbNRYucrzoojtiZ" fill="rgb(175,127,65)" style="transform: none;"><g style="transform: none;"><path id="p9ElSdhwp" d="M2620 9285 c-14 -8 -31 -14 -37 -15 -7 0 -44 -14 -83 -31 -51 -23 -70 -37 -70 -51 0 -15 3 -17 19 -8 34 18 34 11 -1 -17 -18 -16 -38 -32 -45 -38 -6 -5 -48 -39 -92 -75 -44 -35 -78 -66 -76 -68 8 -8 61 -9 77 -1 9 5 68 50 130 100 62 50 148 114 190 142 43 29 77 58 78 65 0 17 -59 15 -90 -3z"></path><path id="pEbaV9dqm" d="M7370 9283 c0 -6 54 -49 119 -97 66 -47 148 -109 183 -138 80 -67 97 -76 131 -71 16 2 36 -1 45 -8 39 -27 -62 61 -174 151 -171 137 -209 162 -260 168 -26 3 -44 1 -44 -5z"></path><path id="p8o4lgUrb" d="M2150 9140 c-58 -44 -134 -106 -168 -138 -95 -85 -100 -90 -208 -181 -54 -46 -100 -87 -102 -92 -2 -4 17 -6 43 -4 31 2 56 11 78 29 73 59 216 164 265 195 29 19 51 39 49 45 -2 6 42 40 99 76 69 43 104 71 104 83 0 15 -4 16 -22 7 l-23 -11 23 17 c26 19 29 39 6 48 -29 11 -38 6 -144 -74z"></path><path id="pS72uACAQ" d="M7120 9201 c0 -12 15 -29 38 -42 55 -35 232 -160 232 -165 0 -3 -9 0 -20 6 -17 9 -20 8 -20 -8 0 -14 27 -34 101 -73 56 -29 104 -60 106 -69 2 -8 30 -30 61 -48 31 -18 118 -70 192 -117 90 -56 141 -82 154 -78 10 3 16 1 13 -4 -3 -4 10 -9 29 -9 19 0 34 2 34 5 -1 9 -68 56 -195 136 -61 39 -128 82 -150 98 -74 51 -116 77 -125 77 -6 0 -10 5 -10 11 0 5 5 7 10 4 6 -3 10 -4 10 -1 0 7 -212 164 -317 234 -96 64 -143 78 -143 43z"></path><path id="pE5o6XO2M" d="M7130 9002 c0 -6 51 -41 113 -78 61 -37 165 -103 230 -146 65 -43 115 -73 112 -68 -3 6 4 14 17 19 l23 8 -31 29 c-17 16 -100 71 -183 123 -83 52 -151 96 -151 98 0 2 18 -6 40 -17 42 -21 49 -18 26 13 -10 12 -26 18 -52 17 -22 -1 -63 2 -91 6 -36 4 -53 3 -53 -4z"></path><path id="pfox12Jxt" d="M2138 8787 c-125 -75 -278 -180 -278 -190 0 -2 75 0 91 2 7 1 102 63 109 71 3 3 73 46 157 95 84 50 152 96 153 103 0 7 -14 12 -39 12 -31 0 -69 -18 -193 -93z"></path><path id="p6vHCQ712" d="M1162 7638 c-5 -7 -31 -55 -56 -105 l-46 -93 32 0 c32 0 35 4 81 97 34 67 45 99 38 106 -8 8 -11 7 -11 -2 0 -10 -3 -11 -14 -2 -10 8 -16 8 -24 -1z"></path><path id="pKMPl1Odq" d="M8840 7643 c0 0 15 -27 33 -60 18 -32 38 -70 44 -85 12 -28 12 -28 -25 -28 -34 0 -42 7 -95 70 -33 39 -62 70 -65 71 -4 0 -15 2 -24 4 -13 2 -9 -10 19 -53 20 -32 49 -79 66 -107 34 -57 53 -74 85 -75 27 0 27 4 1 46 -41 67 -10 32 51 -57 58 -84 64 -90 93 -87 53 5 48 35 -38 208 -77 154 -77 155 -111 155 -19 0 -34 -1 -34 -2z"></path><path id="psVErZq9d" d="M890 7559 c-26 -33 -80 -137 -80 -155 0 -3 14 -4 31 -2 27 3 34 11 74 95 39 82 41 92 25 96 -13 3 -28 -8 -50 -34z"></path><path id="pItiwgnns" d="M665 7461 c-26 -5 -36 -18 -72 -91 -23 -47 -37 -86 -32 -88 5 -2 9 -22 9 -43 0 -40 0 -40 36 -37 34 3 40 9 95 96 l58 92 -30 0 c-29 0 -49 -15 -82 -60 -9 -14 1 12 23 58 22 45 37 81 33 81 -5 -1 -21 -4 -38 -8z"></path><path id="pT3sVQ6SO" d="M9259 7298 c49 -72 72 -97 88 -98 40 0 35 21 -24 108 -55 82 -60 87 -94 87 l-35 0 65 -97z"></path><path id="pRvX2tbGQ" d="M1897 1540 c26 -23 226 -158 327 -221 65 -41 155 -104 200 -140 101 -81 302 -230 364 -270 49 -31 112 -40 112 -16 0 8 -49 47 -110 87 -60 41 -108 76 -106 78 3 2 14 -1 25 -8 18 -9 21 -8 21 7 0 12 -24 30 -73 55 -128 66 -227 128 -227 142 0 8 -7 16 -15 20 -8 3 -34 19 -58 36 -23 17 -118 78 -211 136 -154 95 -173 105 -213 103 -24 -2 -40 -6 -36 -9z"></path><path id="p16fsChSml" d="M8224 1540 c-5 -5 -20 -15 -34 -22 -14 -8 -97 -61 -185 -120 -88 -58 -175 -113 -192 -122 -18 -9 -33 -24 -33 -33 0 -27 79 -11 141 29 30 19 70 43 89 52 55 26 281 197 277 209 -4 14 -51 19 -63 7z"></path><path id="puVKmNZGV" d="M2357 1418 c-10 -10 -22 -16 -27 -13 -6 4 -10 4 -10 1 0 -8 217 -159 338 -235 96 -61 119 -71 157 -71 25 0 45 4 45 9 0 5 -33 28 -72 51 -73 44 -399 259 -408 270 -3 3 -13 -2 -23 -12z"></path><path id="p1ArA8xdp5" d="M8286 1316 c-223 -166 -276 -208 -276 -221 0 -6 -43 -40 -95 -76 -88 -59 -95 -66 -95 -96 0 -22 5 -33 14 -33 13 0 164 112 216 161 14 13 73 60 130 104 136 103 292 228 307 246 10 12 6 15 -26 15 -34 0 -57 -13 -175 -100z"></path><path id="pjlUxOwrX" d="M7886 1153 c-6 -14 -9 -15 -15 -4 -6 9 -14 10 -22 5 -8 -5 -19 -9 -25 -10 -6 -1 -58 -41 -115 -89 -57 -48 -145 -117 -196 -154 -51 -36 -92 -72 -93 -78 0 -21 95 -16 140 7 22 11 40 25 40 31 0 6 -6 6 -19 -1 -45 -23 -25 -5 94 90 150 120 241 205 227 214 -5 3 -13 -2 -16 -11z"></path><path id="pCTBZ3nS1" d="M2165 1148 c11 -6 23 -17 27 -23 10 -17 151 -135 278 -234 94 -73 109 -81 148 -81 24 0 42 4 40 9 -1 5 -57 49 -123 99 -66 49 -158 122 -203 162 -77 66 -88 72 -135 76 -43 3 -49 2 -32 -8z"></path></g></g><g id="l4CNCZTyVTFOA31yWKamXzG" fill="rgb(187,142,79)" style="transform: none;"><g style="transform: none;"><path id="p3H8WD7J6" d="M6973 9559 c-13 -5 -23 -14 -23 -21 0 -7 60 -47 132 -88 180 -103 175 -100 248 -150 36 -24 72 -45 80 -46 71 -10 90 -11 90 -5 0 9 -276 191 -375 248 -115 66 -128 71 -152 62z"></path><path id="pm22mkAH" d="M2922 9483 c-73 -42 -132 -80 -132 -85 0 -20 75 -4 190 41 l125 48 3 37 c2 33 0 36 -26 36 -17 0 -81 -31 -160 -77z"></path><path id="pAn7xpQZP" d="M2554 9411 c-128 -76 -344 -219 -344 -227 0 -2 10 -2 23 0 12 2 30 0 39 -5 13 -7 33 2 80 35 87 60 238 154 326 201 48 26 72 45 72 57 0 39 -60 21 -196 -61z"></path><path id="pFQO78o8M" d="M6658 9483 c-36 -9 -16 -29 79 -78 53 -27 166 -92 252 -142 96 -58 158 -89 162 -82 3 6 9 10 13 10 3 -1 16 -1 28 -1 20 0 18 3 -14 25 -129 88 -465 276 -489 274 -8 -1 -22 -3 -31 -6z"></path><path id="p1G79WEYnW" d="M2635 9310 c-49 -22 -100 -40 -113 -40 -12 0 -73 -27 -136 -59 -63 -33 -117 -57 -120 -54 -3 4 -6 1 -6 -5 0 -7 -5 -12 -11 -12 -11 0 -152 -87 -208 -129 l-34 -26 42 -7 c39 -7 49 -3 119 41 114 71 272 157 317 174 22 8 70 26 107 40 37 14 69 23 72 20 6 -6 126 78 126 89 0 19 -72 4 -155 -32z"></path><path id="pFBmRutTk" d="M6742 9199 c2 -6 100 -60 218 -120 185 -94 222 -109 263 -109 30 0 46 4 42 10 -4 6 4 5 19 -1 14 -7 23 -16 19 -22 -3 -6 -1 -7 6 -3 6 4 70 -23 144 -61 110 -57 137 -68 161 -62 15 4 34 5 42 2 32 -12 10 7 -49 45 -61 39 -202 114 -222 118 -5 1 -63 28 -128 59 -65 31 -135 59 -155 62 -21 3 -93 25 -162 49 -121 42 -206 56 -198 33z"></path><path id="pBpnuqxq3" d="M2585 9031 c-232 -114 -373 -194 -332 -187 15 3 27 1 27 -4 0 -5 13 -5 30 0 17 5 34 9 38 10 4 1 106 50 227 110 121 59 237 114 258 121 41 14 50 39 15 39 -13 0 -32 3 -43 5 -13 3 -94 -32 -220 -94z"></path><path id="p1D3bgOapB" d="M1104 7472 c-27 -3 -34 -12 -72 -88 -23 -46 -42 -86 -42 -89 0 -3 13 -5 30 -5 28 0 33 7 76 91 25 50 44 92 42 93 -2 0 -17 0 -34 -2z"></path><path id="pINaReAS1" d="M8953 7457 c37 -57 78 -137 70 -138 -4 -1 -18 0 -30 1 -13 1 -23 -1 -23 -4 0 -4 25 -44 57 -91 51 -78 59 -85 89 -85 l33 0 -39 89 c-31 70 -106 229 -114 238 -1 1 -14 4 -30 7 -26 5 -27 4 -13 -17z"></path><path id="p8AVMdSqr" d="M785 7352 c-19 -46 -35 -88 -35 -93 0 -5 13 -9 28 -9 27 0 32 7 69 93 l40 93 -34 0 c-32 -1 -34 -4 -68 -84z"></path><path id="plM7ypoey" d="M8816 7432 c-7 -12 94 -182 109 -182 41 0 45 10 23 53 -44 87 -82 137 -105 137 -12 0 -24 -4 -27 -8z"></path><path id="ptv2wO1bh" d="M532 7241 c-27 -59 -42 -106 -42 -131 0 -40 0 -40 38 -40 37 0 39 2 83 77 57 101 56 96 20 91 -29 -4 -32 -3 -27 18 3 12 9 29 12 38 4 11 0 16 -14 16 -11 0 -22 5 -24 11 -2 7 -23 -30 -46 -80z"></path><path id="pvx28pZTo" d="M9351 7240 c-7 -4 -22 -5 -33 -2 -15 4 -8 -13 34 -82 49 -80 55 -86 86 -86 l34 0 -28 48 c-64 108 -80 130 -93 122z"></path><path id="pY5in4Gls" d="M2385 1272 c-11 -2 -25 -8 -32 -14 -7 -6 -14 -5 -18 2 -3 5 -11 10 -17 10 -11 0 21 -26 62 -49 14 -8 79 -45 145 -83 66 -38 131 -71 145 -75 14 -3 60 -23 103 -45 42 -21 95 -40 116 -42 21 -2 47 -8 57 -14 11 -5 39 -17 64 -25 25 -9 90 -32 145 -51 97 -35 175 -46 175 -26 0 5 -71 45 -157 89 -87 43 -198 102 -247 130 -48 28 -93 51 -100 52 -32 4 -76 -2 -76 -10 0 -5 24 -23 53 -40 28 -17 49 -31 44 -31 -9 0 -298 146 -382 193 -33 19 -69 32 -80 29z"></path><path id="pI2HpJqc0" d="M7755 1242 c-53 -34 -383 -202 -462 -235 -85 -36 -83 -51 4 -42 56 6 93 20 218 82 183 92 375 201 375 214 0 20 -95 6 -135 -19z"></path><path id="p4UYgPnFG" d="M8008 1108 c-103 -74 -424 -251 -440 -242 -7 5 -8 3 -3 -6 5 -9 2 -10 -13 -6 -12 4 -31 2 -43 -4 -15 -8 -19 -9 -15 -1 8 12 -16 15 -28 4 -4 -5 -12 -8 -17 -8 -13 0 -208 -129 -209 -137 -1 -24 88 -2 210 51 74 32 136 54 138 50 2 -5 18 -2 35 7 30 14 31 14 12 -1 -21 -17 -200 -125 -273 -165 -48 -27 -50 -44 -3 -48 40 -4 112 35 321 174 133 88 246 171 201 148 -9 -4 -12 -2 -9 6 2 8 57 49 121 92 64 44 117 86 117 93 0 19 -73 14 -102 -7z"></path><path id="p2nopHAkJ" d="M2786 918 c8 -20 271 -182 445 -276 82 -44 102 -50 133 -45 44 7 43 18 -4 43 -165 89 -310 172 -388 221 -52 32 -98 57 -102 54 -5 -3 -11 -1 -15 5 -4 7 -12 7 -26 0 -13 -7 -19 -7 -19 0 0 5 -7 10 -15 10 -8 0 -12 -6 -9 -12z"></path><path id="p6EEYg1Nv" d="M2582 849 c-13 -5 -28 -7 -33 -3 -5 3 -9 1 -9 -3 0 -11 307 -215 416 -277 60 -34 91 -46 122 -46 27 0 42 4 42 13 0 6 -53 41 -117 77 -64 36 -172 102 -241 148 -68 45 -129 82 -133 82 -5 0 -9 5 -9 10 0 12 -7 12 -38 -1z"></path><path id="p10i2KEfx9" d="M7105 626 c-57 -21 -60 -24 -63 -59 -2 -20 0 -37 3 -37 13 0 185 104 185 112 0 15 -64 6 -125 -16z"></path></g></g><g id="lyGEq2DOm47H6Cp8xvZsNe" fill="rgb(198,153,63)" style="transform: none;"><g style="transform: none;"><path id="pDSuaNdqH" d="M10 4916 c0 -72 23 -302 31 -318 6 -10 21 -18 36 -18 24 0 25 2 20 38 -4 20 -12 103 -19 185 l-11 147 -29 0 c-25 0 -28 -3 -28 -34z"></path><path id="pBY2EDu15" d="M9990 4833 c0 -65 -3 -149 -7 -186 l-6 -69 29 4 c25 3 29 8 35 43 4 22 9 104 11 183 l3 142 -32 0 -33 0 0 -117z"></path><path id="pzb8nlONY" d="M200 4923 c1 -42 59 -356 67 -364 11 -11 40 -2 46 14 2 7 -6 70 -18 142 -13 72 -26 151 -29 178 -7 44 -9 47 -37 47 -21 0 -29 -5 -29 -17z"></path><path id="pLbDNR7Lk" d="M9582 4733 l3 -207 28 -7 c27 -7 27 -7 28 44 1 29 1 122 -1 207 -2 158 -5 170 -43 170 -16 0 -17 -15 -15 -207z"></path><path id="p8TdrUrvg" d="M9837 4753 c6 -193 9 -206 48 -201 18 3 19 10 17 133 -1 72 -5 158 -8 193 -6 60 -7 62 -34 62 l-28 0 5 -187z"></path><path id="pKSmBAaUx" d="M434 4868 c14 -136 38 -294 48 -320 8 -21 17 -27 49 -30 22 -2 44 -1 49 2 6 4 6 51 0 120 -5 63 -10 154 -10 203 l0 87 -30 0 -30 0 -1 -72 -2 -73 -9 73 c-10 71 -10 72 -40 72 l-31 0 7 -62z"></path><path id="p1GOqRJ1YN" d="M9496 4763 c-3 -93 -9 -185 -12 -206 -6 -36 -6 -37 23 -37 27 0 31 4 37 37 3 21 9 113 12 206 l7 167 -30 0 -30 0 -7 -167z"></path></g></g><g id="l5AlMlizFeSFiQieTp7wrA5" fill="rgb(200,158,93)" style="transform: none;"><g style="transform: none;"><path id="ptlgTmDsn" d="M6233 9873 c-7 -2 -13 -14 -13 -26 1 -19 16 -27 118 -60 165 -54 293 -106 479 -196 112 -55 164 -76 172 -68 5 5 25 10 42 9 l33 -1 -45 26 c-138 80 -435 211 -643 282 -123 43 -123 43 -143 34z"></path><path id="pTCW92OLZ" d="M3660 9834 c-36 -8 -98 -20 -137 -26 -40 -7 -73 -16 -73 -20 0 -5 -19 -8 -42 -7 -70 2 -355 -109 -621 -243 -94 -47 -136 -72 -127 -78 7 -4 24 -6 37 -4 12 2 23 0 23 -6 0 -6 46 13 102 41 162 81 492 219 526 219 3 0 -76 -41 -176 -92 -115 -57 -178 -94 -170 -99 6 -4 15 -6 18 -4 4 2 19 6 35 9 49 9 13 -10 -100 -53 -124 -47 -528 -232 -521 -238 2 -2 21 -4 42 -4 77 1 61 -5 354 120 89 38 384 137 478 161 31 8 42 16 42 30 0 17 -7 20 -44 20 -24 0 -74 -9 -111 -21 -37 -11 -69 -19 -71 -16 -14 13 452 215 639 276 129 43 53 68 -103 35z"></path><path id="pWxXYZXTA" d="M5852 9802 c-33 -3 -43 -7 -40 -19 2 -9 14 -20 28 -24 14 -4 99 -31 190 -60 91 -29 170 -53 175 -54 6 0 12 -2 15 -5 3 -3 58 -28 123 -54 65 -26 164 -70 220 -96 81 -38 106 -46 125 -39 13 5 34 7 48 5 39 -7 29 1 -43 38 -299 150 -749 315 -841 308z"></path><path id="p1G1tqoFl8" d="M5820 9537 c0 -19 10 -25 78 -44 67 -19 70 -21 27 -16 -43 5 -47 4 -35 -8 8 -8 42 -21 75 -28 33 -7 76 -16 95 -21 19 -5 47 -12 63 -15 15 -3 27 -12 27 -20 0 -8 16 -18 38 -24 317 -82 418 -112 521 -157 29 -13 58 -24 64 -24 6 0 68 -20 137 -44 87 -31 146 -45 193 -48 37 -2 67 -1 67 2 0 9 -202 92 -401 164 -96 35 -221 82 -279 106 -229 92 -573 200 -637 200 -28 0 -33 -4 -33 -23z"></path><path id="pAErovfSV" d="M3430 9356 c-102 -30 -252 -78 -335 -109 -155 -56 -375 -146 -375 -153 0 -2 14 -2 30 0 17 2 30 0 30 -4 0 -5 10 -6 22 -2 15 4 19 2 14 -7 -6 -9 -4 -10 10 -2 107 57 529 199 781 263 103 25 123 34 123 49 0 35 -95 24 -300 -35z"></path><path id="pLZhRELMC" d="M9058 7324 c-4 -5 9 -36 28 -69 40 -72 43 -63 5 20 -15 32 -30 55 -33 49z"></path><path id="pMX5RqA2n" d="M985 7288 c-7 -18 -23 -55 -34 -81 -12 -27 -21 -51 -21 -53 0 -3 14 -4 31 -2 28 3 34 10 65 81 19 43 34 80 34 82 0 3 -14 5 -31 5 -24 0 -33 -6 -44 -32z"></path><path id="pGgeG40Oi" d="M8925 7288 c-11 -6 -22 -12 -23 -14 -2 -1 13 -34 35 -73 35 -65 41 -71 71 -71 l32 0 -34 68 c-48 94 -57 104 -81 90z"></path><path id="p182LEgALK" d="M748 7260 c-5 -14 -20 -53 -34 -88 l-24 -63 32 3 c29 3 34 9 59 70 44 108 44 105 8 104 -24 -1 -34 -7 -41 -26z"></path><path id="p0261foca" d="M9120 7181 c0 -8 -10 -11 -29 -8 l-29 5 38 -82 39 -81 45 -3 46 -3 -52 88 c-59 102 -58 100 -58 84z"></path><path id="p1EAk7fnbF" d="M502 7167 c-14 -19 -72 -170 -72 -188 0 -11 12 -18 37 -22 20 -4 38 -5 38 -4 1 1 20 36 41 77 l39 75 -34 -4 c-36 -4 -37 1 -17 50 9 20 -18 33 -32 16z"></path><path id="pQ2GGd05W" d="M9429 7026 c26 -44 51 -81 56 -83 6 -2 19 3 29 10 18 13 17 17 -21 82 -37 62 -43 68 -75 69 l-34 1 45 -79z"></path><path id="p0GIHHIqW" d="M2870 1009 c-19 -5 -44 -6 -55 -3 -81 20 272 -127 480 -201 88 -31 219 -79 290 -107 159 -62 356 -129 490 -167 107 -30 185 -32 185 -5 0 8 -6 16 -12 19 -7 2 -35 11 -63 19 l-50 15 50 -4 c48 -4 48 -4 15 6 -19 6 -37 14 -40 18 -3 4 -52 17 -110 30 -141 30 -170 40 -170 56 0 7 -22 18 -52 25 -145 35 -314 85 -413 124 -60 24 -139 53 -175 64 -36 11 -110 37 -165 57 -55 20 -116 42 -135 49 -22 8 -48 10 -70 5z"></path><path id="plUy2G4LK" d="M7304 1011 c-17 -15 -369 -149 -524 -199 -85 -27 -212 -64 -282 -82 -151 -39 -171 -60 -57 -60 52 0 106 10 197 36 227 65 521 173 712 262 l85 40 -54 -5 c-32 -2 -57 0 -61 6 -3 6 -10 7 -16 2z"></path><path id="p6cmdWlAE" d="M7602 868 c-6 -6 -17 -13 -24 -14 -14 -2 -254 -103 -370 -155 -78 -35 -361 -129 -465 -154 -49 -11 -73 -22 -73 -31 0 -12 16 -14 93 -8 50 4 103 11 116 16 13 5 25 7 27 5 3 -2 -58 -33 -133 -69 -152 -72 -385 -164 -505 -199 -46 -14 -78 -28 -78 -36 0 -18 30 -16 182 12 73 13 167 28 208 33 146 19 580 197 838 345 l43 24 -63 -2 c-56 -2 -81 -11 -218 -78 -139 -68 -349 -157 -368 -157 -4 0 51 31 122 68 80 42 132 76 136 88 5 12 25 26 51 34 24 7 73 28 109 45 36 18 115 54 175 80 152 66 265 123 265 135 0 6 -14 10 -31 10 -17 0 -28 4 -24 10 8 14 2 13 -13 -2z"></path><path id="paOvORL7E" d="M3335 630 c-11 -4 -23 -6 -27 -4 -4 3 -10 0 -13 -6 -6 -9 175 -104 215 -112 8 -2 17 -6 20 -9 15 -20 372 -157 535 -207 111 -34 225 -43 225 -17 0 8 -22 20 -57 29 -225 63 -496 162 -722 265 -148 68 -152 70 -176 61z"></path><path id="pga5MTACI" d="M2990 549 c0 -10 349 -181 475 -233 215 -87 342 -126 411 -126 103 0 81 20 -83 73 -202 65 -350 124 -533 214 -133 64 -163 76 -212 77 -32 1 -58 -1 -58 -5z"></path></g></g><g id="l4jhdkTQOCZb3BB4HTFL8w5" fill="rgb(207,168,101)" style="transform: none;"><g style="transform: none;"><path id="p2ACjqvuN" d="M4840 10059 c-246 -11 -469 -42 -725 -98 -71 -16 -170 -37 -220 -46 -168 -30 -525 -125 -551 -146 -6 -5 -14 -6 -17 -2 -4 3 -7 1 -7 -5 0 -8 20 -13 53 -13 81 -3 100 0 107 12 4 6 16 10 26 8 11 -1 33 1 49 5 140 33 175 38 175 23 0 -7 7 -4 14 5 8 11 26 17 47 17 19 -1 73 10 120 24 182 54 402 77 740 77 401 0 768 -46 1113 -141 38 -10 72 -16 77 -14 4 3 41 6 81 7 l73 1 -40 14 c-73 26 -338 92 -473 118 -209 40 -431 66 -627 73 -245 9 -157 20 165 21 408 2 751 -43 1101 -144 107 -31 122 -33 135 -20 9 8 22 15 30 15 76 0 -165 76 -401 126 -331 70 -704 100 -1045 83z"></path><path id="ppLn493NP" d="M6305 9820 c-18 -8 -17 -9 8 -9 15 -1 27 4 27 9 0 12 -8 12 -35 0z"></path><path id="pYy3Yhf6o" d="M5851 9756 c2 -2 22 -6 44 -9 27 -4 35 -3 25 3 -14 9 -79 15 -69 6z"></path><path id="p1C1SZyFut" d="M4350 9729 c-355 -13 -681 -63 -1052 -161 -84 -22 -118 -35 -118 -46 0 -11 7 -13 33 -8 90 18 110 19 102 6 -6 -10 -4 -12 11 -6 77 31 464 104 704 133 208 26 850 26 1063 0 216 -26 432 -63 607 -104 164 -38 162 -38 198 -29 20 4 22 3 12 -9 -10 -12 -9 -15 4 -15 9 0 16 6 16 14 0 8 5 18 12 22 8 5 9 2 5 -9 -8 -21 -3 -21 17 -1 15 14 16 14 16 0 0 -9 -5 -16 -11 -16 -6 0 -9 -7 -5 -15 6 -18 4 -18 -60 -6 -480 91 -1127 109 -1644 45 -216 -26 -629 -105 -690 -131 -8 -3 -22 -5 -30 -4 -10 1 -8 -3 4 -10 15 -9 21 -9 24 -1 3 9 9 9 23 2 10 -6 19 -7 19 -2 0 11 58 3 66 -9 3 -5 10 -9 15 -9 6 0 7 4 4 10 -3 5 0 7 8 4 8 -3 68 6 133 20 151 31 338 60 529 83 191 22 879 25 1075 5 249 -26 496 -66 739 -118 15 -3 21 -2 14 3 -13 9 101 8 116 -2 5 -3 12 -1 15 4 4 5 2 12 -4 16 -11 7 -159 50 -200 59 -14 3 -41 9 -60 14 -20 5 -44 8 -55 6 -11 -2 -23 2 -27 9 -9 15 21 49 36 40 7 -4 8 -2 1 5 -5 6 -21 13 -35 15 -14 3 -65 17 -114 31 -125 37 -454 102 -631 125 -290 38 -582 51 -885 40z"></path><path id="pcMDVRLVq" d="M3135 9523 c-11 -3 -24 -9 -30 -15 -13 -12 46 1 60 13 10 10 4 10 -30 2z"></path><path id="pAOuJFTXJ" d="M966 7181 c-27 -5 -34 -16 -68 -100 -21 -52 -38 -98 -38 -103 0 -13 47 -9 57 5 13 16 86 197 82 201 -2 1 -17 0 -33 -3z"></path><path id="pKrEPzrDG" d="M740 7161 c-8 -6 -18 -7 -24 -4 -5 3 -6 1 -2 -5 4 -7 3 -12 -3 -12 -5 0 -22 -37 -37 -82 -15 -46 -29 -89 -32 -95 -3 -9 6 -13 26 -13 29 0 31 4 65 98 19 53 31 99 26 100 -5 2 -7 8 -3 13 7 11 3 11 -16 0z"></path><path id="p18R6CH7zy" d="M9012 7055 c48 -96 55 -105 80 -105 16 0 28 4 28 10 0 5 -21 53 -47 105 -46 91 -49 95 -80 95 l-33 0 52 -105z"></path><path id="p1EzzCu63t" d="M9140 7005 c22 -55 40 -105 40 -111 0 -27 39 -47 81 -41 22 3 43 7 45 10 3 2 -18 45 -46 94 -50 88 -52 89 -86 85 -19 -2 -34 0 -34 4 0 5 -9 20 -20 34 -13 17 -7 -7 20 -75z"></path><path id="pdlVbb6T4" d="M408 6930 c-25 -72 -43 -132 -40 -135 3 -3 17 -5 31 -5 23 0 32 11 74 95 42 85 45 95 29 103 -9 5 -23 7 -31 4 -10 -3 -12 3 -6 26 3 16 2 33 -3 36 -5 3 -29 -53 -54 -124z"></path><path id="pNfbfLwoM" d="M9489 6984 l-26 -13 46 -91 c41 -79 49 -90 73 -90 15 0 29 3 31 8 3 4 -18 50 -47 103 -51 97 -52 97 -77 83z"></path><path id="p13xIJ2Mu7" d="M3740 710 c-13 -11 -29 -16 -43 -13 -15 4 -19 3 -12 -5 10 -11 69 -29 210 -63 44 -11 98 -24 120 -30 22 -6 57 -11 77 -11 28 0 39 -5 43 -19 7 -21 20 -25 31 -7 4 6 3 8 -4 4 -6 -3 -14 -1 -18 5 -5 9 4 10 37 5 361 -58 595 -77 954 -77 361 0 604 20 935 77 140 24 450 92 459 100 8 7 -13 23 -34 27 -11 1 -25 6 -32 10 -7 4 -20 3 -30 -2 -20 -10 -342 -73 -493 -96 -282 -43 -388 -49 -795 -50 -489 0 -710 20 -1114 101 -95 19 -176 33 -179 30 -2 -3 -12 -1 -22 4 -10 5 -20 6 -24 3 -3 -4 -17 -7 -31 -8 -28 -1 -21 11 10 17 19 4 19 4 -2 10 -14 4 -30 -1 -43 -12z"></path><path id="pmdhXrmxM" d="M3658 713 c12 -2 32 -2 45 0 12 2 2 4 -23 4 -25 0 -35 -2 -22 -4z"></path><path id="pzWx34vs2" d="M4002 561 c-10 -6 -7 -10 12 -13 16 -3 25 -1 23 5 -5 15 -20 18 -35 8z"></path><path id="plLtXXII8" d="M4194 553 c4 -5 -14 -13 -41 -19 l-48 -11 60 -17 c100 -30 351 -84 510 -111 554 -91 1126 -91 1662 1 233 40 553 119 553 137 0 6 -3 7 -7 4 -3 -4 -11 -3 -17 2 -6 5 -29 12 -51 15 -31 4 -34 4 -15 -4 21 -7 19 -9 -20 -8 -25 0 -103 -14 -175 -31 -161 -38 -374 -75 -565 -98 -183 -22 -826 -26 -1015 -5 -200 22 -441 61 -610 99 -88 20 -170 36 -182 36 -13 -1 -23 3 -23 8 0 5 -5 9 -12 9 -6 0 -8 -3 -4 -7z"></path><path id="pGPdPo67M" d="M3996 322 c-8 -14 37 -23 49 -10 7 8 5 9 -6 5 -9 -3 -21 -1 -27 5 -6 6 -12 6 -16 0z"></path><path id="p19fgtax42" d="M4108 288 c-19 -11 231 -78 460 -123 209 -40 431 -66 627 -73 295 -10 139 -24 -215 -19 -380 6 -609 34 -935 117 -66 16 -133 30 -148 30 -19 0 -26 4 -21 12 5 7 3 8 -7 2 -16 -10 -18 -10 -84 -13 -44 -2 -47 -3 -25 -12 51 -21 267 -80 401 -109 294 -64 556 -92 874 -92 353 0 595 28 965 112 69 15 181 40 250 54 207 44 424 108 404 119 -15 9 -154 3 -219 -8 -16 -3 -37 -7 -45 -9 -8 -1 -26 -5 -40 -9 -14 -4 -41 -9 -60 -11 -19 -2 -78 -16 -130 -30 -214 -58 -481 -81 -862 -73 -360 7 -631 41 -913 114 -97 25 -252 37 -277 21z"></path></g></g><g id="l1dlaVi8h2Im1ADKdMYlcBn" fill="rgb(217,175,86)" style="transform: none;"><g style="transform: none;"><path id="p1AZur16X6" d="M9063 6986 c-16 -18 -6 -26 30 -26 22 0 28 4 23 16 -3 9 -6 18 -6 20 0 10 -36 2 -47 -10z"></path><path id="p3qHrG1UG" d="M9268 6892 c-31 -6 -21 -32 12 -32 17 0 30 4 30 9 0 14 -24 28 -42 23z"></path><path id="pWszYivDf" d="M421 5251 c-11 -7 -13 -32 -7 -133 4 -67 9 -144 13 -170 5 -45 7 -48 36 -48 l30 0 -6 58 c-3 31 -9 112 -13 180 -6 102 -10 122 -23 122 -9 0 -22 -4 -30 -9z"></path><path id="p1CX6YFdhH" d="M522 5251 c-10 -6 -13 -50 -14 -172 -1 -91 1 -170 5 -176 4 -6 18 -8 32 -5 l25 4 0 179 c0 164 -1 179 -17 179 -10 0 -24 -4 -31 -9z"></path><path id="p2eQTsmT4" d="M9500 5075 c0 -184 -2 -175 43 -179 7 -1 14 18 17 49 l6 50 10 -45 c8 -39 13 -45 37 -48 21 -3 27 1 27 15 0 29 -19 244 -25 291 l-6 42 -55 0 -54 0 0 -175z"></path><path id="p6UKDAKiu" d="M9809 5244 c-13 -4 -14 -15 -3 -92 6 -48 15 -121 18 -163 7 -76 8 -77 38 -81 l30 -5 -7 82 c-20 240 -29 271 -76 259z"></path><path id="pZ8wd3NLh" d="M8 5188 c-4 -94 4 -263 12 -271 4 -5 17 -6 29 -2 20 6 21 13 21 160 0 130 -2 154 -16 159 -37 14 -44 7 -46 -46z"></path><path id="pVUzuPJw1" d="M170 5237 c0 -27 31 -321 35 -327 2 -4 16 -5 31 -2 25 5 26 7 21 56 -4 28 -9 87 -12 131 -10 141 -12 145 -45 145 -17 0 -30 -2 -30 -3z"></path><path id="pAx6QjJVX" d="M9984 5224 c3 -9 6 -82 6 -164 0 -136 1 -148 18 -145 9 1 24 -1 33 -6 14 -7 15 8 11 154 -5 169 -7 177 -51 177 -17 0 -22 -4 -17 -16z"></path></g></g><g id="l7AEr7a1WYMdkOPvejBtQw2" fill="rgb(230,192,111)" style="transform: none;"><g style="transform: none;"><path id="p11mi78A2S" d="M9130 7040 c0 -18 103 -285 115 -296 7 -8 22 -14 33 -14 16 0 19 5 16 23 -3 12 11 -8 31 -45 31 -61 38 -68 65 -68 17 0 30 2 30 5 0 3 -27 60 -61 126 -59 118 -61 121 -90 117 -34 -5 -46 6 -101 95 -21 34 -38 60 -38 57z"></path><path id="p15mAYYUrT" d="M875 7009 c3 -4 1 -9 -4 -11 -4 -1 -27 -56 -50 -121 l-41 -118 31 3 c30 3 33 7 75 123 24 66 44 122 44 125 0 3 -13 5 -30 6 -16 1 -27 -2 -25 -7z"></path><path id="pyjkjh1QM" d="M648 6983 c-3 -10 -21 -71 -41 -135 l-35 -118 32 0 32 0 37 128 c20 71 37 132 37 136 0 4 -10 2 -21 -5 -16 -8 -23 -8 -29 1 -5 8 -9 6 -12 -7z"></path><path id="p1NFfxhor" d="M9061 6981 c-6 -4 12 -54 44 -126 51 -112 56 -120 85 -123 16 -2 30 1 30 7 0 5 -24 63 -53 128 -43 94 -58 118 -75 119 -11 1 -25 -2 -31 -5z"></path><path id="pXf50smM0" d="M335 6734 c-26 -66 -49 -125 -52 -131 -4 -9 8 -13 41 -13 33 0 46 4 46 14 0 13 47 162 66 210 6 15 4 17 -14 12 -14 -5 -24 -1 -30 10 -7 12 -20 -11 -57 -102z"></path><path id="p1HGahFDHl" d="M9545 6822 c-2 -2 21 -54 50 -115 49 -104 56 -112 82 -112 35 0 34 1 -25 132 -43 97 -47 102 -75 100 -16 -1 -30 -3 -32 -5z"></path><path id="pvyLSKu87" d="M541 5533 c-15 -16 -29 -135 -30 -253 -1 -63 0 -66 23 -68 31 -2 33 5 41 138 3 58 8 126 11 153 5 41 4 47 -13 47 -10 -1 -24 -8 -32 -17z"></path><path id="pBS7SQw8r" d="M9483 5508 c4 -24 9 -98 13 -165 l6 -121 51 -4 c34 -2 51 1 55 10 2 7 -4 74 -14 149 -18 133 -19 137 -46 147 -15 6 -28 14 -28 18 0 4 -10 8 -21 8 -19 0 -21 -4 -16 -42z"></path><path id="pa0onUy4b" d="M420 5530 c-12 -7 -14 -35 -13 -156 3 -154 8 -173 45 -153 16 9 18 26 18 164 0 141 -2 155 -17 155 -10 0 -25 -5 -33 -10z"></path><path id="p3lksEdxz" d="M167 5373 c3 -82 6 -154 8 -160 3 -7 16 -13 30 -13 l25 0 0 160 0 160 -34 0 -33 0 4 -147z"></path><path id="pqwYGiMaq" d="M9767 5398 c12 -68 22 -133 23 -145 0 -33 27 -55 51 -42 12 6 18 17 15 27 -2 9 -14 77 -27 150 l-22 132 -32 0 -31 0 23 -122z"></path><path id="peNJbt9vb" d="M9964 5448 c3 -29 9 -91 12 -138 7 -93 15 -110 50 -110 21 0 22 3 18 57 -11 135 -26 228 -37 235 -7 4 -21 8 -31 8 -17 0 -18 -5 -12 -52z"></path><path id="phDMbmb38" d="M15 5398 c-4 -51 -5 -115 -3 -143 3 -46 5 -50 31 -53 l27 -3 0 69 c0 38 3 103 6 145 l7 77 -31 0 -30 0 -7 -92z"></path></g></g><g id="l5KWOe97hFuGJqCf0VpQZHq" fill="rgb(243,208,127)" style="transform: none;"><g style="transform: none;"><path id="p1A3ScQor9" d="M9235 6740 c30 -89 27 -104 -5 -20 -14 38 -26 57 -34 53 -6 -4 -17 -8 -24 -9 -8 -2 -16 -4 -18 -6 -2 -2 16 -52 39 -111 l42 -107 37 0 c21 0 41 6 45 14 4 7 13 15 20 17 8 3 3 29 -16 89 -34 105 -63 163 -69 137 -4 -18 -5 -18 -23 -1 -17 15 -16 10 6 -56z"></path><path id="pNvD414IE" d="M762 6701 c-49 -154 -48 -141 -13 -141 30 0 31 2 62 103 18 56 34 107 36 113 2 7 -9 13 -25 16 -29 4 -29 3 -60 -91z"></path><path id="pL9MIIi08" d="M556 6663 c-14 -56 -26 -107 -26 -113 0 -5 13 -10 29 -10 28 0 29 2 55 105 14 57 26 106 26 109 0 2 -13 6 -29 8 l-29 4 -26 -103z"></path><path id="pI7g8eH3v" d="M9376 6603 c20 -43 42 -93 50 -110 12 -27 20 -33 44 -33 17 0 30 4 30 9 0 5 -21 54 -46 108 -44 96 -46 99 -79 101 l-35 3 36 -78z"></path><path id="p1FoHxSH5b" d="M357 6635 c-10 -7 -29 -12 -42 -10 -22 2 -27 -6 -53 -79 -50 -137 -50 -126 0 -126 24 0 48 4 54 8 9 6 67 213 61 218 -1 2 -10 -4 -20 -11z"></path><path id="p15KyX9grT" d="M9665 6626 c-11 -6 -21 -11 -23 -12 -1 -1 15 -43 37 -95 37 -89 41 -94 71 -97 29 -3 31 -2 24 20 -13 43 -76 188 -83 192 -3 2 -15 -1 -26 -8z"></path><path id="plX4WQtD7" d="M415 5758 c-3 -40 -5 -116 -3 -168 3 -89 4 -95 23 -92 11 2 23 7 26 10 4 4 9 78 13 165 l6 157 -29 0 c-29 0 -29 -1 -36 -72z"></path><path id="pC0TMfb0w" d="M560 5823 c0 -5 -7 -62 -15 -128 -8 -65 -15 -136 -15 -157 0 -35 2 -38 28 -38 26 0 28 3 31 43 1 23 8 92 16 152 19 142 20 135 -15 135 -16 0 -30 -3 -30 -7z"></path><path id="p1rBGD68j" d="M9455 5773 c4 -32 13 -104 19 -160 7 -56 15 -105 18 -109 4 -3 25 -8 47 -11 l40 -6 -5 34 c-3 19 -18 95 -32 169 l-27 135 -34 3 -33 3 7 -58z"></path><path id="piYZqnBWo" d="M9680 5791 c0 -9 55 -245 66 -283 3 -10 15 -18 27 -19 20 -1 20 -2 -3 -9 l-25 -8 28 -1 c15 -1 30 5 33 13 3 8 -11 82 -31 165 l-37 151 -29 0 c-16 0 -29 -4 -29 -9z"></path><path id="pWh9dipgd" d="M168 5638 c-5 -162 -1 -178 43 -178 16 0 17 16 18 157 1 86 4 160 7 165 3 4 -10 8 -29 8 l-35 0 -4 -152z"></path><path id="pSRTHrO3A" d="M9913 5758 c3 -13 15 -81 27 -153 12 -72 26 -135 31 -141 13 -16 49 -5 49 14 0 40 -43 278 -52 290 -6 6 -22 12 -35 12 -21 0 -24 -4 -20 -22z"></path><path id="pnl5lqH9p" d="M56 5753 c-5 -17 -36 -256 -36 -279 0 -11 48 -30 55 -22 2 2 10 66 20 143 9 77 18 148 21 158 4 13 -1 17 -25 17 -20 0 -31 -6 -35 -17z"></path></g></g><g id="l17BCMH8hwG1DtdEqCLDcQO" fill="rgb(253,220,140)" style="transform: none;"><g style="transform: none;"><path id="p3g3dIhSh" d="M754 6595 c-28 -12 -32 -20 -62 -131 -48 -183 -132 -595 -132 -651 0 -8 12 -13 29 -13 27 0 29 3 36 47 27 186 82 446 137 646 16 60 28 110 26 112 -2 2 -17 -2 -34 -10z"></path><path id="p22onSDPs" d="M9291 6591 c-7 -12 -20 -17 -39 -16 l-29 2 40 -111 c63 -175 122 -373 158 -523 18 -76 34 -140 35 -142 4 -5 64 -12 64 -7 0 28 -119 584 -145 679 -19 70 -35 129 -35 130 0 2 -9 3 -20 4 -11 1 -24 -6 -29 -16z"></path><path id="pv4eQ7Bf9" d="M554 6572 c-21 -3 -27 -19 -50 -149 -2 -15 -15 -89 -29 -163 -22 -128 -55 -390 -55 -444 0 -19 4 -24 15 -20 8 4 21 1 29 -5 11 -9 15 12 25 117 15 170 46 378 80 538 17 82 23 130 17 130 -6 0 -21 -2 -32 -4z"></path><path id="pAmbt1aLB" d="M9434 6476 c45 -107 61 -142 65 -146 4 -3 7 -12 9 -20 2 -8 25 -76 52 -150 26 -74 65 -191 85 -260 20 -68 45 -130 54 -137 25 -19 41 -15 41 9 0 54 -179 584 -202 599 -5 3 -8 8 -7 10 2 2 -5 27 -15 55 -17 45 -23 52 -57 61 l-38 10 13 -31z"></path><path id="p1CPRlDJDH" d="M302 6473 c-16 -17 -31 -24 -47 -20 -23 4 -26 -2 -54 -87 -53 -160 -110 -396 -145 -602 -5 -31 -4 -31 27 -25 21 5 33 13 35 26 20 126 92 448 99 441 2 -1 -5 -72 -16 -157 -11 -85 -21 -185 -23 -224 -3 -66 -2 -70 19 -73 31 -5 39 19 47 132 10 145 59 461 91 589 9 33 -2 33 -33 0z"></path><path id="pIgQ5I15t" d="M9710 6450 c0 -3 18 -54 41 -115 49 -134 122 -384 145 -499 13 -69 21 -86 40 -97 46 -24 46 -1 -1 187 -40 163 -140 482 -161 515 -8 13 -64 21 -64 9z"></path></g></g></svg>