<?xml version="1.0" encoding="utf-8"?>
<!DOCTYPE svg PUBLIC "-//W3C//DTD SVG 1.0//EN" "http://www.w3.org/TR/2001/REC-SVG-20010904/DTD/svg10.dtd">
<svg version="1.0" xmlns="http://www.w3.org/2000/svg" width="198px" height="200px" viewBox="0 0 198 200" preserveAspectRatio="xMidYMid meet">
 <g fill="#3a3016">
  <path d="M189.9 191.8 c-0.6 -5.2 -0.4 -6.8 0.8 -6.8 0.8 0 1.3 1.4 1.3 4 0 2.2 -0.4 4 -1 4 -0.5 0 -1.1 -0.6 -1.1 -1.2z"/>
  <path d="M133.6 77.5 c-0.4 -1.4 -0.2 -3.3 0.3 -4.3 1.1 -1.8 1.3 -1.5 1.5 3.5 0.1 3.9 -0.9 4.3 -1.8 0.8z"/>
 </g>
 <g fill="#413e30">
  <path d="M109.6 62.7 c-1 -0.7 -1.7 -2.1 -1.5 -3.1 0.3 -1.4 0.9 -1.2 3.9 1.3 3 2.6 3.2 3 1.4 3.1 -1.1 0 -2.8 -0.6 -3.8 -1.3z"/>
  <path d="M160 54 c0 -0.5 0.8 -0.6 1.7 -0.3 1.2 0.5 1.5 0.2 1 -1 -0.3 -0.9 -0.2 -1.7 0.3 -1.7 0.6 0 1 0.9 1 2 0 1.3 -0.7 2 -2 2 -1.1 0 -2 -0.4 -2 -1z"/>
  <path d="M0.5 8.1 c-0.3 -0.5 -0.2 -1.2 0.3 -1.5 1.2 -0.7 5.2 0.4 5.2 1.5 0 1.2 -4.7 1.2 -5.5 0z"/>
 </g>
 <g fill="#6d4b26">
  <path d="M189.8 192.5 c-0.2 -5.5 0 -7.5 1 -7.5 0.8 0 1.2 2.2 1.2 7.5 0 9.8 -1.7 9.7 -2.2 0z"/>
 </g>
 <g fill="#966635">
  <path d="M189.8 192.1 c-0.2 -4.8 0.1 -7.1 0.8 -7.1 0.8 0 1 2.1 0.7 6.8 -0.3 3.7 -0.7 6.8 -0.8 7 -0.2 0.2 -0.5 -2.8 -0.7 -6.7z"/>
  <path d="M187.6 167.8 c-0.4 -2.4 -0.9 -5.8 -1.2 -7.5 -0.6 -3.1 -0.5 -3.3 2.4 -3.3 l3.1 0 0 7.5 c0 6.6 -0.2 7.5 -1.8 7.5 -1.4 0 -2 -1 -2.5 -4.2z"/>
  <path d="M187 44.1 c0 -0.5 1 -1.7 2.2 -2.6 1.8 -1.2 2.1 -1.9 1.2 -3.2 -1.6 -2.5 -6.3 -3.4 -12.3 -2.3 -6.8 1.2 -7.1 1.2 -7.1 -0.1 0 -1.5 6.4 -3.9 10.5 -3.9 6.8 0 12 4.8 10.2 9.4 -0.7 1.8 -4.7 4.1 -4.7 2.7z"/>
  <path d="M185.8 28.9 c-3.8 -2.2 -6.8 -4.4 -6.8 -4.9 0 -0.8 11.7 2.1 14 3.5 1.1 0.7 1.4 5.5 0.3 5.5 -0.5 0 -3.8 -1.8 -7.5 -4.1z"/>
  <path d="M172.5 31.1 c0.3 -0.5 0.1 -1.2 -0.5 -1.6 -0.5 -0.3 -1 -1.5 -1 -2.5 0 -1 -0.7 -2.3 -1.6 -2.8 -1.4 -0.8 -1.4 -1.3 -0.4 -3.2 1.1 -2 1.4 -2.1 2.4 -0.9 0.6 0.8 2.1 1.3 3.4 1.1 1.7 -0.3 2.2 0.1 2.2 2 0 1.3 0.5 2.9 1.2 3.6 1.4 1.4 0.6 2.3 -3.5 4 -1.6 0.7 -2.6 0.8 -2.2 0.3z"/>
  <path d="M185.5 23.8 c-7.1 -1.3 -7.5 -2.4 -1.1 -3.3 7.2 -0.8 11.8 0.1 11.4 2.3 -0.4 2.1 -3.5 2.4 -10.3 1z"/>
  <path d="M178.7 17 c3.4 -5.9 5.9 -8.4 7.6 -7.7 3.2 1.2 1.8 4.3 -3.4 7.6 -2.8 1.7 -5.3 3.1 -5.5 3.1 -0.3 0 0.3 -1.4 1.3 -3z"/>
  <path d="M174.6 17.5 c-1 -2.8 -0.7 -14.3 0.5 -15.1 0.6 -0.3 1.8 0 2.6 0.9 1.3 1.3 1.3 2.3 0.2 7.3 -1.6 7.5 -2.4 9.2 -3.3 6.9z"/>
  <path d="M168.7 11.3 c-1.3 -1.2 -0.7 -6.3 0.7 -6.3 1.3 0 2.6 2.8 2.6 5.8 0 1.3 -2.2 1.7 -3.3 0.5z"/>
 </g>
 <g fill="#9c6c36">
  <path d="M189.6 185.8 c-0.3 -1.3 -0.8 -6.3 -1.2 -11.3 -0.9 -11.6 -1 -12 -2.8 -18.5 -1.2 -4 -1.4 -6.3 -0.6 -8.3 1.2 -3.5 4.8 -8.7 6 -8.7 0.5 0 0.9 10.7 0.9 24.5 0 14.6 -0.4 24.5 -0.9 24.5 -0.5 0 -1.2 -1 -1.4 -2.2z"/>
  <path d="M174.2 134.9 c-4.2 -4.3 -5.3 -11.9 -1.8 -11.9 0.8 0 1.1 1.2 0.8 3.4 -0.3 2.7 0.1 3.7 2.3 5.5 5.1 3.9 12.3 2 16.1 -4.3 1.4 -2.3 1.9 -2.7 2.2 -1.4 0.5 2.6 -2.6 7.7 -6.1 9.8 -4.9 3 -9.9 2.6 -13.5 -1.1z"/>
  <path d="M176.4 127.5 c-0.8 -2 0.4 -3.5 2.7 -3.5 2.3 0 2.6 -1.8 0.4 -2.6 -2.3 -0.9 -1.8 -2.6 0.7 -2.2 3.3 0.5 4.7 5.1 2.3 7.8 -2.1 2.3 -5.3 2.6 -6.1 0.5z"/>
  <path d="M169.2 36.8 c0.2 -0.6 1.9 -1.8 3.6 -2.5 2.7 -1.1 3.2 -1.1 3.2 0.1 0 1.7 -0.5 2.1 -4.3 3 -2.1 0.5 -2.8 0.3 -2.5 -0.6z"/>
  <path d="M167.2 32.2 c0.1 -1.5 0.6 -3 1.1 -3.3 0.6 -0.4 0.5 -1.4 -0.1 -2.5 -0.7 -1.3 -0.6 -2.6 0.4 -4.6 1.4 -2.8 1.4 -2.8 3.4 -0.8 1.1 1.1 2 2.5 2 3.2 0 0.6 0.7 2 1.7 3 0.9 1 1.4 2 1.2 2.1 -0.2 0.2 -2.5 1.5 -5.1 3 l-4.8 2.5 0.2 -2.6z"/>
  <path d="M191.1 31.3 c-0.5 -1 -1.3 -1.7 -1.8 -1.5 -0.4 0.1 -0.8 -0.4 -0.8 -1 0 -1.8 6.4 -1.4 8.2 0.5 0.9 0.8 1.2 2 0.9 2.6 -1.1 1.7 -5.4 1.3 -6.5 -0.6z"/>
  <path d="M171.2 16.6 c-1.3 -3.1 -0.8 -4.6 0.9 -2.9 0.6 0.6 0.9 2.1 0.7 3.4 -0.4 2.4 -0.5 2.3 -1.6 -0.5z"/>
 </g>
 <g fill="#a97638">
  <path d="M187.6 151.8 c-1.3 -4.9 -0.6 -8.4 2 -10.9 l2.5 -2.4 -0.1 6 c-0.1 3.3 -0.4 6.8 -0.7 7.8 -0.6 2.4 -3 2.1 -3.7 -0.5z"/>
  <path d="M186.2 135.3 c-0.8 -0.3 0 -1.6 2.3 -3.7 7.6 -6.6 5 -14.6 -6.5 -20.3 -3.6 -1.8 -8.7 -3.7 -11.5 -4.4 -8.3 -1.9 -13.5 -4 -16.3 -6.5 -1.5 -1.3 -2.2 -2.4 -1.6 -2.4 0.7 0 1.4 -0.8 1.6 -1.8 0.6 -2.1 9.6 -4.8 11.1 -3.3 1.5 1.5 -0.8 3.8 -4.6 4.7 l-3.2 0.7 3.5 1.3 c5.2 1.9 13.8 1.7 18.5 -0.5 9.9 -4.5 15.1 -16.8 10.9 -25.7 -1.7 -3.7 -8.2 -7.4 -12.7 -7.4 -6.7 0 -12.7 4.8 -12.7 10.1 0 2.3 2.5 5.9 3.3 4.8 0.2 -0.2 1.1 -1.6 2 -3.1 2.9 -4.7 9.7 -3.1 9.7 2.2 0 0.6 -1.1 2.2 -2.5 3.5 -7.8 7.9 -18.8 -3.6 -14.2 -14.8 3 -7 11.1 -9.5 19.8 -6.1 8.3 3.4 13.4 15.2 11 25.8 -1.5 6.6 -5.8 12.9 -10.7 15.4 l-3.5 1.8 4.6 3 c5.8 3.6 9.5 9.6 9.5 15.3 0 6.7 -4.1 12.7 -7.8 11.4z"/>
  <path d="M170.7 128.9 c-1 -3.9 1.1 -8.7 4.5 -10.5 2.7 -1.4 3.2 -1.4 5.4 0.1 3.3 2.1 3.1 3.8 -0.4 3 -3.8 -0.8 -7.1 1.9 -8.1 6.5 -0.7 3.4 -0.7 3.5 -1.4 0.9z"/>
  <path d="M177 126.6 c0 -2.3 0.4 -2.6 3.6 -2.6 3.6 0 3.6 0.1 2.2 2.3 -0.9 1.2 -2.5 2.3 -3.7 2.5 -1.7 0.3 -2.1 -0.2 -2.1 -2.2z"/>
  <path d="M157.5 60.1 c-0.3 -0.6 0.9 -0.8 2.9 -0.4 4.2 0.7 7.6 -2.3 7.6 -6.7 0 -3.9 -3.8 -6.7 -6.9 -5 -2.4 1.2 -2.7 3 -0.9 4.8 1.7 1.7 3.1 1.5 2.4 -0.3 -0.3 -0.8 -0.1 -1.5 0.4 -1.5 1.6 0 1.1 3 -0.5 3.6 -2.1 0.9 -4.5 -1.4 -4.5 -4.2 0 -3.5 4.1 -5.9 8 -4.6 1.7 0.7 3 0.7 3 0.2 0 -0.5 1.1 -1.7 2.4 -2.5 1.9 -1.3 2.9 -1.4 4.5 -0.5 2.1 1.1 2.9 4 1.1 4 -0.5 0 -0.7 -0.7 -0.4 -1.5 0.4 -0.9 0 -1.5 -1 -1.5 -1.8 0 -2 1.7 -0.7 5.3 0.9 2.3 0 5.2 -1.6 5.2 -0.4 0 -2.2 1.5 -4 3.3 -2.5 2.5 -4 3.2 -7.2 3.2 -2.2 0 -4.2 -0.4 -4.6 -0.9z m16.4 -8.8 c-0.1 -1 -0.5 -2.9 -0.9 -4.3 -0.7 -2.1 -0.8 -1.9 -0.9 1.8 -0.1 2.3 0.4 4.2 0.9 4.2 0.6 0 1 -0.8 0.9 -1.7z"/>
  <path d="M160.1 42.2 c0.3 -1.7 -0.2 -3.2 -0.8 -3.1 -3 0.5 -3.2 -0.4 -0.8 -4.9 2.3 -4.4 5.4 -16.1 5.5 -20.3 0 -0.9 -0.8 -2.7 -1.8 -3.9 l-1.9 -2.3 -2.1 2.3 c-1.2 1.3 -2.5 2.1 -2.8 1.7 -1.1 -1 2.7 -4.7 4.7 -4.7 1 0 2.8 1 3.9 2.3 1.9 1.9 2.1 3.1 1.8 9.2 -0.4 5.8 -1.1 8.1 -4.1 13.3 -2 3.5 -3.7 6.5 -3.7 6.6 0 0.2 0.7 0.3 1.5 0.3 0.8 0 3.1 -1.9 5.2 -4.1 l3.8 -4.1 -4.2 4 c-2.4 2.1 -4.3 3.4 -4.3 2.8 0 -0.6 0.8 -1.7 1.7 -2.4 0.9 -0.8 3 -4.3 4.6 -7.9 2.7 -6 3 -6.3 4.3 -4.5 0.8 1 1.5 2.4 1.5 2.9 0.5 4.3 0.3 6.6 -0.6 6.6 -0.6 0 -3.3 2.1 -6 4.6 -2.8 2.5 -3.9 3.9 -2.5 3 5 -3.2 9 -4.9 9.7 -4.1 0.5 0.4 0.2 1 -0.6 1.3 -0.8 0.2 -3.8 1.7 -6.7 3.3 -3 1.5 -5.3 2.5 -5.3 2.1z"/>
  <path d="M151.8 35 c-0.9 -1.7 -2.4 -3 -3.3 -3 -1 0 -1.5 -0.7 -1.3 -1.7 0.2 -1.3 1.6 -2 4.3 -2.3 l4 -0.6 -3.9 -0.8 c-2.8 -0.5 -4.1 -0.4 -4.7 0.5 -0.4 0.8 -1.1 1 -1.5 0.6 -0.4 -0.4 -0.1 -1.4 0.7 -2.3 1.2 -1.2 2.1 -1.3 4.4 -0.4 3.1 1.2 5.5 0.7 5.5 -1.1 0 -0.6 -0.7 -0.9 -1.5 -0.5 -0.8 0.3 -1.5 0.1 -1.5 -0.5 0 -0.6 0.8 -0.9 1.8 -0.7 2.6 0.5 2.9 6.2 0.3 8 -1.4 1 -1.7 1.8 -1 2.8 1.1 1.8 1.2 5 0.2 5 -0.5 0 -1.6 -1.4 -2.5 -3z"/>
  <path d="M193.1 31.4 c0 -1.2 0.6 -2.4 1.4 -2.8 0.8 -0.3 1.5 -0.1 1.5 0.4 0 0.6 -0.4 1 -0.9 1 -0.5 0 -1.2 0.8 -1.4 1.8 -0.4 1.3 -0.5 1.2 -0.6 -0.4z"/>
  <path d="M168.1 10 c-3 -6.5 -3.5 -10 -1.3 -10 1.9 0 3.5 3.1 4.8 9.3 0.7 3.4 0.9 6.6 0.5 7 -0.4 0.4 -2.2 -2.4 -4 -6.3z"/>
 </g>
 <g fill="#d7a949">
  <path d="M155 101 c-1.4 -1.1 -4.8 -2.6 -7.6 -3.5 -8.9 -2.6 -13.5 -10 -13.3 -21 0.1 -2.7 0.3 -4.1 0.5 -3 2.4 12.1 2.7 12.8 6.5 16.6 2.1 2.1 4.3 3.9 4.8 3.9 0.6 0 -0.2 -2.6 -1.7 -5.7 -3.5 -7.6 -3.7 -19.8 -0.4 -28.2 1.2 -3 2 -5.6 1.9 -5.8 -0.2 -0.1 -2.7 0.6 -5.6 1.7 -8.7 3.4 -22.1 3.9 -22.1 1 0 -0.6 2.3 -1 5 -1 6.1 0 15.2 -2.9 21.9 -7 5.5 -3.4 6.4 -3.6 8.1 -1.5 1 1.2 0.4 3.2 -3.5 10.8 -7.3 14.5 -7.4 25.2 -0.2 33.3 2.4 2.9 3.5 3.4 5.7 2.9 2.6 -0.6 2.7 -0.5 2.6 4 -0.1 2.5 -0.1 4.5 -0.1 4.5 0 0 -1.1 -0.9 -2.5 -2z"/>
  <path d="M113.8 64.8 c-1.6 -0.5 -2.8 -1.6 -2.8 -2.4 0 -1.7 0 -1.7 3.7 0.1 1.6 0.8 5.4 1.9 8.4 2.4 l5.4 0.9 -6 0 c-3.3 0 -7.2 -0.4 -8.7 -1z"/>
  <path d="M155.9 59 l-2.4 -2 3.3 1.6 c3.2 1.5 4 2.4 2.3 2.4 -0.5 0 -1.9 -0.9 -3.2 -2z"/>
  <path d="M140.6 43.8 c-2.9 -4.1 -2 -9 2.6 -14.7 4.3 -5.2 5.2 -5.9 6.3 -4.1 0.4 0.6 0.1 0.9 -0.6 0.8 -0.6 -0.2 -1.3 0.2 -1.6 0.9 -0.2 0.6 0.6 1.3 1.9 1.5 3.2 0.4 6.4 7.2 4.9 10.4 -1.9 4.1 -9.1 4 -9.1 -0.1 0 -1.9 2.7 -3.8 3.5 -2.5 0.3 0.5 -0.1 1 -0.9 1 -2 0 -2.1 2.6 -0.1 3.4 3.7 1.4 6.1 -1.9 4.3 -5.9 -1.6 -3.6 -7.1 -3.8 -10 -0.3 -2.2 2.5 -2.3 6.6 -0.2 9.6 0.8 1.2 1.3 2.2 1 2.2 -0.3 0 -1.2 -1 -2 -2.2z"/>
  <path d="M157.3 39.4 c-0.7 -0.3 -0.9 -1.2 -0.6 -2 0.8 -2.1 1.9 -1.7 1.9 0.6 0 1.1 0 2 -0.1 1.9 0 0 -0.5 -0.3 -1.2 -0.5z"/>
  <path d="M121 37.3 c-3.4 -1.3 -6 -4.7 -6 -8 0 -3 0.3 -3.3 3.3 -3.4 l3.2 -0.1 -2.7 -1 c-3.3 -1.2 -3.5 -2.3 -0.7 -3.9 1.6 -0.8 2.8 -0.8 4.6 0 2.2 1 2.4 1.6 1.9 4.4 -0.6 3 -2.4 5.1 -5 6 -2 0.7 1.5 3.7 4.4 3.7 6.2 0 10.8 -7.4 9.6 -15.4 -1.5 -9.5 -11.2 -14.2 -21 -10.1 -3.6 1.5 -3.6 1.5 -3.6 -0.9 0 -2.2 0.6 -2.6 4.5 -3.2 5.6 -0.8 12.7 0.9 17.7 4.2 10.1 6.6 10.3 22.8 0.3 27 -3.5 1.4 -7.7 1.7 -10.5 0.7z"/>
  <path d="M47 11.6 c0 -2 0.6 -2.4 4.6 -3 9.4 -1.3 10.6 -0.5 4.9 3.2 -1.9 1.2 -4.8 2.2 -6.5 2.2 -2.5 0 -3 -0.4 -3 -2.4z"/>
 </g>
 <g fill="#e1b955">
  <path d="M134.3 77 c0 -2.5 0.2 -3.5 0.4 -2.2 0.2 1.2 0.2 3.2 0 4.5 -0.2 1.2 -0.4 0.2 -0.4 -2.3z"/>
  <path d="M117.3 58 c-1.7 -0.4 -4.9 -1.6 -7 -2.7 -2.1 -1.1 -4.4 -1.8 -5 -1.6 -0.9 0.3 -1.3 -0.7 -1.3 -3.3 l0 -3.8 3.3 3.2 c6.4 6.2 16.3 8 25.5 4.8 l4.2 -1.5 -1.6 2.4 c-0.9 1.4 -2.4 2.6 -3.3 2.7 -0.9 0 -2.3 0.2 -3.1 0.2 -0.8 0.1 -1.8 -0.2 -2.1 -0.8 -0.4 -0.5 -1.5 -0.5 -2.5 -0.1 -2.8 1.2 -3.6 1.2 -7.1 0.5z"/>
  <path d="M128 36.9 c0 -0.5 -0.8 -0.9 -1.7 -1 -1.3 0 -1.1 -0.3 0.6 -1 1.8 -0.7 2.8 -0.6 3.9 0.4 1.2 1.2 1.1 1.5 -0.7 2 -1.2 0.3 -2.1 0.1 -2.1 -0.4z"/>
  <path d="M116.7 34.2 c-3.2 -3.3 -3.6 -7.9 -0.8 -11.3 1.6 -2 2.2 -2.1 5.2 -1.3 2.4 0.7 3.5 1.6 3.7 3.2 0.5 3.3 -1.5 5.3 -4.4 4.6 -1.3 -0.3 -2.4 -0.4 -2.4 -0.1 0 1.4 2.4 5.7 3.2 5.7 0.4 0 0.8 0.5 0.8 1 0 1.9 -2.6 1 -5.3 -1.8z"/>
  <path d="M65.1 25.5 c-2 -2.3 -3.1 -4.6 -3.1 -6.6 0 -6.8 6.2 -12.9 13 -12.9 l3.5 0.1 -4 1.4 c-2.2 0.8 -4.1 1.5 -4.2 1.5 -0.1 0 -1.1 1.5 -2.2 3.4 -3 4.9 -2.7 9.1 0.9 12.8 3.5 3.5 3.6 3.8 1.1 3.8 -1 0 -3.3 -1.6 -5 -3.5z"/>
  <path d="M71.7 23.3 c-1.3 -1.2 -0.7 -4 1.2 -5.7 1.8 -1.7 1.9 -1.6 2.6 1.3 0.3 1.7 0.4 3.5 0 4.1 -0.7 1.1 -2.8 1.3 -3.8 0.3z"/>
  <path d="M100 15.1 c0 -3.4 0.4 -4.2 3.8 -6.1 4 -2.5 12.2 -3.9 12.2 -2.2 0 0.5 -0.9 0.8 -2 0.5 -1.3 -0.3 -2 0 -2 0.9 0 0.7 -1.3 2.1 -2.9 3.1 -1.6 0.9 -4.1 3.1 -5.5 4.7 -1.3 1.7 -2.7 3 -3 3 -0.3 0 -0.6 -1.8 -0.6 -3.9z"/>
  <path d="M39.3 12.2 c-5.8 -1.3 -7.3 -2 -7.3 -3.4 0 -1.7 1.2 -1.8 15 -1.8 8.3 0 15 0.2 15 0.4 0 0.3 -2 1.8 -4.5 3.5 -2.5 1.7 -4.5 2.6 -4.5 2.1 0 -0.6 -0.7 -1 -1.5 -1 -0.8 0 -1.5 0.5 -1.5 1 0 1.2 -1.6 1.1 -10.7 -0.8z"/>
 </g>
 <g fill="#eed276">
  <path d="M111.5 63.8 c-4.4 -2.3 -7.6 -6.4 -9.1 -11.5 -0.8 -2.9 -2 -5.6 -2.6 -5.9 -1.4 -0.9 -5.8 -11 -5.8 -13.5 0 -3.4 -5.8 -17.3 -8.7 -20.7 -1.6 -1.8 -4.6 -3.9 -6.8 -4.7 -3.7 -1.3 -3.8 -1.4 -1.1 -1.5 4.4 0 10.7 4.2 14 9.5 l3 4.6 1.4 -2.8 c2 -3.8 5.3 -7.3 6.9 -7.3 0.8 0 1.2 0.4 0.9 0.9 -0.4 0.5 -0.2 1.1 0.4 1.3 0.5 0.1 -0.4 3 -2 6.2 -3.3 6.5 -3.9 14.2 -1.6 20.6 l1.3 3.5 0.7 -3.2 c0.9 -3.7 2.7 -5.5 4.5 -4.4 1 0.7 1 1.8 -0.3 6.1 -2 6.7 -2.1 6.3 0.9 9.3 2.4 2.3 2 4.7 -0.5 3.2 -2.7 -1.7 -0.5 2.1 3.5 6 4.4 4.3 4.9 6.4 1 4.3z"/>
  <path d="M113 55.5 c-0.7 -0.8 -0.8 -1.5 -0.2 -1.5 0.5 0 1.5 0.7 2.2 1.5 0.7 0.8 0.8 1.5 0.2 1.5 -0.5 0 -1.5 -0.7 -2.2 -1.5z"/>
  <path d="M70.3 29 c-1.3 -0.5 -2.3 -1.4 -2.3 -2 0 -1.2 -0.2 -1.2 3.7 -0.1 2.9 0.8 3.5 0.6 5.3 -1.7 2.2 -2.7 2.3 -5.3 0.4 -5.9 -0.7 -0.2 -1.4 0.8 -1.8 2.2 -0.8 3 -3.1 3.3 -3.9 0.6 -0.6 -2.5 1.9 -6.1 4.3 -6.1 1 0 3.1 1 4.5 2.3 2.2 1.8 2.5 2.8 2 5 -1.2 4.6 -7.7 7.6 -12.2 5.7z"/>
  <path d="M25 10 c-3 -0.5 -9.6 -0.8 -14.7 -0.9 -5 -0.1 -9.5 -0.6 -9.8 -1.1 -0.4 -0.7 5.6 -1 17.3 -1 17.5 0 18 0.1 17.5 2 -0.6 2.2 -1.2 2.2 -10.3 1z"/>
 </g>
</svg>