<svg class="img-fluid" id="outputsvg" xmlns="http://www.w3.org/2000/svg" style="transform: matrix(1, 0, 0, 1, 0, 0); transform-origin: 50% 50%; cursor: move; transition: transform 200ms ease-in-out;" width="522" height="538" viewBox="0 0 5220 5380"><g id="l2C0xS4QhKkO941YXWlSJYC" fill="rgb(226,193,103)" style="transform: none;"><g style="transform: none;"><path id="p1Ar4pAndx" d="M3240 4889 c-15 -28 -4 -38 15 -13 17 22 19 34 5 34 -5 0 -14 -9 -20 -21z"></path><path id="pieMOXpSu" d="M2710 4842 c0 -5 14 -7 30 -4 17 2 30 6 30 8 0 2 -13 4 -30 4 -16 0 -30 -4 -30 -8z"></path><path id="pfAID6x8L" d="M2740 4812 c0 -11 78 -28 87 -18 10 10 0 15 -45 22 -27 4 -42 3 -42 -4z"></path><path id="p1GF9hWu0S" d="M1777 4743 c-4 -3 -7 -19 -7 -35 0 -24 3 -27 18 -18 25 15 76 33 85 32 4 -1 7 5 7 13 0 11 -12 15 -48 15 -27 0 -52 -3 -55 -7z"></path><path id="pKiriJVo8" d="M1950 4736 c0 -18 31 -26 103 -26 50 0 57 2 57 20 0 18 -7 20 -80 20 -61 0 -80 -3 -80 -14z"></path><path id="p13fDQCTLB" d="M2000 4670 c0 -5 9 -10 20 -10 11 0 20 5 20 10 0 6 -9 10 -20 10 -11 0 -20 -4 -20 -10z"></path><path id="p1gdKo2zC" d="M2015 4620 c3 -5 20 -10 36 -10 18 0 28 4 24 10 -3 6 -20 10 -36 10 -18 0 -28 -4 -24 -10z"></path><path id="p7KgCnLhp" d="M1166 4564 c-9 -8 -20 -13 -26 -9 -5 3 -23 -1 -40 -10 -23 -12 -30 -22 -30 -45 l0 -29 44 29 c24 17 51 30 60 30 26 0 86 28 86 39 0 17 -77 13 -94 -5z"></path><path id="pHVRLRnAy" d="M1830 4494 c0 -10 14 -14 47 -14 54 0 51 9 -7 20 -31 6 -40 4 -40 -6z"></path><path id="p72znoNAa" d="M833 4253 c-45 -86 -62 -146 -73 -268 -5 -60 -14 -137 -20 -170 -5 -33 -10 -110 -10 -172 0 -124 5 -115 -75 -128 -85 -14 -185 -74 -278 -167 -100 -100 -125 -145 -157 -287 -25 -113 -30 -123 -75 -151 -83 -51 -152 -177 -142 -258 13 -106 105 -234 248 -343 l76 -57 12 -72 c13 -82 43 -146 96 -208 28 -32 64 -55 144 -93 181 -85 264 -136 336 -204 38 -35 38 -35 57 -15 10 11 23 42 28 68 12 66 52 152 81 178 22 19 95 64 104 64 2 0 19 -21 37 -47 22 -31 52 -57 84 -73 70 -35 220 -34 347 4 48 14 89 26 91 26 13 0 14 -36 2 -65 -8 -18 -10 -37 -6 -41 5 -5 5 -27 0 -48 -5 -22 -6 -44 -3 -49 3 -4 -3 -15 -13 -22 -18 -14 -18 -14 2 -15 15 0 23 -8 26 -25 3 -14 1 -28 -3 -31 -19 -11 -8 -24 21 -24 27 0 30 -2 24 -25 -6 -26 3 -31 48 -27 10 1 24 -7 30 -18 7 -11 19 -20 26 -20 10 0 10 -5 1 -22 -10 -18 -8 -24 7 -35 10 -7 26 -13 36 -13 11 0 15 -5 12 -15 -8 -20 1 -19 21 1 21 22 31 10 17 -21 -13 -27 1 -35 16 -9 10 18 14 14 37 -30 12 -24 71 -41 90 -26 9 7 15 6 24 -3 6 -8 8 -17 4 -20 -3 -4 3 -7 15 -7 11 0 25 7 30 16 8 14 10 14 21 0 25 -29 101 -11 101 24 0 5 25 12 55 15 41 6 58 13 66 27 9 16 18 19 43 15 35 -6 66 11 66 35 0 26 26 41 49 29 17 -9 22 -8 31 10 6 11 18 18 25 15 15 -5 85 53 85 72 0 6 9 14 21 17 21 7 43 50 33 66 -3 5 2 19 10 31 11 15 14 34 10 60 -4 21 -2 38 3 38 5 0 9 26 8 58 0 41 7 72 26 112 29 60 63 98 73 81 43 -69 75 -322 44 -345 -8 -6 -21 -29 -28 -51 -21 -65 -44 -104 -120 -208 -40 -54 -70 -100 -67 -103 8 -8 145 157 167 201 11 23 20 32 20 22 0 -10 -16 -52 -35 -92 -34 -71 -54 -93 -154 -173 -23 -18 -41 -42 -41 -53 0 -10 3 -19 6 -19 8 0 97 72 145 117 l36 34 25 -33 c13 -18 34 -50 47 -70 16 -28 29 -38 48 -38 l25 0 -23 38 c-12 20 -39 58 -61 84 l-38 47 21 38 c65 115 101 297 82 419 -6 38 -9 70 -8 71 1 2 30 -33 65 -78 91 -116 133 -149 187 -149 38 0 46 4 63 32 32 54 34 93 11 237 -26 167 -26 203 -1 328 11 54 23 136 26 183 6 75 3 94 -19 157 l-26 72 35 7 c58 11 236 0 269 -17 27 -14 115 -42 220 -71 59 -17 163 -71 224 -117 56 -42 252 -222 387 -356 131 -130 200 -295 174 -418 -14 -70 -87 -185 -157 -247 -47 -42 -81 -62 -208 -120 -64 -30 -151 -119 -192 -197 -18 -33 -33 -66 -33 -73 0 -30 -64 -90 -137 -127 -123 -63 -187 -77 -340 -76 -103 1 -133 -2 -133 -12 0 -26 147 -42 240 -26 74 13 170 40 186 53 6 5 19 6 28 2 10 -4 26 4 44 22 16 16 47 41 69 57 33 21 51 47 87 120 55 111 118 187 183 217 26 12 63 29 81 37 36 17 132 15 337 -7 134 -15 222 -9 296 19 63 24 148 97 178 153 38 70 37 177 -4 348 -9 36 -19 139 -24 230 -10 201 -22 236 -122 370 -86 116 -111 157 -140 235 -23 62 -60 128 -79 140 -19 12 -11 114 15 191 14 42 45 105 70 141 25 36 45 74 45 85 0 24 -23 70 -44 87 -9 8 -16 26 -16 42 0 19 -5 29 -15 29 -8 0 -15 -7 -15 -15 0 -8 -8 -15 -18 -15 -25 0 -92 48 -92 66 0 11 -6 14 -16 10 -16 -6 -54 9 -54 23 0 4 12 14 28 21 35 16 12 25 -29 11 -47 -16 -55 -2 -17 30 39 34 33 37 -16 8 -31 -18 -37 -19 -42 -5 -4 9 5 25 23 40 20 18 23 25 12 26 -9 0 -24 -9 -34 -20 -10 -12 -25 -18 -32 -16 -9 4 -13 -4 -13 -24 0 -20 5 -30 15 -30 8 0 15 -7 15 -15 0 -19 96 -90 193 -143 68 -38 127 -90 127 -113 0 -4 -20 -39 -45 -76 -60 -89 -85 -160 -95 -266 -18 -186 -57 -247 -222 -345 -124 -73 -163 -111 -179 -175 -6 -26 -15 -50 -20 -53 -4 -2 -51 36 -103 85 -153 147 -279 218 -448 256 -43 9 -78 21 -78 26 0 5 13 15 29 24 70 36 90 118 50 198 -39 75 -162 182 -269 231 -85 40 -119 68 -188 161 -137 185 -342 356 -482 404 -131 44 -351 22 -495 -49 -56 -27 -280 -215 -326 -274 -31 -40 -43 -119 -28 -190 6 -33 18 -70 26 -81 8 -11 13 -47 13 -87 l0 -68 -32 0 c-18 0 -49 -3 -68 -5 -62 -10 -67 4 -29 82 31 62 34 76 34 158 l0 90 -62 120 c-49 94 -65 137 -74 197 -16 98 -11 106 124 196 115 78 163 104 292 157 79 32 105 38 215 46 214 15 260 23 260 46 0 14 -9 15 -72 9 -40 -4 -127 -10 -193 -15 -113 -8 -126 -11 -225 -54 l-105 -47 -45 49 c-35 38 -49 47 -64 42 -18 -7 -16 -12 24 -54 23 -26 41 -49 39 -51 -2 -2 -56 -38 -119 -81 -144 -97 -153 -105 -184 -172 -85 -178 -85 -317 -2 -465 23 -43 43 -98 56 -158 11 -52 20 -95 20 -97 0 -2 -10 -3 -21 -3 -12 0 -70 -18 -130 -40 -143 -53 -232 -68 -291 -51 -53 16 -113 76 -122 123 -9 52 19 184 63 289 22 52 47 132 55 179 35 187 56 220 171 278 69 34 104 66 150 137 18 28 41 59 51 71 31 33 192 153 198 146 3 -3 6 2 6 11 0 29 -48 19 -99 -20 -27 -21 -67 -50 -89 -65 -22 -15 -64 -65 -96 -112 -56 -83 -88 -112 -167 -147 -50 -23 -107 -76 -127 -118 -16 -34 -19 -35 -64 -32 -30 1 -48 -2 -48 -8 0 -6 20 -11 45 -11 53 0 52 1 31 -113 -13 -68 -57 -196 -76 -222 -4 -5 -15 -43 -25 -82 -11 -49 -21 -71 -29 -66 -6 4 -24 16 -41 29 -36 26 -101 47 -210 69 -118 23 -141 33 -176 72 -30 34 -31 39 -27 107 3 56 11 86 38 141 33 66 35 78 41 200 11 207 37 412 60 464 11 25 41 67 67 94 l46 47 -29 0 c-18 0 -40 -11 -58 -27 -21 -20 -28 -23 -24 -10 4 9 2 17 -3 17 -6 0 -10 7 -10 15 0 30 -18 14 -47 -42z m-40 -526 c-1 -34 -2 -75 -2 -90 -1 -16 -5 -26 -11 -22 -11 7 -14 133 -4 159 12 32 19 14 17 -47z m1902 -68 c15 25 25 7 25 -44 0 -30 4 -55 9 -55 5 0 12 25 16 55 6 55 22 72 32 35 5 -19 7 -20 23 -5 17 15 19 15 29 -4 7 -13 20 -20 34 -18 18 2 24 -6 35 -43 7 -25 18 -56 24 -70 16 -35 22 -5 9 48 -5 23 -6 42 -2 42 24 -2 85 -77 117 -146 39 -83 57 -87 30 -7 -9 25 -13 49 -10 52 8 8 171 -162 217 -226 20 -29 34 -53 31 -53 -12 0 -89 45 -139 81 -78 55 -213 134 -310 181 -83 39 -96 43 -187 46 -98 4 -145 -3 -236 -36 -23 -8 -44 -13 -46 -11 -2 2 3 36 12 76 l15 71 43 12 c55 16 79 8 69 -23 -4 -12 -9 -37 -12 -54 -6 -41 14 -45 23 -5 21 99 26 107 74 112 31 4 49 1 57 -8 7 -9 13 -10 18 -3z m-311 -101 c-9 -89 -12 -94 -83 -152 -75 -61 -159 -158 -211 -244 -43 -71 -55 -58 -55 61 0 75 4 97 19 117 19 25 109 100 120 100 3 0 6 -16 6 -36 0 -52 17 -33 22 27 4 40 12 58 36 81 37 37 53 30 45 -20 -8 -56 15 -28 26 31 9 52 34 87 62 87 16 0 17 -7 13 -52z m-609 -54 c9 -30 41 -103 70 -161 48 -93 55 -113 55 -165 0 -33 -9 -83 -20 -115 -30 -86 -34 -85 -49 3 -6 38 -27 94 -57 152 -46 88 -48 95 -48 174 0 72 17 168 29 168 2 0 11 -25 20 -56z m-1062 -121 c-5 -108 -5 -108 25 -149 38 -52 80 -71 219 -100 132 -26 190 -51 233 -100 31 -36 39 -81 19 -101 -6 -6 -18 -53 -25 -105 -11 -73 -24 -114 -60 -188 -73 -151 -84 -189 -84 -305 0 -118 23 -201 69 -250 29 -30 51 -66 51 -83 0 -12 -68 -48 -116 -61 -97 -26 -154 20 -243 196 -66 131 -120 200 -198 250 -69 44 -138 60 -305 71 -156 11 -175 19 -210 85 -16 32 -22 59 -22 112 0 88 23 136 110 226 34 36 65 77 68 90 30 142 39 177 58 215 26 57 143 182 208 224 45 29 169 79 197 80 8 0 10 -28 6 -107z m2074 85 c71 -26 189 -88 263 -138 105 -71 194 -122 349 -201 233 -119 334 -202 360 -296 11 -40 3 -70 -27 -96 -24 -22 -42 -15 -42 16 -1 33 -36 105 -77 155 -47 57 -97 88 -212 129 -150 53 -207 83 -372 196 -85 58 -186 121 -226 142 -65 33 -79 37 -151 37 -92 0 -154 -25 -227 -93 -55 -51 -82 -109 -135 -293 -44 -153 -72 -216 -96 -216 -22 0 -86 62 -100 97 -30 71 -14 161 46 250 104 155 210 249 345 303 91 37 216 41 302 8z m-67 -105 c3 -3 -6 -13 -20 -22 -67 -43 -169 -155 -155 -169 4 -4 21 9 38 29 18 19 62 62 99 93 74 64 89 66 142 23 l29 -24 -22 -22 c-26 -26 -74 -126 -69 -142 2 -5 22 23 45 63 24 40 46 79 51 86 12 17 130 -52 145 -85 7 -16 7 -51 -2 -119 -6 -53 -9 -99 -7 -101 12 -12 28 48 34 123 l7 83 78 -49 77 -50 0 -135 c0 -75 4 -134 9 -131 12 8 33 188 25 220 -6 27 8 36 23 14 4 -7 8 -80 8 -163 0 -131 3 -157 23 -210 12 -32 22 -63 22 -68 0 -5 -20 16 -44 48 -25 31 -64 71 -88 88 -36 27 -52 32 -113 35 -69 4 -72 3 -189 -57 -66 -34 -131 -61 -145 -61 -16 0 -59 24 -108 59 -67 48 -104 66 -198 96 -64 20 -119 43 -121 50 -3 7 2 34 10 61 47 152 89 281 98 297 16 31 22 10 8 -32 -7 -21 -10 -45 -8 -52 5 -15 26 28 54 110 8 25 23 54 32 65 20 22 71 46 122 57 34 7 100 2 110 -8z m666 -363 c108 -43 147 -65 183 -101 43 -42 69 -95 77 -158 l7 -51 -34 7 c-19 5 -96 8 -172 8 l-137 0 -10 35 c-5 19 -10 65 -10 101 0 68 10 189 16 189 2 0 38 -14 80 -30z m-1311 -142 c51 -57 95 -88 124 -88 11 0 32 11 48 24 28 24 29 24 53 6 24 -18 24 -19 6 -39 -24 -26 -116 -45 -163 -34 -27 6 -42 18 -56 43 -25 46 -65 88 -102 107 -28 15 -28 17 -10 24 39 15 54 8 100 -43z m-180 8 c78 -22 123 -59 160 -131 17 -33 57 -89 90 -125 34 -36 69 -78 79 -93 10 -16 34 -47 54 -69 l37 -41 -35 7 c-19 3 -80 29 -135 56 -108 53 -213 85 -419 125 -206 41 -250 59 -333 139 -60 57 -57 64 30 58 73 -4 136 12 302 77 55 22 81 21 170 -3z m-634 -8 c11 -13 34 -48 49 -79 16 -31 47 -72 69 -91 67 -58 187 -109 283 -123 77 -10 116 -64 142 -195 3 -14 21 -44 40 -67 l35 -41 -43 -16 c-25 -9 -71 -42 -103 -72 -32 -30 -88 -71 -125 -90 -92 -46 -151 -105 -174 -172 l-19 -54 -44 6 c-24 3 -59 17 -76 31 -32 24 -183 253 -206 311 -17 45 -14 191 5 259 10 33 40 106 68 162 37 76 53 122 61 178 5 41 11 75 13 75 2 0 13 -10 25 -22z m1135 -103 c4 -8 15 -15 26 -15 12 0 18 -6 16 -16 -2 -10 9 -24 27 -34 48 -27 44 -46 -12 -55 -95 -13 -167 -79 -133 -120 19 -23 80 -35 130 -25 25 4 46 7 48 5 2 -1 -8 -14 -22 -28 -14 -15 -26 -33 -26 -41 0 -9 -9 -21 -20 -28 -11 -7 -20 -23 -20 -34 0 -29 -89 -104 -138 -115 -24 -5 -93 -3 -192 7 l-155 15 -36 38 c-28 28 -40 53 -50 97 -7 32 -18 71 -26 86 -22 44 -17 50 30 43 75 -11 169 -45 299 -106 116 -55 133 -60 185 -57 31 2 58 8 60 14 2 7 -17 32 -42 55 -26 24 -66 71 -90 104 -24 33 -62 78 -84 100 -23 21 -41 42 -41 46 0 3 23 4 50 1 60 -5 126 16 160 53 27 28 48 32 56 10z m730 -31 c50 -24 122 -99 167 -175 41 -69 45 -89 21 -89 -13 0 -15 -10 -9 -67 4 -38 8 -70 8 -73 1 -3 -5 -40 -12 -82 -10 -56 -12 -111 -6 -195 9 -157 9 -181 0 -228 -8 -37 -7 -39 8 -26 15 12 17 10 17 -26 0 -21 -6 -47 -13 -57 -13 -18 -15 -18 -39 -2 -42 27 -89 145 -87 217 1 31 2 30 18 -21 l17 -55 0 137 c-1 76 -3 138 -6 138 -4 0 -12 -6 -19 -12 -11 -11 -12 0 -7 62 4 41 14 117 23 168 31 187 3 269 -111 326 -46 24 -72 30 -127 30 -38 1 -69 4 -69 7 0 4 21 16 48 28 54 25 119 23 178 -5z m1700 -42 c63 -140 77 -166 146 -259 110 -148 120 -175 129 -373 5 -113 14 -190 28 -245 27 -105 36 -219 22 -272 -14 -52 -88 -135 -144 -162 -80 -39 -135 -43 -341 -25 -105 9 -193 18 -196 21 -2 2 21 27 52 56 117 109 162 199 161 322 -1 163 -101 331 -282 477 l-44 36 15 33 c9 19 21 51 28 72 13 43 37 62 172 141 108 63 156 112 189 192 12 29 26 51 31 48 5 -3 20 -31 34 -62z m-2222 -2 c54 -42 65 -57 75 -96 7 -26 8 -50 4 -54 -4 -4 -36 -28 -70 -54 -35 -26 -63 -49 -63 -52 0 -14 35 1 79 36 28 22 53 40 56 40 3 0 -36 -41 -87 -91 -83 -81 -166 -139 -199 -139 -6 0 17 31 53 68 35 37 72 86 83 107 28 58 31 147 7 223 -11 34 -16 62 -11 62 5 0 38 -22 73 -50z m270 -62 c-10 -16 14 -7 31 12 24 26 35 25 35 -2 l1 -23 21 25 20 25 -4 -42 c-4 -50 5 -56 18 -12 14 48 28 39 34 -21 5 -50 7 -52 14 -25 17 68 26 71 23 8 -4 -71 -36 -128 -97 -169 l-35 -24 -7 63 c-7 69 -22 106 -64 156 -22 26 -24 34 -13 47 9 11 14 12 20 2 4 -6 5 -16 3 -20z m-104 -6 c0 -4 -6 -14 -12 -21 -11 -11 -9 -13 7 -8 11 2 27 8 35 11 9 4 20 -2 28 -14 11 -18 10 -25 -8 -51 -12 -16 -20 -35 -17 -42 2 -7 12 2 23 20 11 18 22 33 26 33 12 0 -3 -61 -24 -100 -25 -48 -22 -60 7 -27 35 39 31 18 -9 -50 -39 -66 -59 -87 -100 -103 -27 -10 -28 -9 -22 12 21 67 25 100 25 168 0 41 -4 96 -8 122 -4 27 -6 50 -3 53 9 8 52 6 52 -3z m-295 -29 c-4 -10 -10 -28 -12 -40 -3 -13 -10 -23 -15 -23 -6 0 -7 8 -3 18 4 9 10 27 12 40 3 12 10 22 15 22 6 0 7 -8 3 -17z m45 -17 c0 -24 -26 -54 -36 -43 -9 8 18 77 28 71 4 -3 8 -16 8 -28z m637 -12 c28 -48 32 -134 7 -155 -8 -7 -22 -26 -31 -43 -9 -17 -33 -51 -55 -75 -21 -24 -36 -47 -32 -50 3 -3 25 17 49 44 52 58 58 53 14 -11 -48 -70 -97 -114 -157 -141 -115 -50 -152 -97 -197 -248 -15 -49 -38 -124 -52 -165 -14 -41 -33 -103 -42 -138 l-16 -63 -160 -80 c-90 -45 -181 -84 -208 -88 -94 -16 -181 15 -275 98 -30 25 -79 64 -110 87 -78 56 -102 93 -102 160 0 49 39 182 62 211 5 6 32 17 61 24 29 7 107 34 174 61 67 26 128 48 135 48 7 0 31 7 53 14 38 14 41 13 65 -9 38 -35 64 -45 115 -45 83 0 138 48 185 165 18 44 27 55 45 55 66 0 139 58 180 145 14 30 28 55 31 55 3 0 2 -20 -2 -45 -7 -51 -1 -54 49 -29 96 50 153 123 163 208 8 65 19 67 51 10z m-771 -9 c-7 -29 -26 -34 -26 -7 0 18 20 45 28 37 2 -2 2 -16 -2 -30z m309 -151 c-7 -42 -34 -71 -143 -151 -119 -88 -232 -145 -360 -179 -29 -8 -92 -30 -139 -49 -47 -20 -120 -44 -162 -54 -42 -10 -132 -35 -201 -56 -138 -40 -230 -55 -230 -36 0 25 44 103 73 127 16 14 59 39 95 57 35 17 95 59 133 93 79 71 128 89 211 80 29 -4 124 -9 210 -12 144 -5 163 -4 223 16 77 26 133 66 218 156 65 70 85 72 72 8z m-2204 -2 c56 -14 125 -60 173 -114 41 -47 163 -274 153 -284 -5 -5 -179 110 -274 182 -29 21 -91 59 -139 84 -93 48 -197 126 -202 151 -2 13 12 13 125 2 70 -7 144 -16 164 -21z m2124 -208 c-76 -148 -126 -182 -210 -145 -26 12 -45 26 -43 33 2 6 50 40 106 74 57 35 121 79 144 98 23 20 43 34 45 32 2 -2 -17 -44 -42 -92z m530 4 c-3 -40 -13 -80 -20 -88 -18 -20 -26 -81 -18 -139 6 -41 7 -43 16 -20 8 21 12 13 27 -56 9 -44 22 -93 29 -108 16 -40 14 -43 -10 -21 -20 18 -135 166 -187 241 l-23 32 39 36 c22 19 63 71 92 115 29 44 55 80 58 80 2 0 1 -33 -3 -72z m-2718 20 c57 -33 112 -79 118 -99 4 -12 12 -16 22 -12 13 5 15 2 10 -11 -6 -15 -3 -17 15 -13 16 5 31 -3 57 -31 20 -20 35 -40 33 -45 -1 -5 6 -6 17 -2 12 3 21 0 25 -10 3 -8 12 -15 19 -15 8 0 22 -9 32 -20 11 -13 25 -18 37 -14 12 4 18 0 18 -11 0 -12 6 -15 19 -10 11 3 22 1 26 -5 3 -5 15 -10 26 -10 11 0 19 -7 19 -17 0 -15 1 -15 19 1 17 16 19 15 35 -9 15 -23 15 -28 -4 -85 -11 -32 -20 -67 -20 -75 0 -11 -23 2 -72 40 -43 34 -128 84 -208 122 -158 76 -192 100 -231 162 -45 70 -79 191 -54 191 2 0 21 -10 42 -22z m2486 -175 c-81 -78 -107 -134 -125 -267 -12 -95 -38 -169 -73 -211 l-24 -30 0 25 c0 14 11 52 24 85 14 33 32 87 41 120 24 95 64 207 86 244 19 30 109 99 132 100 5 1 -23 -29 -61 -66z"></path><path id="pYkYu1Od6" d="M518 3316 c-31 -25 -68 -60 -82 -78 -27 -37 -70 -127 -63 -134 2 -2 20 22 40 53 38 63 140 169 169 179 10 3 18 10 18 15 0 19 -27 8 -82 -35z"></path><path id="pjDTfKTHD" d="M710 3133 c-61 -12 -39 -23 43 -23 51 0 87 4 87 10 0 6 -11 10 -24 10 -13 0 -36 2 -52 4 -16 2 -40 2 -54 -1z"></path><path id="p13a8E4TO7" d="M900 3050 c0 -5 12 -10 28 -10 21 0 24 2 12 10 -20 13 -40 13 -40 0z"></path><path id="p1Fo3kduR" d="M790 3021 c0 -18 207 -29 279 -15 71 15 22 24 -124 24 -85 0 -155 -4 -155 -9z"></path><path id="pV3EtGs2U" d="M1059 2875 c-49 -71 -108 -134 -143 -152 -18 -9 -26 -18 -18 -20 29 -10 102 48 153 123 28 41 48 80 46 87 -2 7 -19 -10 -38 -38z"></path><path id="p2u7G0QvQ" d="M1107 2797 c-4 -10 -7 -26 -7 -35 1 -15 2 -15 11 1 6 10 9 25 7 35 -3 16 -4 15 -11 -1z"></path><path id="pAVZYl6Au" d="M171 2731 c-25 -60 -28 -148 -6 -177 15 -18 15 -15 10 31 -4 33 0 74 13 123 10 39 15 72 11 72 -3 0 -16 -22 -28 -49z"></path><path id="pR4xXS1uk" d="M894 2765 c-10 -8 -14 -15 -7 -15 19 0 43 11 43 21 0 13 -14 11 -36 -6z"></path><path id="pcGvdwf12" d="M1028 2602 c-51 -116 -70 -233 -48 -287 6 -17 8 -15 13 15 3 19 10 67 16 105 5 39 19 99 31 135 28 89 21 109 -12 32z"></path><path id="phS2MPdOt" d="M904 2308 c4 -29 11 -59 16 -67 16 -30 23 15 10 69 -16 67 -35 66 -26 -2z"></path><path id="p15QodZhyo" d="M2130 2962 c0 -22 29 -69 45 -76 13 -5 12 2 -6 32 -29 48 -39 59 -39 44z"></path><path id="pF3p0mBvl" d="M3403 2793 c-45 -9 -22 -23 36 -23 69 0 121 9 121 21 0 9 -115 10 -157 2z"></path><path id="pqowRAaFN" d="M1540 2711 c0 -11 25 -21 53 -21 21 1 21 1 -3 15 -29 16 -50 19 -50 6z"></path><path id="pdMNRd7Hs" d="M1501 2685 c24 -24 124 -55 212 -65 89 -11 211 -37 240 -52 9 -5 17 -5 17 0 0 8 -27 23 -75 43 -36 14 -59 19 -172 34 -61 8 -135 23 -164 35 -64 24 -78 25 -58 5z"></path><path id="pq2YQCksi" d="M1266 2693 c-4 -9 -2 -21 4 -27 7 -7 10 -2 10 17 0 31 -5 34 -14 10z"></path><path id="p1201Bh2mo" d="M1218 2513 c-7 -16 -12 -76 -13 -138 0 -99 3 -116 26 -165 31 -64 55 -97 64 -89 3 4 -3 22 -13 40 -48 86 -63 182 -48 312 8 71 3 84 -16 40z"></path><path id="p18G65IjMG" d="M1729 2425 c-8 -7 22 -75 33 -75 4 0 8 9 8 19 0 21 -32 65 -41 56z"></path><path id="p16bHK7Wn9" d="M2022 2378 c-19 -19 -14 -30 8 -18 11 6 20 15 20 20 0 14 -14 12 -28 -2z"></path><path id="pUFU2cXUF" d="M3170 2652 c0 -12 49 -56 55 -50 7 7 -34 58 -46 58 -5 0 -9 -4 -9 -8z"></path><path id="p6BD1PUJJ" d="M4731 2567 c-14 -17 -57 -45 -95 -62 -78 -36 -156 -89 -156 -106 0 -6 15 -1 33 11 17 12 68 39 112 60 83 40 139 88 133 112 -2 10 -10 6 -27 -15z"></path><path id="pqWbwwdXS" d="M4860 2446 c0 -3 9 -25 19 -49 35 -77 42 -111 51 -242 10 -138 17 -178 30 -170 11 7 2 211 -11 290 -11 63 -47 142 -73 164 -9 8 -16 11 -16 7z"></path><path id="pK9QlFLsy" d="M4638 2263 c-21 -5 -24 -23 -4 -23 24 0 46 12 40 21 -5 9 -8 10 -36 2z"></path><path id="pHSZi4v4a" d="M4480 2242 c0 -8 34 -19 165 -53 77 -20 115 -24 115 -10 0 5 -60 23 -132 40 -145 34 -148 35 -148 23z"></path><path id="p191La1Pyv" d="M4606 2131 c-3 -4 6 -13 19 -19 15 -7 25 -8 25 -2 0 13 -38 32 -44 21z"></path><path id="pN7YG91PQ" d="M4997 1703 c3 -49 1 -105 -5 -125 -6 -21 -7 -38 -2 -38 29 0 44 216 16 239 -11 10 -13 -3 -9 -76z"></path><path id="pRwDGtxdv" d="M4700 1451 c0 -14 76 -24 126 -16 73 11 50 25 -41 25 -47 0 -85 -4 -85 -9z"></path><path id="p199Tzc8oi" d="M2602 2628 c-16 -16 -15 -40 3 -64 13 -18 14 -15 15 29 0 51 0 53 -18 35z"></path><path id="pyiLNvjRQ" d="M3130 2508 c0 -13 5 -30 10 -38 7 -11 10 -7 10 17 0 17 -4 35 -10 38 -6 3 -10 -4 -10 -17z"></path><path id="pYFx0H2T0" d="M2846 2199 c-53 -50 -104 -105 -112 -121 -22 -43 -74 -191 -69 -196 2 -3 29 46 58 109 51 108 58 118 145 198 85 77 105 101 84 101 -5 0 -52 -41 -106 -91z"></path><path id="p88NeDTNO" d="M2134 1931 c-72 -48 -109 -80 -102 -87 5 -4 179 104 197 122 2 2 -5 4 -16 4 -11 0 -46 -18 -79 -39z"></path><path id="plTqqDNRZ" d="M2020 1645 c0 -22 40 -74 74 -95 70 -43 193 -61 299 -44 61 11 44 27 -21 20 -69 -8 -191 8 -235 30 -18 9 -51 35 -74 57 -24 23 -43 37 -43 32z"></path><path id="pH3vqrPeZ" d="M1885 2151 c-22 -10 -63 -38 -92 -62 -28 -24 -75 -56 -105 -71 -29 -15 -62 -34 -73 -42 -18 -14 -18 -15 -2 -16 9 0 25 4 35 9 9 5 38 19 64 31 26 13 71 43 99 67 61 52 91 68 142 77 20 4 37 11 37 16 0 16 -62 11 -105 -9z"></path><path id="pmGH496lN" d="M465 2329 c-4 -6 -4 -13 -1 -16 8 -8 36 5 36 17 0 13 -27 13 -35 -1z"></path><path id="pCUnDXt4D" d="M560 2283 c1 -8 83 -63 94 -63 4 0 2 9 -4 20 -16 29 -91 65 -90 43z"></path><path id="p169jA9Dm7" d="M2775 4287 c-8 -19 -1 -125 9 -135 14 -13 16 11 8 79 -6 51 -11 68 -17 56z"></path><path id="pPE01sM9H" d="M1820 4183 c0 -19 11 -43 21 -43 13 0 11 14 -6 36 -8 10 -15 14 -15 7z"></path><path id="pzAZT9Xz4" d="M1690 4175 c0 -16 80 -99 87 -91 4 4 -14 28 -40 54 -26 26 -47 42 -47 37z"></path><path id="pDlys7bCI" d="M2927 4164 c-4 -4 -7 -17 -7 -28 1 -19 1 -20 11 -3 11 19 8 43 -4 31z"></path><path id="pSVCGZPRS" d="M3300 4155 c-20 -24 -6 -28 15 -5 10 11 13 20 8 20 -6 0 -16 -7 -23 -15z"></path><path id="p4V1ItNgz" d="M3352 4124 c-48 -57 -55 -76 -14 -42 38 31 64 66 60 80 -2 6 -23 -11 -46 -38z"></path><path id="pWQSb5IaU" d="M2230 4150 c0 -16 39 -70 51 -70 11 0 -19 55 -38 72 -9 7 -13 7 -13 -2z"></path><path id="pEgQQTXet" d="M3183 4123 c-21 -30 -35 -73 -24 -73 10 0 56 88 49 95 -3 3 -15 -6 -25 -22z"></path><path id="pi6WxcCHE" d="M1027 4123 c-22 -25 -57 -110 -56 -136 0 -14 12 2 31 43 51 111 55 126 25 93z"></path><path id="pYZrk39ri" d="M4016 3998 c-4 -43 -12 -80 -17 -84 -5 -3 -9 -21 -9 -40 0 -27 4 -34 20 -34 11 0 20 7 20 15 0 10 10 15 28 15 19 0 23 3 13 9 -7 5 -10 14 -7 20 4 6 0 11 -9 11 -32 0 -12 44 28 63 20 10 37 23 37 28 0 12 -1 12 -44 -6 -34 -14 -36 -14 -36 3 0 10 5 23 12 30 9 9 8 12 -4 12 -9 0 -18 8 -20 18 -3 9 -8 -18 -12 -60z"></path><path id="pnLNkNImc" d="M1590 3985 c7 -8 19 -15 27 -15 13 0 13 3 3 15 -7 8 -19 15 -27 15 -13 0 -13 -3 -3 -15z"></path><path id="pHzvqoG8P" d="M2315 3925 c-33 -7 -76 -18 -95 -25 -118 -44 -253 -158 -266 -225 -10 -52 2 -54 26 -3 51 110 200 205 372 239 32 6 58 16 58 20 0 11 -20 10 -95 -6z"></path><path id="p182RDBZzb" d="M1520 3911 c0 -9 7 -12 63 -30 40 -14 34 7 -8 25 -39 16 -55 18 -55 5z"></path><path id="pHV1sY3LO" d="M3073 3874 c-29 -13 -9 -22 60 -26 50 -3 94 -14 146 -36 80 -34 99 -35 60 -3 -52 43 -223 85 -266 65z"></path><path id="pXRkb9YFX" d="M3560 3870 c0 -5 9 -10 20 -10 11 0 20 5 20 10 0 6 -9 10 -20 10 -11 0 -20 -4 -20 -10z"></path><path id="p9ZKeuKi5" d="M4150 3853 c0 -14 19 -38 25 -32 8 8 -5 39 -16 39 -5 0 -9 -3 -9 -7z"></path><path id="pDjgHyiFZ" d="M4460 3808 c0 -18 18 -34 28 -24 3 4 -2 14 -11 23 -16 16 -17 16 -17 1z"></path><path id="p9WsNWdpq" d="M1420 3772 c0 -5 17 -12 38 -14 61 -8 60 9 -2 19 -22 3 -36 2 -36 -5z"></path><path id="pgBBJTOck" d="M4113 3753 c-36 -3 -53 -8 -53 -18 0 -17 43 -27 106 -24 80 2 176 -28 232 -73 9 -8 12 -3 12 20 0 21 -6 32 -18 37 -11 3 -24 17 -30 30 -13 28 -32 34 -32 10 0 -8 -9 -15 -20 -15 -11 0 -20 4 -20 9 0 7 -22 13 -100 24 -14 2 -49 2 -77 0z"></path><path id="pLW47qQQ9" d="M1330 3711 c0 -10 42 -23 49 -15 7 6 -20 24 -36 24 -7 0 -13 -4 -13 -9z"></path><path id="pJrJPciix" d="M4170 3613 c0 -5 12 -14 28 -20 15 -7 42 -24 60 -39 28 -24 32 -24 32 -8 0 11 -15 29 -33 41 -36 24 -87 40 -87 26z"></path><path id="pjyEJbXxA" d="M3309 3508 c23 -59 47 -102 65 -117 17 -14 -23 93 -51 135 -25 38 -33 28 -14 -18z"></path><path id="pIdVA9t20" d="M4180 3511 c0 -5 7 -12 16 -15 24 -9 28 -7 14 9 -14 17 -30 20 -30 6z"></path><path id="pmTeckAHa" d="M4390 3451 c0 -13 19 -27 70 -50 73 -32 90 -37 90 -23 0 5 -19 17 -42 28 -24 10 -60 29 -80 41 -36 22 -38 22 -38 4z"></path><path id="pX3Ex7Xas" d="M3746 3384 c-92 -25 -298 -135 -282 -151 3 -3 42 15 87 41 92 52 192 91 262 101 26 4 47 11 47 16 0 12 -56 9 -114 -7z"></path><path id="pXjFRinOC" d="M875 3338 c8 -37 12 -44 21 -35 9 9 -6 67 -18 67 -6 0 -7 -13 -3 -32z"></path><path id="psNrk6rP8" d="M3494 3339 c-31 -9 -72 -45 -62 -54 7 -7 98 45 98 56 0 5 -1 9 -2 8 -2 0 -17 -5 -34 -10z"></path><path id="p1COzgscBG" d="M1415 3287 c-16 -40 -20 -91 -6 -83 12 8 35 105 27 113 -3 3 -13 -10 -21 -30z"></path><path id="pMz1JRD3S" d="M1150 3220 c-8 -5 -12 -12 -8 -15 8 -8 58 5 58 16 0 12 -31 11 -50 -1z"></path><path id="p1DunAXvPb" d="M3840 3202 c0 -12 172 -51 280 -63 151 -18 477 4 505 33 7 7 -6 8 -40 4 -219 -25 -508 -16 -660 20 -69 16 -85 17 -85 6z"></path><path id="p1Cmf6F3iq" d="M4742 3127 c-25 -58 -27 -71 -11 -61 13 7 48 82 49 102 0 27 -16 9 -38 -41z"></path><path id="p193IvjiQF" d="M3648 3142 c-45 -16 -83 -42 -62 -42 21 -1 174 45 174 52 0 13 -62 7 -112 -10z"></path><path id="pvLnfGkLW" d="M1340 3046 c0 -14 21 -58 26 -54 8 8 -7 58 -17 58 -5 0 -9 -2 -9 -4z"></path><path id="pKglrmMGb" d="M1565 2969 c-60 -21 -120 -39 -132 -39 -12 0 -25 -5 -29 -12 -14 -22 98 -1 201 38 175 65 141 77 -40 13z"></path><path id="p19obdVHqB" d="M3773 3003 c-54 -10 -15 -20 77 -19 73 1 100 4 100 14 0 9 -21 12 -77 11 -43 -1 -88 -4 -100 -6z"></path><path id="pHUFkI0rk" d="M4552 2880 c-7 -11 -9 -20 -4 -20 10 0 32 22 32 32 0 15 -15 8 -28 -12z"></path><path id="pq46tPD31" d="M4604 2868 c-17 -18 -52 -48 -78 -66 -25 -18 -55 -49 -66 -70 -28 -53 -38 -64 -106 -110 -68 -45 -114 -94 -114 -120 0 -12 8 -8 25 15 14 17 55 51 93 76 74 50 97 72 136 135 15 24 48 55 74 72 48 29 78 67 70 90 -2 6 -17 -4 -34 -22z"></path><path id="pxGsM8PlW" d="M3900 2723 c0 -6 14 -13 31 -17 49 -10 149 -7 149 4 0 6 -26 10 -59 10 -32 0 -73 3 -90 6 -18 4 -31 2 -31 -3z"></path><path id="pzQ8vFavM" d="M3428 2644 c-15 -14 -8 -25 11 -19 32 10 143 -13 236 -50 101 -39 98 -39 90 -25 -4 6 -46 29 -93 52 -71 33 -101 41 -162 45 -41 3 -78 2 -82 -3z"></path><path id="pkvvRxJr0" d="M3440 2580 c0 -5 9 -10 21 -10 11 0 17 5 14 10 -3 6 -13 10 -21 10 -8 0 -14 -4 -14 -10z"></path><path id="py66zQNAN" d="M3400 2511 c0 -5 8 -26 17 -47 10 -24 19 -78 22 -138 4 -71 10 -101 20 -104 11 -4 13 15 10 99 -4 92 -8 110 -32 152 -27 46 -37 56 -37 38z"></path><path id="p122ny0bil" d="M3680 2336 c0 -2 20 -16 43 -29 64 -38 104 -87 181 -225 79 -140 158 -224 264 -280 64 -34 111 -40 57 -7 -171 104 -227 161 -314 323 -61 116 -99 164 -152 198 -33 21 -79 32 -79 20z"></path><path id="pdbh6iqWH" d="M4140 2296 c0 -3 25 -29 56 -58 57 -54 124 -136 159 -195 17 -29 35 -43 35 -27 0 12 -56 102 -97 156 -58 76 -153 153 -153 124z"></path><path id="pm6KwfQ2z" d="M4180 2202 c0 -5 10 -17 21 -28 22 -19 22 -19 10 3 -12 24 -31 39 -31 25z"></path><path id="pFcbZrF6U" d="M3364 2083 c3 -10 10 -63 17 -118 15 -120 35 -156 25 -45 -9 101 -25 180 -37 180 -6 0 -8 -8 -5 -17z"></path><path id="ptTJncU2g" d="M1105 1853 c-35 -35 -76 -124 -82 -177 -5 -49 18 -120 40 -124 13 -3 13 1 1 35 -27 77 -12 154 47 239 36 53 34 66 -6 27z"></path><path id="pVK8jSLxG" d="M1586 1809 c-21 -5 -97 -18 -169 -29 -137 -22 -173 -36 -207 -83 -31 -41 -17 -45 26 -8 47 42 62 47 180 61 145 17 254 43 254 61 0 11 -32 10 -84 -2z"></path><path id="pWS00IUUE" d="M4337 1615 c-23 -32 -6 -32 30 0 25 22 26 24 8 24 -11 0 -28 -11 -38 -24z"></path><path id="pkjoxm7aH" d="M4395 1604 c-16 -14 -61 -40 -98 -59 -132 -67 -181 -114 -311 -305 -109 -159 -173 -208 -310 -236 -73 -16 -83 -20 -74 -30 13 -12 138 19 205 52 84 41 127 85 221 229 81 125 165 208 268 263 93 50 138 84 133 99 -2 7 -16 1 -34 -13z"></path><path id="plCYBT7zc" d="M3145 1607 c-20 -47 16 -144 83 -226 35 -44 191 -166 199 -157 3 2 -15 22 -39 43 -164 145 -188 177 -218 293 -13 48 -19 60 -25 47z"></path><path id="p17u1HWjvV" d="M3046 1448 c6 -76 20 -136 28 -127 7 8 -19 209 -27 209 -4 0 -5 -37 -1 -82z"></path><path id="pvHSIvxxI" d="M1526 1459 c-14 -46 -15 -79 -1 -79 18 0 32 67 17 82 -8 8 -13 7 -16 -3z"></path><path id="p18wYmvbJ" d="M1086 1413 c-3 -10 -9 -24 -12 -30 -3 -8 1 -13 10 -13 9 0 16 -7 16 -15 0 -8 5 -15 10 -15 6 0 10 20 10 45 0 47 -21 64 -34 28z"></path><path id="po7JWk7t3" d="M3140 1363 c0 -13 29 -38 35 -31 3 3 -4 13 -15 23 -11 10 -20 13 -20 8z"></path><path id="pvYR5HD06" d="M3020 1315 c0 -33 101 -145 161 -179 26 -14 14 2 -51 70 -46 49 -90 96 -97 104 -7 8 -13 10 -13 5z"></path><path id="pwPrY4nwx" d="M2895 1131 c3 -63 10 -134 17 -158 14 -57 33 -69 24 -17 -3 22 -10 87 -15 146 -14 155 -34 177 -26 29z"></path><path id="pljf8hoTL" d="M3177 970 c-4 -14 4 -27 26 -44 26 -21 32 -22 45 -10 8 8 13 16 11 18 -76 57 -76 57 -82 36z"></path><path id="p11VvaPwvi" d="M3302 889 c2 -18 15 -28 51 -41 46 -17 47 -17 47 2 0 12 -8 23 -17 26 -16 5 -53 21 -76 32 -5 2 -7 -6 -5 -19z"></path><path id="pmmYfTnvV" d="M1140 796 c0 -9 -5 -16 -11 -16 -15 0 7 -27 33 -41 13 -7 22 -6 33 4 15 16 14 17 -37 56 -15 12 -18 11 -18 -3z"></path><path id="pYpnaMF1m" d="M1230 726 c0 -7 10 -16 23 -20 41 -11 57 -7 57 14 0 17 -7 20 -40 20 -27 0 -40 -4 -40 -14z"></path><path id="p19Xej0qjR" d="M3467 701 c5 -18 53 -71 53 -58 0 3 -9 22 -21 41 -23 39 -40 48 -32 17z"></path><path id="p1380FilTb" d="M1540 686 c0 -10 44 -25 148 -50 172 -42 192 -44 192 -16 0 13 -7 20 -20 20 -11 0 -76 14 -145 30 -140 34 -175 37 -175 16z"></path><path id="phUQuNBXr" d="M1988 643 c-30 -3 -38 -9 -38 -24 0 -21 22 -24 79 -13 21 5 31 12 31 25 0 12 -6 18 -17 17 -10 -1 -35 -3 -55 -5z"></path><path id="p13TLSQhQS" d="M2770 434 c0 -15 106 -71 116 -61 3 2 -23 20 -56 40 -44 27 -60 32 -60 21z"></path><path id="p1DeeIxFOT" d="M3160 35 c0 -30 104 -45 153 -22 50 23 31 33 -63 32 -53 0 -90 -4 -90 -10z"></path></g></g><g id="l3CXTmz7Jr8Wx1eLKPnl8Eo" fill="rgb(192,159,77)" style="transform: none;"><g style="transform: none;"><path id="pmtORcE4J" d="M2695 5353 c-79 -10 -225 -48 -282 -74 -77 -35 -150 -101 -213 -195 -27 -39 -72 -99 -100 -135 -57 -70 -89 -131 -90 -168 0 -24 0 -24 -82 -17 -235 18 -292 19 -358 2 -62 -16 -86 -28 -241 -124 -36 -22 -94 -49 -130 -60 -98 -31 -116 -43 -226 -154 -107 -109 -183 -229 -183 -289 0 -16 -3 -29 -7 -29 -5 0 -9 -23 -11 -50 -2 -39 1 -50 13 -50 8 0 15 7 15 15 0 8 -4 15 -10 15 -5 0 -10 5 -10 10 0 6 7 10 15 10 8 0 15 5 15 10 0 6 -4 10 -10 10 -5 0 -10 5 -10 10 0 6 8 10 18 10 13 0 14 2 4 9 -11 7 -11 11 1 22 7 8 12 19 10 25 -2 7 3 19 12 28 9 9 13 16 9 16 -4 0 4 12 18 28 13 15 34 43 46 63 12 20 48 60 79 90 32 30 73 72 90 92 27 31 51 43 132 71 61 20 131 53 181 86 130 82 181 102 288 108 50 2 92 2 92 -1 0 -31 -147 -112 -264 -146 -93 -27 -256 -110 -476 -241 -132 -79 -180 -144 -197 -267 -4 -25 -1 -33 11 -33 9 0 16 5 16 10 0 6 -4 10 -10 10 -5 0 -10 5 -10 10 0 6 7 10 15 10 8 0 15 8 15 18 0 10 9 35 20 57 11 21 17 41 15 44 -6 6 45 61 57 61 5 0 37 17 71 38 182 113 400 223 487 247 97 26 178 66 243 119 l59 48 121 -1 c138 -2 275 -29 329 -65 24 -16 34 -30 36 -54 5 -45 -10 -59 -76 -73 -99 -20 -182 -74 -254 -166 -54 -69 -69 -114 -61 -189 5 -51 4 -57 -23 -86 -16 -17 -54 -47 -84 -66 -59 -38 -130 -109 -130 -129 0 -9 7 -7 20 4 11 10 20 22 20 28 0 5 12 16 28 22 15 7 43 26 62 43 19 16 43 30 52 30 9 0 21 6 25 14 4 7 18 18 30 25 20 10 24 8 36 -21 8 -18 35 -54 59 -80 l46 -47 -24 -16 c-34 -22 -31 -40 4 -21 15 8 52 22 82 31 30 10 77 28 104 41 27 13 71 27 98 30 39 5 46 9 37 20 -13 16 -59 19 -59 4 0 -5 -6 -7 -13 -4 -14 5 -168 -62 -178 -78 -7 -11 -47 28 -88 87 -39 56 -61 128 -61 200 0 52 5 69 31 108 43 66 133 143 187 162 28 9 81 15 136 15 131 0 202 26 361 129 48 32 96 54 133 62 31 7 102 34 157 60 58 28 103 44 110 40 11 -10 90 -26 170 -36 91 -11 122 -30 264 -158 35 -31 101 -82 147 -112 150 -98 278 -244 321 -368 14 -42 18 -79 16 -191 -1 -76 -4 -140 -6 -143 -8 -8 -46 15 -137 83 -47 35 -107 72 -134 83 -54 24 -154 28 -189 9 -29 -15 -146 -15 -174 0 -12 7 -68 17 -125 22 -78 8 -117 17 -165 40 -111 51 -159 56 -355 36 -95 -9 -174 -20 -175 -24 -2 -4 -28 -5 -59 -4 -44 3 -55 1 -52 -10 5 -15 114 -16 238 -2 41 4 127 8 190 8 110 1 118 0 185 -32 51 -25 97 -38 170 -48 55 -7 128 -20 163 -27 57 -13 70 -13 145 4 68 16 91 17 137 8 68 -14 70 -15 172 -92 122 -94 132 -97 282 -108 221 -15 246 -26 416 -198 100 -101 129 -124 221 -174 59 -32 114 -66 122 -75 29 -34 30 -61 3 -97 -30 -39 -34 -68 -8 -63 11 3 16 12 15 26 -2 16 3 22 16 22 24 0 39 39 20 51 -11 7 -10 9 4 9 25 0 21 21 -13 68 -36 50 -37 72 -9 189 16 72 18 96 9 131 -24 98 -103 178 -209 213 -87 29 -104 40 -182 120 -37 37 -82 74 -101 82 -33 14 -35 18 -40 74 -4 41 -17 81 -44 133 l-38 75 -1 165 c-1 146 -4 172 -24 223 -12 31 -37 73 -55 92 -29 30 -40 35 -80 35 -26 0 -88 -14 -139 -31 -51 -16 -114 -35 -142 -41 -77 -16 -122 -44 -168 -103 l-42 -55 -6 98 c-12 178 -54 247 -236 381 -37 28 -89 74 -115 104 -57 66 -164 140 -240 167 -47 16 -80 20 -185 19 -71 -1 -141 -4 -158 -6z m299 -38 c15 -8 34 -15 41 -15 31 0 118 -62 210 -150 55 -53 123 -113 151 -133 73 -52 132 -120 162 -185 22 -47 27 -75 30 -162 l4 -105 -28 26 c-16 14 -56 49 -89 79 -78 70 -158 106 -265 120 -47 6 -139 30 -205 52 -102 35 -132 41 -201 40 -111 0 -142 -16 -308 -156 l-138 -117 -18 33 c-27 50 -165 108 -257 108 -25 0 -33 4 -33 18 1 32 37 97 97 172 33 41 76 101 97 132 80 123 185 188 351 220 55 10 111 22 125 27 45 16 242 13 274 -4z m-55 -493 l54 -18 -64 -36 c-35 -20 -88 -41 -117 -47 -61 -13 -112 -37 -192 -92 -71 -48 -132 -75 -210 -90 -63 -12 -74 -11 -62 7 10 14 275 239 308 260 69 46 179 52 283 16z m1234 -62 c54 -63 70 -130 77 -315 l6 -170 37 -75 c40 -81 45 -123 24 -192 -35 -109 -38 -140 -22 -202 9 -32 13 -61 11 -64 -3 -2 -42 1 -88 7 -46 6 -105 13 -133 14 l-50 2 -1 63 c-1 47 2 62 12 62 8 0 14 5 14 10 0 6 -4 10 -10 10 -19 0 -11 48 10 55 21 7 28 25 10 25 -5 0 -10 -5 -10 -11 0 -5 -5 -7 -11 -3 -6 3 -9 19 -5 35 3 16 1 29 -4 29 -19 0 -11 55 10 68 11 7 20 18 20 24 0 9 -3 9 -12 0 -7 -7 -20 -12 -30 -12 -24 0 -24 38 0 57 15 13 14 14 -11 8 -41 -8 -46 19 -11 56 30 31 14 42 -19 12 -18 -17 -19 -17 -33 2 -7 11 -19 26 -25 34 -7 8 -8 16 -2 20 42 28 56 41 50 47 -3 4 -22 -3 -42 -15 l-36 -21 -24 28 c-17 20 -21 30 -12 40 8 11 5 12 -15 7 -41 -10 -44 13 -7 51 38 39 28 46 -15 9 -33 -28 -45 -33 -26 -10 17 20 5 32 -15 15 -21 -17 -31 -5 -14 16 13 16 12 16 -7 4 -20 -12 -25 -11 -54 13 -17 15 -38 27 -46 27 -22 0 -17 11 30 77 57 78 85 99 149 112 29 7 93 25 142 41 150 48 156 49 188 10z m305 -850 c78 -79 112 -100 233 -144 88 -32 166 -139 156 -215 -9 -68 -31 -206 -33 -210 -2 -2 -24 8 -50 23 -25 14 -53 26 -60 26 -8 0 -14 7 -14 15 0 11 -7 14 -25 9 -19 -5 -25 -2 -25 11 0 9 -20 35 -44 57 -28 24 -43 45 -39 54 3 9 0 12 -9 9 -9 -4 -25 7 -41 28 -23 31 -25 37 -12 53 22 29 17 42 -5 15 -17 -20 -23 -21 -36 -10 -10 8 -13 21 -9 36 3 13 1 23 -5 23 -5 0 -10 -4 -10 -10 0 -5 -7 -10 -15 -10 -18 0 -19 14 -5 41 14 26 -5 25 -23 -1 -20 -29 -41 -8 -61 62 -20 70 -20 138 -2 183 23 54 46 46 134 -45z"></path><path id="poNBV9yFh" d="M2824 5152 c-59 -43 -114 -125 -114 -170 0 -9 14 7 30 35 17 29 53 76 80 105 28 29 50 54 50 55 0 7 -9 2 -46 -25z"></path><path id="p12yxq9pMk" d="M2457 5115 c-27 -14 -67 -38 -90 -54 -43 -30 -96 -81 -83 -81 7 0 213 135 231 151 17 17 -9 9 -58 -16z"></path><path id="p9LjOoAwY" d="M3241 4883 c-13 -28 -13 -28 8 -9 22 20 27 36 13 36 -5 0 -14 -12 -21 -27z"></path><path id="pGenVTHnu" d="M4005 4704 c-83 -32 -134 -61 -94 -52 46 9 228 74 229 81 0 15 -48 5 -135 -29z"></path><path id="p1XDdR1gm" d="M4201 4376 c-1 -101 11 -152 45 -191 29 -34 30 -30 5 26 -10 24 -22 82 -26 129 -11 124 -24 143 -24 36z"></path><path id="p1AoG8HhLu" d="M4250 3974 c0 -11 7 -29 15 -40 14 -19 14 -19 15 2 0 11 -7 29 -15 40 -14 19 -14 19 -15 -2z"></path><path id="pyJzCI1JN" d="M4742 3674 c3 -5 16 -31 29 -59 15 -34 24 -44 27 -32 5 22 -28 89 -47 95 -8 3 -11 1 -9 -4z"></path><path id="pUAHiJLEU" d="M4547 3622 c-19 -20 -23 -37 -7 -27 10 6 33 45 27 45 -2 0 -11 -8 -20 -18z"></path><path id="pFPhzOvsm" d="M2010 4670 c0 -5 14 -10 31 -10 17 0 64 -11 106 -25 80 -27 101 -27 59 0 -54 36 -196 61 -196 35z"></path><path id="p1BvD0jwCK" d="M3430 4535 c0 -2 13 -11 29 -20 16 -8 72 -48 125 -90 53 -41 100 -75 103 -75 4 0 -15 23 -42 51 -76 77 -215 164 -215 134z"></path><path id="p17rsuGhZc" d="M1670 4507 c-43 -15 -100 -49 -100 -59 0 -11 1 -11 51 14 37 19 59 22 142 21 89 -1 119 6 82 21 -34 13 -142 15 -175 3z"></path><path id="pyEbRzE5w" d="M3087 4338 c-41 -54 -103 -219 -76 -202 5 3 9 11 9 17 0 7 23 57 50 111 28 54 49 101 46 103 -2 2 -15 -11 -29 -29z"></path><path id="pgEsNxtVP" d="M2370 4314 c0 -20 155 -213 164 -203 3 3 -7 26 -24 50 -38 56 -139 167 -140 153z"></path><path id="p1AUlcpyAF" d="M2776 4274 c-7 -28 2 -112 13 -118 7 -5 3 135 -3 142 -2 2 -7 -9 -10 -24z"></path><path id="pIw3Gpg8K" d="M2080 4178 c0 -30 33 -113 49 -122 15 -10 14 3 -9 70 -24 69 -40 90 -40 52z"></path><path id="prX1M5cTE" d="M3820 4176 c0 -12 82 -128 87 -123 9 9 -27 74 -57 102 -17 16 -30 25 -30 21z"></path><path id="pYyppL4H8" d="M1710 4153 c0 -16 50 -66 58 -58 3 3 -8 20 -26 38 -18 17 -32 26 -32 20z"></path><path id="pw41lhKhT" d="M3353 4123 c-38 -42 -43 -60 -10 -39 23 16 64 76 50 75 -4 0 -23 -16 -40 -36z"></path><path id="paWCAVn00" d="M2242 4125 c6 -14 15 -25 19 -25 12 0 -2 38 -17 44 -11 4 -11 0 -2 -19z"></path><path id="pKy2tDF93" d="M2676 4113 c7 -40 24 -69 24 -41 0 32 -13 78 -22 78 -5 0 -6 -17 -2 -37z"></path><path id="pqVRz3Eel" d="M3171 4094 c-7 -19 -10 -38 -7 -41 3 -4 6 1 6 9 0 9 7 21 15 28 16 13 21 40 7 40 -4 0 -14 -16 -21 -36z"></path><path id="p18xAkUcrA" d="M3650 4095 c-75 -15 -134 -37 -145 -55 -6 -9 -1 -10 16 -4 13 4 64 17 113 28 49 12 91 27 94 34 4 14 7 14 -78 -3z"></path><path id="p45r0g7nD" d="M1689 4006 c14 -14 29 -26 34 -26 13 0 -12 29 -37 42 -19 10 -18 8 3 -16z"></path><path id="pezgSoGp2" d="M3139 3864 c-9 -11 -7 -14 14 -14 14 0 58 -12 97 -26 68 -26 89 -27 75 -5 -3 6 -17 8 -31 5 -17 -4 -24 -2 -24 9 0 19 -25 29 -56 21 -13 -3 -24 -2 -24 4 0 16 -38 21 -51 6z"></path><path id="pMM2M98i2" d="M3570 3870 c0 -5 7 -10 15 -10 35 0 115 -36 173 -77 73 -52 82 -43 16 16 -64 56 -204 105 -204 71z"></path><path id="psdYhJFuu" d="M2640 3700 c0 -5 11 -10 25 -10 14 0 25 5 25 10 0 6 -11 10 -25 10 -14 0 -25 -4 -25 -10z"></path><path id="p175IxoRKn" d="M2700 3695 c0 -9 9 -15 25 -15 18 0 23 4 19 15 -4 8 -15 15 -25 15 -10 0 -19 -7 -19 -15z"></path><path id="pyCQvMnti" d="M2884 3634 c10 -7 24 -10 32 -7 24 9 15 18 -18 19 -28 1 -30 0 -14 -12z"></path><path id="pp8po6RyV" d="M4227 3594 c-15 -15 187 -184 221 -184 19 0 14 18 -6 24 -10 4 -58 42 -107 86 -89 81 -96 85 -108 74z"></path><path id="p4cv2o7je" d="M3003 3557 c4 -10 7 -20 7 -21 0 -8 51 8 56 16 4 6 -2 7 -15 3 -13 -4 -29 -1 -38 7 -15 11 -16 11 -10 -5z"></path><path id="pDfdyyQQU" d="M964 1742 c-6 -4 -14 -20 -18 -35 -4 -16 -11 -25 -17 -21 -8 4 -8 1 -1 -12 5 -11 12 -57 15 -104 6 -81 21 -137 87 -315 21 -56 22 -67 12 -165 -12 -120 -5 -178 27 -241 52 -101 107 -133 256 -149 146 -15 247 -33 380 -66 87 -22 134 -28 225 -28 l115 -1 81 42 c45 23 103 55 130 72 54 35 74 39 74 14 0 -25 57 -122 106 -180 50 -58 130 -114 251 -174 66 -33 109 -66 215 -164 214 -199 287 -230 443 -190 78 21 114 50 153 124 45 84 117 158 220 229 104 71 155 125 188 196 29 64 43 171 32 239 -4 29 -6 68 -4 87 3 19 2 29 0 22 -3 -6 -9 -10 -14 -7 -5 3 -14 0 -22 -7 -7 -7 -17 -13 -23 -14 -21 -1 -65 -16 -65 -23 0 -3 -14 -7 -32 -7 -18 -1 -34 -6 -35 -11 -2 -6 -15 -8 -29 -5 -16 3 -30 -1 -35 -9 -5 -8 -9 -9 -9 -4 0 7 -27 8 -77 4 -43 -3 -80 -4 -83 0 -3 3 -39 14 -80 25 -159 39 -267 123 -357 277 -36 62 -48 76 -64 72 -10 -3 -19 0 -19 6 0 6 5 11 10 11 6 0 10 7 10 16 0 14 -2 14 -15 0 -8 -8 -15 -19 -15 -24 0 -16 94 -166 135 -215 72 -86 214 -163 342 -186 135 -25 231 -16 382 35 28 9 48 11 54 5 5 -5 7 -57 5 -118 -7 -173 -41 -227 -215 -349 -103 -73 -180 -152 -211 -216 -59 -126 -205 -172 -337 -107 -27 13 -98 71 -159 129 -140 133 -170 157 -281 215 -121 64 -164 95 -220 157 -48 53 -105 160 -105 197 0 11 10 26 23 32 39 21 138 121 200 204 34 44 84 105 112 135 28 30 50 61 49 68 -1 6 -2 15 -3 19 -2 14 -105 -95 -180 -192 -96 -123 -131 -155 -251 -229 -52 -32 -115 -73 -140 -90 -128 -91 -239 -100 -483 -42 -165 39 -195 45 -335 60 -186 21 -229 52 -269 196 -14 52 -15 70 -5 119 21 103 16 150 -33 281 -53 141 -65 195 -65 296 0 43 -4 74 -10 74 -5 0 -10 5 -10 10 0 6 7 10 15 10 8 0 15 7 15 15 0 16 -18 20 -36 7z"></path><path id="pcATUikWv" d="M1046 1581 c-3 -5 5 -33 18 -62 19 -43 34 -116 36 -171 0 -5 4 -8 9 -8 6 0 9 30 8 68 -2 49 -10 83 -30 125 -27 58 -32 64 -41 48z"></path><path id="paByGtVlo" d="M1959 1449 c-11 -8 -7 -15 20 -39 29 -25 32 -32 21 -45 -7 -8 -8 -15 -2 -15 5 0 12 7 16 15 4 12 15 8 52 -20 51 -39 108 -49 102 -17 -3 12 -12 16 -36 14 -23 -1 -32 2 -32 13 0 8 -10 20 -22 26 -13 6 -41 26 -64 45 -29 23 -44 30 -55 23z"></path><path id="pypvKkwjY" d="M1490 1348 c-18 -35 -36 -68 -41 -74 -23 -29 -49 -132 -49 -196 0 -56 19 -138 32 -138 2 0 3 53 3 118 l0 117 53 108 c28 59 52 111 52 117 0 27 -22 4 -50 -52z"></path><path id="pb8lwlyxW" d="M1957 1393 c-12 -12 -7 -22 8 -17 8 4 15 10 15 15 0 11 -14 12 -23 2z"></path><path id="pZrNfU0zB" d="M1467 1384 c-4 -4 -7 -14 -7 -23 0 -11 3 -12 11 -4 6 6 10 16 7 23 -2 6 -7 8 -11 4z"></path><path id="pTZNAJDaF" d="M2202 1323 c-17 -18 -16 -19 28 -20 27 -1 40 2 40 11 0 18 -53 25 -68 9z"></path><path id="pZ2cSn8jZ" d="M2290 1330 c0 -5 7 -10 15 -10 8 0 15 5 15 10 0 6 -7 10 -15 10 -8 0 -15 -4 -15 -10z"></path><path id="p1ESwUEjd" d="M2897 1133 c2 -38 9 -99 17 -138 13 -60 15 -63 11 -20 -3 28 -8 89 -11 138 -8 102 -20 117 -17 20z"></path><path id="pEe6ztpSV" d="M2550 1124 c-48 -49 -110 -92 -205 -144 -33 -18 -81 -51 -107 -73 -53 -45 -122 -139 -116 -158 2 -7 14 3 26 23 35 56 130 138 223 192 134 77 185 114 213 155 47 67 30 69 -34 5z"></path><path id="pgyRvR6SX" d="M2445 1120 c-10 -11 -13 -20 -8 -20 13 0 38 29 31 35 -3 3 -13 -4 -23 -15z"></path><path id="paTNJh4j" d="M2767 1123 c-13 -22 -37 -121 -37 -155 0 -67 16 -41 34 58 16 85 17 121 3 97z"></path><path id="ppxbGzbUr" d="M1172 1037 c-24 -56 -7 -121 42 -166 32 -30 33 -23 4 32 -12 23 -24 69 -28 102 -6 57 -7 59 -18 32z"></path><path id="pfYDZQH0K" d="M3055 960 c12 -73 26 -93 22 -32 -2 29 -10 59 -17 65 -10 10 -11 3 -5 -33z"></path><path id="pHTMNzuqn" d="M2525 870 c-9 -15 3 -77 16 -86 7 -4 8 10 3 42 -8 56 -9 60 -19 44z"></path><path id="pNsvpA6Ex" d="M3050 729 c25 -62 49 -109 56 -109 11 0 -10 78 -33 118 -33 58 -47 53 -23 -9z"></path><path id="pSinIKyNp" d="M3834 760 c-33 -79 -56 -151 -50 -157 10 -11 67 128 63 156 l-3 26 -10 -25z"></path><path id="pYwCNFQo5" d="M2420 716 c0 -8 5 -18 10 -21 6 -3 10 1 10 9 0 8 -4 18 -10 21 -5 3 -10 -1 -10 -9z"></path><path id="pfmZr1q6S" d="M2610 598 c0 -21 49 -86 93 -125 48 -42 126 -87 135 -78 4 4 2 10 -4 12 -29 10 -154 116 -187 159 -20 26 -37 40 -37 32z"></path><path id="pgSVFTP9z" d="M3615 416 c-16 -22 -54 -54 -84 -72 -69 -42 -127 -97 -151 -145 -23 -43 -24 -49 -11 -49 5 0 12 8 15 18 10 32 90 107 169 161 78 52 101 79 95 110 -2 13 -10 8 -33 -23z"></path><path id="p18t91eArY" d="M3545 420 c-10 -11 -14 -20 -8 -20 5 0 18 9 28 20 10 11 14 20 8 20 -5 0 -18 -9 -28 -20z"></path></g></g></svg>