<?xml version="1.0" encoding="UTF-8"?><svg xmlns="http://www.w3.org/2000/svg" xmlns:xlink="http://www.w3.org/1999/xlink" height="75.1" preserveAspectRatio="xMidYMid meet" version="1.0" viewBox="-0.1 -0.1 143.6 75.1" width="143.6" zoomAndPan="magnify"><defs><linearGradient gradientTransform="matrix(.61946 0 0 .61946 782.017 167.304)" gradientUnits="userSpaceOnUse" id="a" spreadMethod="pad" x1="-5.216" x2="121.182" xlink:actuate="onLoad" xlink:show="other" xlink:type="simple" xmlns:xlink="http://www.w3.org/1999/xlink" y1="310.317" y2="310.317"><stop offset="0" stop-color="#a67c00"/><stop offset=".619" stop-color="#ffe878"/><stop offset="1" stop-color="#a67c00"/></linearGradient><linearGradient gradientUnits="userSpaceOnUse" id="b" x1="1168.976" x2="1711.189" xlink:actuate="onLoad" xlink:href="#a" xlink:show="other" xlink:type="simple" xmlns:xlink="http://www.w3.org/1999/xlink" y1="232.2" y2="232.2"/></defs><g><path color="#000" d="m 1425.7734,90.771484 c -0.2313,-0.0019 -0.4632,0.0046 -0.6953,0.01953 -4.6951,0.303193 -8.4953,2.402937 -10.7715,5.683593 -2.2761,3.280661 -3.0314,7.593563 -2.3164,12.210943 0.6067,3.91812 3.015,7.63428 6.3692,11.08007 -6.7146,4.05624 -16.5102,7.5867 -32.0606,7.99415 -3.7535,-0.19333 -7.792,-1.17808 -10.5254,-2.89454 -1.5326,-0.96249 -2.6435,-2.11296 -3.248,-3.43164 -0.6045,-1.31864 -0.7814,-2.85479 -0.2129,-4.93164 0.5604,-2.04797 1.6491,-3.20154 2.9746,-3.89062 1.3255,-0.68909 2.9486,-0.85067 4.4004,-0.52344 1.4518,0.32731 2.6663,1.12293 3.3066,2.125 0.6404,1.00203 0.8839,2.23241 0.1407,4.14258 a 1.9999938,1.9999938 0 0 0 1.1425,2.58984 1.9999938,1.9999938 0 0 0 2.584,-1.13672 c 1.1165,-2.8696 0.8158,-5.68792 -0.5019,-7.75 -1.3178,-2.06203 -3.4747,-3.34624 -5.7949,-3.86914 -2.3203,-0.52293 -4.8665,-0.30196 -7.1231,0.8711 -2.2566,1.17312 -4.1546,3.36173 -4.9824,6.38672 -0.7727,2.82357 -0.569,5.46304 0.4355,7.65429 0.8217,1.79243 2.1242,3.25238 3.6758,4.41797 -31.4876,-1.873 -47.4187,-12.89251 -59.2031,-19.91992 -14.1819,-10.006235 -27.7642,-14.725222 -38.9317,-16.189456 -5.6003,-0.734301 -10.5812,-0.690844 -14.7636,-0.04297 -4.1824,0.647879 -7.5663,1.901185 -9.9805,3.58789 -5.1369,3.588949 -5.7639,10.458496 -1.6973,13.906256 3.1368,2.65942 7.184,2.37427 9.5821,0.32422 1.1991,-1.02497 2.0415,-2.50774 2.125,-4.19141 0.083,-1.68363 -0.6489,-3.46136 -2.0821,-4.88086 a 1.9999938,1.9999938 0 0 0 -2.8261,0.0156 1.9999938,1.9999938 0 0 0 0.014,2.82812 c 0.7905,0.78297 0.9259,1.36401 0.9024,1.83789 -0.023,0.47384 -0.2639,0.94921 -0.7324,1.34961 -0.9368,0.80081 -2.572,1.2099 -4.3907,-0.33203 -1.9056,-1.61567 -2.0062,-5.2041 1.3946,-7.580082 3.3588,-2.346637 11.4164,-4.236137 21.9316,-2.857422 3.8004,0.498293 7.9295,1.404726 12.3008,2.814453 -0.9788,0.01574 -1.9095,0.09673 -2.7871,0.242188 -2.3234,0.385077 -4.2801,1.227309 -5.8086,2.539063 -3.8807,3.33041 -5.9529,7.33331 -6.1113,11.25782 -0.1584,3.92447 1.662,7.66159 4.9531,10.20117 4.6521,3.58979 10.4821,3.32381 14.3203,0.55273 1.9191,-1.38554 3.3697,-3.4367 3.8457,-5.88281 0.476,-2.44611 -0.059,-5.21626 -1.7344,-7.89844 a 1.9999938,1.9999938 0 0 0 -2.7617,-0.63476 1.9999938,1.9999938 0 0 0 -0.6348,2.76171 c 1.2402,1.98498 1.4704,3.63851 1.2032,5.01172 -0.2672,1.37322 -1.0647,2.53311 -2.2578,3.39454 -2.3864,1.72293 -6.2297,2.08149 -9.5372,-0.47071 -2.3894,-1.8438 -3.5028,-4.23739 -3.3964,-6.87305 0.1062,-2.63569 1.4954,-5.62218 4.7168,-8.38671 1.7126,-1.46986 5.2295,-2.33698 10.541,-1.43164 5.3115,0.90531 12.282,3.5347 20.5527,8.46679 8.2677,4.93031 19.344,12.25444 36.7969,16.75586 h -97.3457 l -11.3379,-11.34375 a 2.0001938,2.0001938 0 0 0 -2.834,0 l -11.3379,11.34375 h -4.4902 l -8.627,-8.6289 a 2.0001938,2.0001938 0 0 0 -2.8281,0 l -8.6367,8.6289 h -12.0313 c -4.1054,2e-5 -8.8194,-1.0028 -11.8847,-2.92773 -1.5327,-0.96247 -2.6358,-2.11102 -3.2403,-3.42969 -0.6045,-1.31867 -0.7851,-2.85674 -0.2168,-4.93359 0.5605,-2.04794 1.6472,-3.20349 2.9727,-3.89258 1.3255,-0.68909 2.9505,-0.84674 4.4023,-0.51953 1.4519,0.3272 2.6624,1.12099 3.3028,2.12304 0.6403,1.00206 0.8897,2.23241 0.1465,4.14258 a 1.999995,1.999995 0 0 0 1.1386,2.58985 1.999995,1.999995 0 0 0 2.5899,-1.13868 c 1.1165,-2.86958 0.8138,-5.68599 -0.5039,-7.74804 -1.3178,-2.06206 -3.4728,-3.34818 -5.793,-3.8711 -1.1601,-0.26145 -2.3779,-0.33627 -3.5879,-0.19922 -1.21,0.13706 -2.4127,0.48571 -3.541,1.07227 -2.2566,1.17313 -4.1566,3.3598 -4.9844,6.38477 -0.7726,2.82358 -0.567,5.46498 0.4375,7.65625 1.0045,2.19126 2.732,3.88316 4.75,5.15039 4.036,2.53444 9.2987,3.54103 14.0117,3.54101 h 12.0352 l 8.6328,8.63281 a 2.0001938,2.0001938 0 0 0 2.8281,0 l 8.6231,-8.63281 h 4.498 l 11.334,11.3418 a 2.0001938,2.0001938 0 0 0 2.834,0 l 11.334,-11.3418 h 130.9238 c 0.1211,2.6e-4 0.2399,0.002 0.3613,0.002 0.8126,0.008 1.607,0.006 2.3946,-0.002 h 2.7656 c 0.1483,0.002 0.2961,0.002 0.4433,0.002 a 1.9999938,1.9999938 0 0 0 0.059,-0.002 h 52.3575 a 1.9999938,1.9999938 0 0 0 0.01,0.002 h 55.75 c 0.7514,0.006 1.511,0.007 2.2852,0 0.01,-1e-5 0.016,0 0.023,0 h 131.2559 l 11.3398,11.33984 a 2.0001938,2.0001938 0 0 0 2.8262,0 l 11.3398,-11.33984 h 4.4942 l 8.6308,8.63085 a 2.0001938,2.0001938 0 0 0 2.8262,0 l 8.6309,-8.63085 h 12.039 c 4.7131,3e-5 9.9758,-1.00854 14.0117,-3.54297 2.018,-1.26724 3.7417,-2.96109 4.7461,-5.15235 1.0045,-2.19125 1.2161,-4.83072 0.4434,-7.65429 -0.8278,-3.02499 -2.7337,-5.2136 -4.9902,-6.38672 -2.2566,-1.17313 -4.8029,-1.39403 -7.1231,-0.8711 v 0 c -2.3202,0.5229 -4.4752,1.80711 -5.793,3.86914 -1.3177,2.06208 -1.6204,4.8804 -0.5039,7.75 a 1.9999938,1.9999938 0 0 0 2.584,1.13672 1.9999938,1.9999938 0 0 0 1.1445,-2.58984 c -0.7432,-1.91017 -0.4997,-3.14051 0.1406,-4.14258 0.6404,-1.00207 1.8548,-1.79781 3.3067,-2.125 1.4518,-0.32731 3.0749,-0.16546 4.4004,0.52344 1.3255,0.68908 2.4141,1.84265 2.9746,3.89062 0.5683,2.07685 0.3895,3.613 -0.2149,4.93164 -0.6045,1.31868 -1.7075,2.46915 -3.2402,3.43164 -3.0654,1.92492 -7.7793,2.93165 -11.8848,2.93165 h -12.0312 l -8.6387,-8.63086 a 2.0001938,2.0001938 0 0 0 -2.8262,0 l -8.6386,8.63086 h -4.4786 l -11.3476,-11.34571 a 2.0001938,2.0001938 0 0 0 -2.8262,0 l -11.3476,11.34571 h -97.3438 c 17.4575,-4.50126 28.5377,-11.82677 36.8067,-16.75782 8.2707,-4.93209 15.2392,-7.56148 20.5507,-8.46679 5.3116,-0.90534 8.8284,-0.0383 10.5411,1.43164 3.2213,2.76453 4.6104,5.75102 4.7167,8.38671 0.1063,2.63566 -1.0051,5.02925 -3.3945,6.87305 -3.3074,2.5522 -7.1507,2.19364 -9.5371,0.47071 -1.1931,-0.86143 -1.9925,-2.02132 -2.2598,-3.39454 -0.2672,-1.37321 -0.038,-3.02674 1.2032,-5.01172 a 1.9999938,1.9999938 0 0 0 -0.6348,-2.76171 1.9999938,1.9999938 0 0 0 -2.7598,0.63476 c -1.6757,2.68218 -2.2123,5.45233 -1.7363,7.89844 0.476,2.44611 1.9286,4.49727 3.8477,5.88281 3.8381,2.77108 9.6681,3.03706 14.3203,-0.55273 3.2911,-2.53958 5.1115,-6.2767 4.9531,-10.20117 -0.1584,-3.92451 -2.2326,-7.92741 -6.1133,-11.25782 -1.5285,-1.31175 -3.4852,-2.153986 -5.8086,-2.539063 -0.8787,-0.145645 -1.8108,-0.226604 -2.791,-0.242188 4.3701,-1.409727 8.4984,-2.31616 12.2988,-2.814453 10.5153,-1.378711 18.5807,0.510785 21.9395,2.857422 3.4008,2.375982 3.3002,5.964412 1.3945,7.580082 -1.8186,1.5419 -3.4558,1.1328 -4.3926,0.33203 -0.4684,-0.4004 -0.707,-0.87577 -0.7304,-1.34961 -0.023,-0.47388 0.1098,-1.05496 0.9004,-1.83789 a 1.9999938,1.9999938 0 0 0 0.016,-2.82812 1.9999938,1.9999938 0 0 0 -2.8281,-0.0137 c -1.4332,1.4195 -2.1636,3.19528 -2.0801,4.87891 0.083,1.68367 0.9259,3.16839 2.125,4.19336 2.3981,2.0499 6.4374,2.3331 9.5742,-0.32617 4.0667,-3.44776 3.4475,-10.317311 -1.6894,-13.906256 -2.4143,-1.686705 -5.7982,-2.940011 -9.9805,-3.58789 v 0 c -4.1824,-0.64788 -9.1632,-0.691337 -14.7636,0.04297 -11.166,1.464035 -24.744,6.182116 -38.9239,16.185546 0,0.002 -0.01,0.002 -0.01,0.004 -11.7848,7.0277 -27.7148,18.04759 -59.2051,19.91992 1.5522,-1.16574 2.8578,-2.62505 3.6797,-4.41797 1.0045,-2.19125 1.2082,-4.83072 0.4356,-7.65429 -0.8278,-3.02499 -2.7278,-5.2136 -4.9844,-6.38672 -2.2566,-1.17313 -4.8107,-1.39403 -7.1309,-0.8711 -2.3202,0.5229 -4.4693,1.80711 -5.7871,3.86914 -1.3177,2.06208 -1.6262,4.8804 -0.5097,7.75 a 1.9999938,1.9999938 0 0 0 2.5918,1.13672 1.9999938,1.9999938 0 0 0 1.1367,-2.58984 c -0.7432,-1.91017 -0.4921,-3.14055 0.1484,-4.14258 0.6404,-1.00207 1.8548,-1.79781 3.3067,-2.125 1.4518,-0.32731 3.0749,-0.16546 4.4004,0.52344 1.3255,0.68908 2.4141,1.84265 2.9746,3.89062 0.5683,2.07685 0.3818,3.613 -0.2227,4.93164 -0.6045,1.31868 -1.7076,2.46915 -3.2402,3.43164 -2.7325,1.71587 -6.7737,2.70072 -10.5274,2.89454 -15.5481,-0.40796 -25.3446,-3.93824 -32.0586,-7.99415 3.3542,-3.44579 5.7645,-7.16195 6.3711,-11.08007 0.715,-4.61738 -0.042,-8.930282 -2.3183,-12.210943 -2.2762,-3.280656 -6.0745,-5.380385 -10.7696,-5.683593 -3.7136,-0.239396 -7.3709,1.708682 -9.6406,4.857422 -2.2696,3.148743 -3.0025,7.734794 -0.6055,12.201174 1.3099,2.44059 4.6044,7.4803 10.4825,12.24023 -3.9247,2.95513 -8.9029,5.67071 -15.2403,7.61328 -6.3377,-1.94258 -11.3154,-4.65803 -15.2402,-7.61328 5.8781,-4.75993 9.1726,-9.79964 10.4824,-12.24023 2.3971,-4.46638 1.6642,-9.052431 -0.6054,-12.201174 -2.1278,-2.951944 -5.4753,-4.848685 -8.9454,-4.876954 z m -0.045,3.996094 c 1.9837,0.03667 4.346,1.265053 5.75,3.212891 1.4977,2.077691 2.0554,4.740171 0.3164,7.980471 -1.3753,2.56267 -4.2397,7.15917 -9.9863,11.56054 -3.2343,-3.1302 -5.3988,-6.41153 -5.8691,-9.44921 -0.5928,-3.82757 0.078,-7.04711 1.6523,-9.316411 1.5745,-2.269304 4.0501,-3.739955 7.7441,-3.978515 0.1285,-0.0083 0.2604,-0.01221 0.3926,-0.0098 z m 28.707,0 c 0.1323,-0.0024 0.2622,0.0015 0.3907,0.0098 3.694,0.238564 6.1697,1.709211 7.7441,3.978515 1.5745,2.269297 2.2392,5.488837 1.6465,9.316407 -0.4703,3.03768 -2.627,6.31901 -5.8613,9.44921 -5.7467,-4.40137 -8.6129,-8.99787 -9.9883,-11.56054 -1.739,-3.24027 -1.1793,-5.90278 0.3183,-7.980467 1.4041,-1.947838 3.7663,-3.176212 5.75,-3.212891 z m -216.4218,25.927732 9.1015,9.10157 -9.1015,9.09374 -9.1016,-9.09374 z m 404.1367,0 9.1016,9.10157 -9.1016,9.10156 -9.1035,-9.10156 z m -220.6973,2.02149 c 2.3285,1.83636 5.0128,3.55047 8.0489,5.07812 h -18.7403 c 4.2241,-1.45475 7.7402,-3.20546 10.6914,-5.07812 z m 37.2559,0 c 2.9526,1.87353 6.4725,3.6249 10.6992,5.08008 h -18.752 c 3.0377,-1.52812 5.7232,-3.24283 8.0528,-5.08008 z m -247.9785,0.6875 6.3769,6.39258 -6.3847,6.38476 -6.3848,-6.38476 z m 458.7109,0 6.3848,6.39258 -6.3848,6.38476 -6.3945,-6.38476 z m -415.0469,197.38086 a 2.0001938,2.0001938 0 0 0 -1.1894,0.57226 l -11.3477,11.3457 h -4.4785 l -8.6367,-8.6289 a 2.0001938,2.0001938 0 0 0 -2.8281,0 l -8.6368,8.6289 h -28.6328 c -4.713,-2e-5 -9.9757,1.00462 -14.0117,3.53907 -2.018,1.26722 -3.7455,2.96107 -4.75,5.15234 -1.0045,2.19127 -1.2101,4.83071 -0.4375,7.6543 0.8278,3.02497 2.7278,5.21359 4.9844,6.38672 2.2566,1.17312 4.8087,1.39596 7.1289,0.87304 2.3202,-0.52291 4.4752,-1.81099 5.793,-3.87304 1.3177,-2.06206 1.6204,-4.87651 0.5039,-7.7461 a 1.999995,1.999995 0 0 0 -2.5899,-1.13867 1.999995,1.999995 0 0 0 -1.1386,2.58789 c 0.7432,1.91017 0.4938,3.14247 -0.1465,4.14453 -0.6404,1.00206 -1.8509,1.79584 -3.3028,2.12305 -1.4518,0.32721 -3.0768,0.16956 -4.4023,-0.51953 -1.3255,-0.68909 -2.4122,-1.84464 -2.9727,-3.89258 -0.5683,-2.07685 -0.3877,-3.61493 0.2168,-4.93359 0.6045,-1.31867 1.7076,-2.46722 3.2403,-3.42969 3.0653,-1.92494 7.7793,-2.92775 11.8847,-2.92774 h 28.6407 l 8.6289,8.63086 a 2.0001938,2.0001938 0 0 0 2.8281,0 l 8.6289,-8.63086 h 4.4941 l 11.3399,11.33985 a 2.0001938,2.0001938 0 0 0 2.8281,0 l 11.3379,-11.33985 h 110.7246 c -18.4173,4.499 -29.7103,11.82023 -37.9902,16.75782 -8.2708,4.93209 -15.2471,7.56148 -20.5586,8.46679 -5.3116,0.90535 -8.8283,0.0303 -10.541,-1.43945 -3.2214,-2.76453 -4.6124,-5.74325 -4.7188,-8.3789 -0.1066,-2.6357 1.007,-5.03511 3.3965,-6.87891 3.3074,-2.55217 7.1508,-2.19556 9.5371,-0.47266 1.1932,0.86147 1.9926,2.02917 2.2598,3.40235 0.2672,1.37321 0.043,3.02866 -1.1973,5.01367 a 1.9999938,1.9999938 0 0 0 0.6348,2.75195 1.9999938,1.9999938 0 0 0 2.7539,-0.63476 c 1.6757,-2.68218 2.2104,-5.45233 1.7343,-7.89844 -0.4759,-2.44611 -1.9266,-4.48946 -3.8457,-5.875 -3.8381,-2.77108 -9.6681,-3.04488 -14.3203,0.54492 -3.2911,2.53958 -5.1037,6.27861 -4.9453,10.20312 0.1584,3.92452 2.2306,7.93327 6.1113,11.26368 2.1017,1.80367 5.0128,2.71707 8.5743,2.77929 -4.3636,1.40587 -8.485,2.31109 -12.2793,2.8086 -10.5153,1.37869 -18.5728,-0.50884 -21.9317,-2.85547 -3.4007,-2.376 -3.308,-5.95855 -1.4023,-7.57422 1.8187,-1.5419 3.4616,-1.1328 4.3984,-0.33203 0.4684,0.4004 0.7089,0.87577 0.7324,1.34961 0.023,0.47388 -0.1117,1.05496 -0.9023,1.83789 a 1.9999938,1.9999938 0 0 0 -0.014,2.82812 1.9999938,1.9999938 0 0 0 2.8262,0.0156 c 1.4332,-1.41948 2.1656,-3.19528 2.082,-4.87891 -0.083,-1.68366 -0.9259,-3.16839 -2.125,-4.19336 -2.3981,-2.0499 -6.4452,-2.34306 -9.582,0.31641 -4.0666,3.44776 -3.4396,10.31928 1.6973,13.9082 4.8285,3.37342 13.5433,5.01936 24.7441,3.55078 11.1966,-1.46806 24.8191,-6.20569 39.041,-16.26562 12.8882,-7.69413 31.2569,-20.12072 72.0352,-20.1211 h 25.7773 25.7852 c 40.7648,3.8e-4 59.1339,12.41857 72.0215,20.11329 14.2261,10.06554 27.8531,14.80498 39.0527,16.27343 11.2008,1.46858 19.9156,-0.17732 24.7441,-3.55078 5.1369,-3.58892 5.7659,-10.46044 1.6993,-13.9082 -3.1368,-2.65943 -7.184,-2.36627 -9.5821,-0.31641 -1.199,1.02497 -2.0434,2.50774 -2.1269,4.19141 -0.084,1.68363 0.6488,3.46138 2.082,4.88086 a 1.9999938,1.9999938 0 0 0 2.8281,-0.0156 1.9999938,1.9999938 0 0 0 -0.016,-2.82812 c -0.7905,-0.78293 -0.9239,-1.36401 -0.9004,-1.83789 0.023,-0.47384 0.262,-0.94921 0.7305,-1.34961 0.9368,-0.80081 2.5739,-1.2099 4.3926,0.33203 1.9056,1.61567 2.0043,5.19627 -1.3965,7.57227 -3.3589,2.34663 -11.4164,4.23611 -21.9317,2.85742 -3.7937,-0.49743 -7.9145,-1.40311 -12.2773,-2.8086 3.5615,-0.0622 6.4706,-0.97562 8.5723,-2.77929 3.8807,-3.33041 5.9548,-7.33916 6.1132,-11.26368 0.1584,-3.92451 -1.6619,-7.66354 -4.9531,-10.20312 -4.6521,-3.5898 -10.4841,-3.316 -14.3222,-0.54492 -1.9191,1.38554 -3.3619,3.42889 -3.8379,5.875 -0.4761,2.44611 0.059,5.21626 1.7343,7.89844 a 1.9999938,1.9999938 0 0 0 2.7539,0.63476 1.9999938,1.9999938 0 0 0 0.6348,-2.75195 c -1.2402,-1.98501 -1.4704,-3.64046 -1.2031,-5.01367 0.2672,-1.37318 1.0724,-2.54088 2.2656,-3.40235 2.3863,-1.7229 6.2238,-2.07951 9.5313,0.47266 2.3894,1.8438 3.5087,4.24321 3.4023,6.87891 -0.1066,2.63565 -1.5032,5.61437 -4.7246,8.3789 -1.7127,1.46986 -5.2295,2.3448 -10.541,1.43945 -5.3116,-0.90531 -12.2801,-3.5347 -20.5508,-8.46679 -8.2799,-4.93757 -19.5731,-12.25881 -37.9902,-16.75782 h 110.7226 l 11.3399,11.33985 a 2.0001938,2.0001938 0 0 0 2.8261,0 l 11.3399,-11.33985 h 4.4941 l 8.6309,8.63086 a 2.0001938,2.0001938 0 0 0 2.8261,0 l 8.6309,-8.63086 h 28.6406 c 4.1055,0 8.8194,0.99892 11.8848,2.92383 1.5327,0.96246 2.6357,2.11496 3.2402,3.4336 0.6045,1.31867 0.7834,2.85283 0.2149,4.92968 -0.5605,2.04794 -1.6491,3.20936 -2.9746,3.89844 -1.3256,0.68909 -2.9486,0.84282 -4.4004,0.51563 -1.4519,-0.32731 -2.6663,-1.12294 -3.3067,-2.125 -0.6403,-1.00207 -0.8838,-2.23045 -0.1406,-4.14063 a 1.9999938,1.9999938 0 0 0 -1.1445,-2.59179 1.9999938,1.9999938 0 0 0 -2.584,1.14453 c -1.1165,2.86956 -0.8158,5.6821 0.5019,7.74414 1.3178,2.06207 3.4748,3.3521 5.795,3.875 2.3201,0.52293 4.8684,0.29433 7.125,-0.87891 2.2565,-1.17313 4.1624,-3.35978 4.9902,-6.38476 0.7727,-2.82358 0.5611,-5.465 -0.4434,-7.65626 -1.0044,-2.19125 -2.7281,-3.87729 -4.7461,-5.14453 -4.0359,-2.53443 -9.2986,-3.54297 -14.0117,-3.54297 h -28.6328 l -8.6387,-8.6289 a 2.0001938,2.0001938 0 0 0 -2.8261,0 l -8.6387,8.6289 h -4.4785 l -11.3477,-11.3457 a 2.0001938,2.0001938 0 0 0 -2.8261,0 l -11.3477,11.3457 H 1465.8625 1440.0773 1414.3 1267.382 l -11.3457,-11.3457 a 2.0001938,2.0001938 0 0 0 -1.6387,-0.57226 z m 0.2207,4.8164 9.1016,9.10156 -9.1016,9.10157 -9.1015,-9.10157 z m 370.9317,0.008 9.0957,9.09374 -9.0957,9.09571 -9.1016,-9.09571 z m -398.2227,2.70117 6.3926,6.39257 -6.3926,6.38477 -6.3847,-6.38477 z m 425.5078,0 6.3926,6.39257 -6.3926,6.38477 -6.3867,-6.38477 z" fill="url(#b)" style="-inkscape-stroke:none" transform="matrix(.26458 0 0 .26458 -309.292 -24.017)"/></g></svg>