<svg version="1.2" xmlns="http://www.w3.org/2000/svg" viewBox="0 0 531 1080" width="531" height="1080"><style>.a{opacity:1;fill:#717071}.b{fill:#060606}.c{fill:#0c0b0c}.d{fill:#121212}.e{fill:#1c1c1c}.f{fill:#232323}.g{fill:#2a2a2a}.h{fill:#313131}.i{fill:#3c3c3c}.j{fill:#4a4949}.k{fill:#5c5c5c}.l{fill:#828282}.m{fill:#8f8f8f}.n{fill:#a5a5a5}.o{fill:#bfbfbf}.p{fill:#cfcfcf}.q{fill:#dedede}.r{fill:#f3f3f3}.s{fill:#fcfcfc}.t{fill:#fff}</style><path fill-rule="evenodd" class="a" d="m100 58l4-7h1l-2 14h2l-5 1zm23-2l4-1 1 10-6 2-7-5 7-2zm-56 24l3-10 6 2-2 1h-4v7zm69 19l4-7 3 1v16l-2-5zm-64 10l5-13h5l1 4 2 5-7 6h-6zm-1-10l2-1-1 2zm84 5l15-5 1 3-6 10-7 3zm-66 59l7-3 3 4-9 2zm92 62l-2-19 8 2 10 15 8 25 6 24h-10l-4 3h-1l-6-24-6-16-3-7zm5 109l2-10h4l-4 10zm-9 28l3-8h3l-4 15h-3zm-7 26l2-4h3l-2 10h-4zm-3 31l5-2v2l-2 1zm-125 72l9-1v9l-4 3v5l-7 3v-3zm162 32l-2 3-1-4zm-166 39v-6h1l2 18v2h-1zm88 48l-1-7-11-8 6-12 5-2 1-9zm67 85l-1-19h10l-1 26h-3v-4zm-111 64l-5-8 19 1 1 4-2 5-9 3zm21 40l12-3 11 29-18 1-10-22zm69 24l-1-4h1zm-99 27l-2-11h2l3 12zm121 68h-4l1-3zm55 1l4-1 3 5-4 3-5-3zm-13 9l2-3 4 1v8zm34 18l-8-3v-4l5 1zm132 122h4v-5l4 4v1l1 6z"/><path class="b" d="m172 4l8-2h3l5 1-1 4 5 3 1 6 16 14 1 10-1 5h-4v-3l-5 2 1 4h-2l-3-1-2 4 4 9v8l1 4-1 1-13 2-5-8-8-1v-6l-6-3-7-3-2-5h-9l-8 1v-6l-3-2-5-7 1-5 12-14 15-7 8-1zm-52 154l11-4 4-4v-5h1l6 1 8 1h1l1 3-8 13-1 4 1 8-7 1v-6l-1-4-2-4-12 6h-17l-2-4zm36 36l3-3 28 8 4 5-4 4-8-2-11-2 5 9-2 2zm55 78l-6-24h6l21 53 6 23 4 41 1 3 4 36v4h-5l-10-36-8-40-10-51-1-3zm-49 43v-1h7l-1 6-4 40-5 28h-6v-8l5-40 2-12 1-7v-3zm30 9l1-2 10 1v3h-4l-1 4-3 14v14l-2 1-2-1-1 5-10 35-1 3v2l-1 3h-6l-4-2v-2l5-8 2-10 4-15 4-15 5-20zm-78 50v-22h7l3 6 8 23-7 1-4-11-2 9h-4l-1-2zm66 31l10-8 3 3-9 10-4-4zm26 22v-3h3 6l2 5-7 4zm-45 67l-11-11 3-15h9l18 20 11-3 6-11h8l1 2 3 10 1 12-1 9 1 6-1 10h-5l-3-1-16-1 2 15 14 10h9v3l-1 14-12 1-10 7-3 15-25 37-13 7h-17l-2-4-1-10 6-1 9-13 6-1 5-11v-10l-20-16v-10l2-5 14-5 21-11 1-15-6-19 1-4zm-139-11l18-13 2 3-6 10-2 6 1 4v6 3 6 2 6 4l-1 9 1 4v3h-5l-4 1-3-3v-9l-1-3-2-15-1-6v-1-4zm-11 48l7-2 4 6v3l-3 1-4 3zm25 77l-2-27-6-8-2-11h12l2 14 1 8 1 7 1 17zm25 32l3-42h8l2 45-2 29v4 44h-18l-1-9-1-4v-4l-1-3v-3l-1-4-4-23 10-2h1l2 10 2-6v-3-9l5-2v-10l-6-1zm-5 157l1-7h8l3 14v2 2l1 5v5l1 6v9l1 6 2 11 1 14v8l-8 16-4 1-1 5-1 11-1 6-2 19-1 20-1 5-5 33-21-2v-2l1-3 10-53 4-18 2-7 1-7 3-3-1-5 2-17 1-6 1-25 1-3zm30-5l6-2 2 6 4 8 10 22 2 8-8 5zm-14 30l4-1 2 4-1 5 2 7 8 27h-7-1l-3-13-3-12-1-7zm190 117l-2-20-8-12v-8l6-2 26 28 24 30 48 30 15 17 7 10 42 2 24 5 14 3h2l2 3 17 1 10 6v9l-4 5-8 2-21-6-7 1-3-3-14-3-26-9-12-1-3-3-15-2-18-2h-6l-6-1-6-1-31 1-6-1-16-3-1-12 16-3 2-10-7-3-2-13-6-6-11-9-8-1-1-3 1-9-3-6zm-148 38l12-10 29 62 6 7 12 6 10 12v4l-4 1-33-14-13-15-3-7-2-3h-6v-5-7l-8-24z"/><path fill-rule="evenodd" class="c" d="m128 44l9-2 3 2v6l-13 5-4 1-1-3 8-3-3-2zm0 21l18-2-1 13-1 1v3l-5-1-11-5-2-4h-6v-2l2-1zm29 21l5-2h8v15l-15 5-9 6-3-1v-16l-3-1 1-2zm-81 8l2-4 10 1 4 5v2l-1 2-1 1-7-1-1-4h-5zm61 13l-7-6-1-9h2l1 6 4 1 5 5-2 15-2-2v-4zm21 8l7-3 6-10h16l3 14v4l-5 6-8 3-5-2v8l-5 3-1-2 3-6h-4l2-6-8 3h-1-2l-1-2 2-2-3-1v-4zm-10 4l3-1 1 4-7 8h-6l-4 4h-3l3-7 9-1 3-4zm-52 68l-4-13-21-10-3-8h3l12 8 7 2 9-2h4l2 4-10 4 4 14h3v4l-2 2h-3zm48-12l9-2 1-3 3 2v1 2l-4 5h4v3l-5 3 7 5-3 3-5-4-16 4-1-2 2-2 7-3-3-2v-2l-3-7zm30 3l2-1h3l1 2v1l-1 2-5-1zm13 30l4-4 2 2 11 13v3l-4-3 3 7 8 22h-6l-8-25zm10 95v-3h7 1v5l-1 3-1 15-10-1 5-13zm-35 11l2-10h5v10zm-49 27v-16h3l2 13 3 14h-7v-4zm80 18l2-1 7 20 2 1v-3h3l1 14 1 12v22h-3v-17l-1-16-12 9-3-3 11-8-8-26zm-125 17l4-2 3 11-5 4-2-2zm47 8v-4h4v18l-1 16-4 3-3-3v-2l4-13zm10-2l7-1 11 23h-5l-6-9zm25 25l3-19h6v2l-1 16 5 8 3 2 1 3 3 1-2 5 3 1 3-3-2-4v-2l-1-4 1-7h6 2l4 4-1 2-4 3 3 6v5l6 7 4-2 2 3 12-7 4 6-13 7 2 8-1 8 2 8 4 1 1 3v4 2h-8l-6 11-11 3-18-20h-9l-3 15 11 11v5h3l6 19-1 15-21 11v-7h4l5-6 4 2v-4l-6-2-1-3v-17l-6-7v-5l-9-8v-18l4-4 3-12 16-18-2-7h-6l-4-4-2-6 1-7zm-110 20l15-21 5 1-4 9-6 10-31 46-5 6h-3l-2-3 13-13 2-10 7-11zm202-17v-2h5v2l-4 2zm-27 14l18-8 1 3-17 10zm-175 46l12-11 3 3-13 11zm-29 61l-6-11 4-24h3v6l-1 13 7 14zm199 15h-9l-14-10-2-15 16 1 1 4 2-3h5zm-180-7v-3h5l1 8 2 12v6h-12l-2-8-4-11-1-4 3-1 3 3 5 17 1-8-1-7zm95 17l7-2v10l20 16v10l-5 11-6 1v-2l3-4-1-14-11-8h-6v-2l-1-6zm2 70l2 4h17l13-7 25-37 3-15 10-7 12-1v29h-7l-2-4h-5l-1 7-4 4v5h-7l-5 6-6 3-11 16-12 9-7 1-2 7h-6l-8-5v-9l-3-3zm-63-32v-2h8v6h-8zm-18 76l-10-62h7l2 9 2 13 2-3 3 1 2 15 2 14v3 8zm156-28v-2h6l-2 16h-4v-6zm-142 16v-11l6 1v10l-5 2zm-4 80l-2-18h18l2 3v2l-3 3-1 12zm28 44v-5l4-2 4 15-6 2zm-27 6v-6l9 2-1 6h-8zm45 51l8-5 5 6v8l13 21 5 12-1 12 5 9 12 20 4 4h5l1 10 8 9 3 11 8 5 3 9 11 11 2 3-3 6-22-12-11-19-6-9-1-1zm138 56l-2-14-12-20 2-7 14 17 16 26-6 2v8l8 12 2 20v4l8 3-1 9-3 2h-1l-3-1-8-4-1-2-2-3 3-2-2-19 4-3-3-5-4 1-4-3-3-10 2-7zm-166-23l6-2v-6h7l6 18-9 3v13l-9 2-5 12-6 2-1-17-1-3v-5l4-1zm40 105l-6-14-2-19-12-31v-6l7-1 3 5 22 56zm156-15v-4l8 1 11 9 6 6 2 13 7 3-2 10-16 3 1 12-25-8-28-1-6-4v-1-9l6-1 16 1 2 4h14l16-3 5-4 1-7-5-11zm-208 19v-3l4 1v5l-1 8-1 24-1 5v5l-1 9-4 1-1-16v-3l4-33zm-34 12l1-7 21 2-1 14-13-2-1-5z"/><path class="d" d="m99 47l2-3 3 1v6l-4 7-2-3zm-14 6l7-8 3 2-4 8 4 6-6 6v-1-3l-4-6zm21-4l4-1 4 6 8-1 1 3-1 4-7 2-2 1-3-1-4-2-1 5h-2l2-14zm40 14l2-1h4l1 13-8 1zm-67 4l2-2 2 5-2 5h-1-3l-3-2 2-1h3v-3zm90 2l3-3 8 1 5 8-3 13h4l1 14h-16l-1-3v-15l-3-8zm-91 21l4-11 3 2 5 2 3 9-5-1zm-30 9l3-7 6-1h4l8 5 7-2 1 2-5 13-2-1 2-8 1-2-2 1h-1-4l-6-4-6 2-3 3zm37 6l-2-5 7 1-1 4zm-18 28l1-5 2 1v9l-1 5v9l-2 2zm44 57v-2h2 11v2l-7 1zm-17 10h3v-8h3l2 6v7l-16-2-3-1 2-3h4zm32-5l5-3h3l1 2-3 2-6 2zm-74 11l8-4v4l-5 3zm142 75l3-2 3 16 4-1v6h-7l-1-7zm-30 23l3-22h3v15l-1 5v2zm-53 2v-10l3 1v3l1 19-3-1zm-57 32l-5-6 5-9 1 8zm12 26l3-2 3 12-4 2zm138 12v-11h2l1 11zm-50 57v-5h6l2 7-16 18-3 12-4 4v18l9 8v5l-8-2-7-8h-5l-1-18-1-11 14-11v-6l10-5h5zm-102 26l13-9 3 4-13 8zm96 78v-10l6-3 1 3 2 4-5 6zm-82 17v-18h6l-1 18zm60 32v-12h6l11 8 1 14-3 4h-5l-3-4v-9zm-59-5v-1h5v6 4 2h-8zm73 65l2-7 7-1 12-9 11-16 6-3-2 12-9 11-21 13zm62-6l1-12h5v12zm-146 104v-6l14 2v7l-1 2 1 16 1 6v11l-5 2-9-2v-35zm158 111l-5 1-4-4-5-17 3-13 7-3 12 23 6 12-2 7 12 20 2 14-5 4 7 7 3 10 4 3-2 4 5 3 2 19-3 2-2-1-7-8v-4-8l-4-1-2 3-4-4v-14l-4-3 2-22-4-12 1-3-5-2-3-7-1-6-2-2zm-56 71h-5l-4-4-12-20-5-9 1-12h4l1 5 2 9 10 7 4 8zm-94-12l6-2 5-12 9-2v-13l9-3 8 24-7 1v6l12 31 2 19 6 14v7h-6l-4-4-1-18-3-4-13-26h-15l-2-1v9 3l-1 4v11l-1 3h-2l-1-3v-2-3-2-7l-1-15v-14zm203 49l3-1 13 9 5 11-1 7-5 4-16 3h-14l-2-4v-4l10-1 6-5 2-2-2-8zm-76 27l3-6 11 3 23 5v9h-6l-12-2zm-164 9l1-6 7 2 1 5z"/><path class="e" d="m211 47h6l2-3 1 6-9 1zm-10 13l-2-12h2l3 5 1 8-3 1zm-123-3l7-4v4l-5 2zm74 5l5-3 7 1v10l-11 5zm10 18l5-4 3 8h-8zm-77 31l1-1 2 2-9 13-3-1 1-5zm66 36l10-9h2l1 2-12 10zm16 135v-8h3v8zm31 48l1-4h4l1 10 1 3v5h-3l-1-12zm65 14l-1-4h2v1 2zm-208 62l13-19 2 2-10 18zm83 2v-4h5l3 4 3 3-1 7h-6v-7zm-33 12l6-6 3 3-1 6-8 2-3 2-2-1zm19 32l9-7 7-1v6l-14 11-1-4zm-59-2l5-1 2 2v1l-4 2zm62 46l1-6h5l7 8 8 2 6 7v17l-6 3v10 7l-14 5-2 5-7 2v-16l1-3 8-5 1-7 9-5v-11l-10-9h-7zm-61 40v-14h5l1 4v10zm0 35v-17h5l3 3v10l-2 13h-5v-2zm60 35v-20l7 1v9l3 4-2 6zm76-10v-4h7l-1 36h-5l-2-12 1-14zm-24 14l5-6h7l2 1v11l-2 14-11 3-4 1v5l-1 5-10 10h-9-5l-4-2v-6l21-13 9-11zm24 66v-20h4v4 56h-4l-1-14zm-132 64l1-12 3-3 2 9h3l3 12-6 3-6-2zm119 88l4-17 14-6 3 14-7 3-3 13 5 17 4 4 5-1 5 6 3 7-1 3 5 2 4 12-2 22 4 3v14l4 4 6 6v4l7 8-1 2h-6l-14-16-5-7-11-11v-5l2-5-5-2-3-8h-8l-1-10-4-2-11-14 4-24 2-4v-8zm-31 98l-4-16-4-8-10-7-2-9 11 1 14 13 3 10-2 17 8 10 2 8 8 3 1 10 12 13 11 1 3 8 21 2 4 4v5l-6 1-23-5-3-4-10-2-11-11-3-9-8-5-3-11-8-9zm-85 12l-1-6h15l13 26-23-2zm177 50v-11l10-1 6-4 2 8-2 2-6 5z"/><path fill-rule="evenodd" class="f" d="m208 51l-3-6h4l2 2v4zm-44 9l2-3 6 3v6l-3 3-5 1zm-44 10l-8-2-2-6 3 1 7 5zm13 72l-1-8h3l1 5 1 3-1 3h-1zm48 18l1-2h2l3 1 8 2 1 4-2-1zm-2 13l1-1h1l3 1-7 2-1 1h-4l2 2v3l-17 2v-3l6-2-6-3v-2l13 3zm0 4l16-1-1 2-14 1zm20 11l1-2 6 2-1 2zm-79 9l6-2v3l-6 2zm62 39l2-1 6 16h-3l-1-1zm80 104l-3-14h2l3 14zm-60 6v-2h3l1 12v9h-2zm-36 59l2-1 4 2-1 7-2-3-3 6-3-2zm67 11l9-6 1 2-9 7zm-111 26l10-2 18-16 4 4v5l-4 2v4l-10 5-7 1-9 7-1-2zm-52 7l7-4 2 1-1 2-6 3zm3 3l12-1 1 4 13 1 2 15v6l1 25-13-2-5 8h-10l-3 14h-5l2-10v-8l2-15v-7zm-63 32l1-6h3v5l-2 13h-3l1-10zm116 31l1-15h7l10 9v11l-9 5-1 7-8 5h-1v-19zm-54 65l2-13h6l3 14-7 5h-4zm54 26h8l2-6h5v2l-9 13-6 1zm49 33l4-1 5 4 1 8 5 2 2 24 1 19-4 4 4 4 8 76 3-23h2v8l1 41-14 6-4 17h-3l2 4v8l-4 2 2 2-4 24 11 14-2 8 7 4h8l3 8-1 4 4 3v5l11 11-1 6-7 1-3 6h-3l-2-1-6-2 3-4-10-12v-1l-3-3-25-39-6-5-3-6 3-1-2-7 12-4 8-8 4-18 2-4-5-4-1-9-4-5-2-4-5 2-7 4-5 1-20 2-8-12 3-6-1-9 1-1h6l15-11 3-19 4-1-3-3-2-19-5-2-2-23v-41l4-4h4l1-5h9l10-10zm28 91l-1-14h4v14zm-123 2h14l3-4h9l-1 16v6l-9 2-19-1-1-1v-1l6-3-3-12zm-6 140v-8h6v6zm63 9l4-5 14 2 8 17 24 27 7 11-11 5-1 10-8-3-2-8-8-10 2-17-3-10-14-13-11-1zm-54 99l-6-24 23 2 3 4 1 18h-4l-3-4-5 4zm146-16l2-4h6l5 6 15 3 6-6h4l-1 9-6 4-10 1v15l-16-1v-5l-4-4-21-2-3-8 8-10 8 3 4 1 7 3zm-115 94l-3 4-11 3-3-13h15z"/><path class="g" d="m202 62l3-1 1 7-7 4-1-4 4-1zm-53 76l9-5 1 1v2l-10 6-6 3-1-4zm5 32l9-11 2 2-8 11zm-52 20v-4l9 2v2zm22-2l5-2h3v2l-2 1-6 1zm-64 14l15-3v4l-5 1-10 2zm99 43l2-3 2 4 7 23v5h-3zm33 26l-5-20h3l5 20zm-131 81l-1-4h7l2 14-3 2zm57 80l9-1 15-13h6l2 6-18 16-10 2-3-3zm-33 19l14 3v2l-13-1zm-14 71l3-14h10l5-8 13 2 1 26h-7l-6-5 1-4-4-2-4 3 1 5-12 1zm9 45l3-3 21-2 1 4v1l-1 5-1 5v6l2 10-2 4-3-3-19-1-4-4-1-3 7-5zm114 28l1-7h5l2 4v4zm-15 38l11-3 2 12v8l-2 2-5-2-1-8-5-4zm-74 51l-19-5-4-6 2-10 10-7 3-8h6l3 20-2 7 1 3zm-25 43l6-6h5l7-9 6 1 2 15h-9l-3 4h-14zm50 47l10-8 4-32 4-7 5 2 2 19-1 4-3 19-15 11h-6l-1-2v-3zm74-18l-1-26h3v26zm-44 51l7-4 7 2 4 5 1 9-4-1-3 1h-1l-10-3zm-25 3l20-2 2 10-5 3-2 8v5l6 4h10l6-6v-9h2 5l3 4-4 18-8 8-12 4-1-1-4-9-3-5-6-6-1-6zm74 128h3l3-6 7-1 3 3 3-2 14 16h6v3l2 6 4-5 8 4v1l-2 3 3 3-6 6-15-3-5-6h-6l-2 4h-2l-3-3-11-15zm-27 10l1-10 11-5 11 22 9 7-8 10-11-1-12-13zm-118 21l1-8h1 2v1l-1 7zm22 34l-3-23h9l4 7h3l1-7h4l4 4h6l8 24-3 7h3v5h-7l-4 4-6 2v4l5 4v5l-1 6 3-4 16-3 5-1 3 13-2 7-11 4h-6l-3-3-2-6h-15l-2-11-1-3-4-29zm285-1l9-6 26-2 14 8v12l-42-2zm-346 5l2-8 9 1 13 2-2 9zm419 12l1-5 5-3 8 11zm-50 8l-2 3h-14l-2-8 15 2z"/><path fill-rule="evenodd" class="h" d="m157 59l2-5 7 3-2 3zm-11 23l1-3 15 1v4l-5 2zm-95 18l-5 4 2-5zm128 82l1-2 14 4-1 2zm-47 4l8-3v2l-4 2-4 1zm-22 12l10-1v3l-13 2 5 4h-6l-4-1v-7zm94 21l16 18 7 13-1 1-22-27zm-11 57l3-1h1v4l-3 2zm-75 138h5l7-6h8l4 3v7l-15 13-9 1-1-6-4-3 1-6zm-34 111l4 1 2-3 6 5h7l1 34-21 2-3 3h-6v-10l-3-3 1-18v-10zm-12 65l5-1 4 4 19 1 3 3 2 26-2 25h-6l-3 8-10 7-2 10 4 6 19 5-1 29-6-1-7 9h-5l-6 6-3-5-3 1-2-3v-44l5-1-1-4-4 1 2-29-2-45zm118 14v-5l4-4 8 1v6l-10 3zm0 26l2-14h9l2 12-1 12v2h-10zm-64 24v-13l8 5v6zm0 73h6l6-5 4-17 4-1 2 23-4 7-4 32-10 8h-1l-2-20v-3zm-42 55l-2-23 4 5 2 11-4 2zm73 36l4-2 10 3 1 4v9l-6 6h-10l-6-4v-5l2-8zm-29 51l7-7h10l10 16-14-2-4 5h-4zm228 116l4-6 11-6 5-9 34 21 28 15 12 10v1l-5 3-1 5-24-5v-12l-14-8-26 2-9 6zm-294-7l2-9h3l-1 10zm-44 69l7-40 22 4-5 31-4 18-22 3 1-13zm93-23l4-4h13l2 3 1 7-3 8-16 3-2-2v-5l5-4zm247 7v-11l18 2 2 8h14l2-3 12 1 26 9-5 8-9 2-4 7-8 5v9h-6l-6-5 1-4-7-7-23-16-5-4z"/><path class="i" d="m110 48l18-4-1 4 3 2-8 3-8 1zm-14 14l2-7 2 3v6zm43 17l5 1v-3l3 2-1 3-4-1-1 6h-5v-2l4-1zm-47 17l-4-5 5 1zm-24 32l2-20 2 1v2 8l-2 10zm67 6l4-4h6l-2 3 3 2 3-3h2l-3 5-6 2h-6zm28 25l9-3v3l-7 2zm31 19l1-2 14 4 9 11-1 3h-5l-7-4 1-2 8 3-4-7zm-1 8l1-2 6 2-1 2zm-118 13h10l-2 3-8 1zm118 77l-1-5h3l1 4zm-138 39l7 1 14 19 1 8-10 5h-7l-3-4 3-3v-8l-5-2-1-8v-6l1-1zm58 10l-1-7 3 1 1 6zm6 73l13-3 6 9v4h-8l-7 6h-5zm-42 47l12-9 2 1-7 7-5 2zm127 20l-4-1-2-8h4zm-169 37v-3l1 3zm157 103l10-3-1 14h-9zm-58 47v-6h6 6v6zm-8 35v-9l20 4v22l-4 1-4 17-6 5h-6l1-35zm15 148l-2-4 4-1 1 6h-2zm-26 5l3-4h12l15 26h-10l-7 7-13-21zm169 85l8-5v-10l3-3 81 57-5 9-11 6-4 6-48-30zm-92 56l10 2 3 4-11-3zm214 82v-4l8-5 4-7 9-2 5-8 14 3-6 3-9 7h-4l-1 3-6 7-5 1-5 6zm-390 0l22-3-2 9h-8l-3-1-8-1z"/><path fill-rule="evenodd" class="j" d="m148 62v-13h9l2 5-2 5-5 3zm-69 5l-3-3 2-7 2 2 1 6zm6 4l1-1 2 1-1 5-2 5-3-2 1-3zm100 4l13-2-2 7h-4l-6 8h-4zm-56 17l1-4 6-3v2l-5 5zm-39 9l1-1 2 4-5 8-2-2 3-5zm49 18l-2 2v-4zm10 13l6-7 1 2-5 5zm-25-2l11-3-3 7 1 8-9 1-4-5zm39 8l3-2 1 2-3 2zm-96 16l2-2 2 4h-3zm104 61l2-2 7 12 1 3 3 7-2 1zm-19 12h3l6 15-2 3zm-41 69v-15l3 16zm148 30l-6-23h2l6 23zm-99 2v-7h1zm-106 10l1-7 5 2v8l-3 3zm65 42l2-9 4 11 7 13-13 3zm-16 8l12-4v15l-4 13-7-14zm43 20l4-1-1 4zm46 23l-4 2-6-7v-5l2 1zm6 25l1-8 3 8zm12 42l-1-12 4 10zm-172-3l4-4-2 16zm7 122l2-7 7-6 1-8 9-2v4l-3 42-7 3-2-15-3-1-2 3zm147 33v-8h10v8zm-66 4l8-2h12l4 2v5l-4 4v19l-20-4zm-30 98l9-2v3 5l-3 1-5-3zm12 74l18-1 4 11h-12l-3 4-5-6zm-34 38l-1-14 3 1 3 13zm184 33l-16-26 23 13 4 6h4l22 17-3 3v10l-8 5zm-211-1l2-8 1 5zm306 128l-1-4h6v11l-1-2z"/><path fill-rule="evenodd" class="k" d="m201 48l-1-4 5-2v3l3 6-4 2zm-61 2l8-1v13l-2 1-18 2-1-10zm-45 11l1 1 4 2v2l-4 4-8 1-2-1zm-38 30l4-1v1zm89 19l9-6 3 11-4 3-2 4-1-4-3 1h-1l-5-1 9-1 2-4zm12 23v-6h1l1 3-1 4zm-21 9l-1-3h6v2zm35 17v-3l8 1 2 1-1 2zm-70 27h-3l-4-14 10-4h17l-2 6-8 11 1 3h-2zm-2 6l2-2h9l6 1h-6l-1 7h-8zm126 59l1-1 17 26 11 27h-2l-5-10zm-165 101l-5 5h-5l-11-22-1-8 5-6 10-4v6l-5 9 5 6 3 6 3 4zm202-8l1-1h1l3 17-3-1zm-91 40l4-15h3l-4 15zm-70-1l1-3 11-2 1 2v4l-12 4zm65 17l2-6h4l-5 8zm-116 90l2-2 14 2 2-1h1l-2 15-4 1v5l4 2-2 10v49l-2 9 3 1-3 11v2l-9 2-1 8-7 6-2 7-2-9-1-17 5 2v-5l-2-15-5-63 7-3v-5l4-3zm159 23l-1-6h1zm-20 139l2-2h10v26h-10zm-134 16v-8l1 8zm13 81l1-2 6 2v1zm-3 35l5-2v20l-3 2-3-14zm4 49l2-1 1 7h-2zm142 76l-4-3 1-4 5 2zm-147 52v-3l1 3zm163 41l-6-1h6zm119 20l-1-3 6 1 1 4-2 2zm73 38l6-7 2 3 3 5-10 2z"/><path fill-rule="evenodd" class="l" d="m198 60l-4-9 2-4 3 1 2 12zm-110 11l8-1-4 6h-5zm98 17l6-8h4l-4 24-2 12-3-14zm-114 31v-8h6l-2 7zm46 12l6-1-4 8zm69 38l7-5 2 1-11 7 1-2zm10 106l4-3h10l2 6-2-1-5 11-1 12h-1v-6l-4 1-3-16zm-142 40l-2-21h16l3 8 18 76 1 15-31 25-4-2 4-9 10-18 5-4-3-11-3-12-2-14 10-5-1-8-14-19zm133 5l4-17h5l1 6-5 13-1 2h-4zm-8 34l6-20h2l-5 20zm15 4v-14l5 4 2-2 2 19v11 3l-2-1zm11 7v-9l3 5 7 11 5 12-5 6h-8l-1-14zm-74 16l-8-23 21 2 2 17 3 3 2 7v-7h1v8l-3 19-4 1-3-4zm-31-4l13-3v4l-11 2-1 3zm4 43l-1-22 7 14v2zm0 5l8-2 4 3 1 6 1 7h-4l-7-1v-11zm-16 11l6-6 1 2-5 5zm-75 42l5-6-2 10-3 1zm191-4v-2l1 4zm-152 10l4-7 6 5 4 8-14-2zm16 5l1-3v3zm95 10h-3v-5l4 1zm-7 32l-2-4 6 2v4zm-119 25l-2-12 3 12zm168 160v-56l9 3 1 9v90l-10 2v-8-26zm-13-13l5-1h3l1 14 1 14 1 26-3 23zm-91 56l3-1v-5l1 10h-4zm-46 38l1-9v2zm14 27l2-2v10l-2 1zm7 6l1-5 6 13-2 2-2-6-1-5zm109 14l-2-2 4-2zm36-2l25-2 7 8 5-1 17 14 7 11 14 8 5 9 31 28 8 11 69 57-34-21-81-57-22-17h-4l-4-6-23-13-14-17zm-70 13l5 1 1 1 2 7-3 1zm90 51l-7-7 5-4 4 4zm24 51l3-2 1 3v4l-3 1 2-4zm-4 0v-1l3 1zm-140 58h-3l3-7zm309 35l9-7 1 6-4 5-6-2zm-37 13l-6-6v-5l7 7z"/><path fill-rule="evenodd" class="m" d="m198 68v-8h3l1 2v5zm-51 54v-3h1zm-23 21l9-1 2 3v5l-4 4-11 4zm-41 21l6-1 1 3zm-37 97l15-2 8 35h-16zm146 42l4-10 1 7v3zm-71 49l-3-14 8 1 6 7 9-1 4 15-21-2zm-11-4l3-7 1 7zm98 42h8l5-6 4 5v6l-16 7zm-15 10l12-9 1 16-3-1-9 9-7 1-4-4 1-2zm-27 5l1-5 1 2v2zm-116 21l6-10 4 2-6 8zm45 4l5-4 2 1-6 5zm13 12v-4l7 1-1 3zm-24 3l9 2 2-2 4 9-14-3-12 1h-1v-1zm-46 40l15-1v4l-2 2-9 1-4 4zm-23 57l4-3 1 4-2 7zm194 21l1-14 10 1v11l7 6 1 41-6 27 4 43-2 9 2 3-3 58 6 4-3 1v10l-2 26-1 14-5-1v4l-1 2 15 13 27 26-5 1-7-8-25 2-12-23-3-14-1-41 10-2v-90l-1-9-9-3v-4l2-16v-12l1-36zm-167 28l-1-7h3l3 4v5zm133 48v-5l4-1v5zm-80 122l2-5 5 3v4zm34 22v-3l1 2zm-31 21l-4-8h6l3 3zm90 28l-2-4h3zm26 23l2-2 2 2 1 6zm12 18l-5-2 1-3 5 2zm121 149l-7-4 6 1zm63 45l5-6 5-1 1 3-5 5h-6z"/><path fill-rule="evenodd" class="n" d="m113 63l2-1 7 5-2 1zm-28 18l2-5h5l-2 7zm11 79l5-5 3-10 4-1 10-13 2 7 4 5-4 15-17 6h-4zm41-18l5-1 1 4-1 1-6-1zm44 30l5-2-1 2-1 1zm-7 6l-2-2h4v1zm-131 65l14-1 1 2 3 15-15 2zm54 107l13-2h4v4 22l-13 3zm81 56l1-3 1 2v1zm-8 14l2-1 2 4-3 3-3-1zm-168 60l9-23 16-18 4 2-7 11-2 10-13 13 2 3-1 6zm114-26l-7 3-1-15h6l2 8zm-15 23v-6l1 3zm109 21l3-2 1 4-4 1v6h-1zm-175 10v-6h1zm175 5v-5l4 1 1 6 7 8 7 29-1 14-1 1-7-6v-11l-10-1v-3l-1-23zm-85 27v-3h1zm-84 44l-1-8h1l3 8zm113 168l1-4 3 3zm-25 25v-3h1zm-29 19l3-10 9-2 3 12-12 3zm-32 8l3-2 1 5-4-1zm80 41l-6-9h2l6 6zm2 4l3-2 4 9-5-1zm11 28l-1-6 6 5zm37 17l-7-4 2-8 4 2zm-137 0l1-5v5zm3 21l-1-18 1 17zm142 27l-3-1v-3l3 1zm42 6l1-2 2 1 2 3-5 1zm-180 13l1-3-1 4zm372 82l6-3 3 3 7-1-10 2-5 5zm-14 10l1-3h4v2l-3 4z"/><path fill-rule="evenodd" class="o" d="m180 2l2-1 1 1zm10 114l2-12 3 11-5 5zm-48 23l6-2 1 1-7 3zm-7 73l3-4 9 2 8 8 8 28-2-4-6-15h-4zm46 16l-1-3h1zm-139 10l2-4h12l1 8-14 1zm73 81l-1-19 22 2 3 35 19 3-5 40h-3l-3-3-2-17-4-15-9 1-6-7-8-1-2-13zm-22-5h7l3-8h8l1 12 1 7v16l-3 7-13 2zm171 29v-2l1 2zm-74 20l1-5 2 1v4zm-24 53l3-6 2 3 1 4-5 2zm-52 26l1-3h4l3 3 1 8h-7zm-95 60v-1l1 6zm3 33l1-1 3 3 4-1v3l-5-1v3l-3-3zm32 108l7-3-1 7v11l-4-1zm172 47l-2-3 2-9 4 1v4zm-140 74l9-3 7 2h4l6 21-9 2-3 10h-6l-2-6-4-15zm81 39l5-2 2 4zm51 3v-4l5 1zm-141 24l2-1 1 5-1 3zm-7 110v-9l2 1 1 6zm88 19h-4l-2-9zm327 57l4-2 10 1 18 5 2 6-1 2-7 1-2 11-12 14-4 3-16-9 8-2 4-5v-9l-10-6zm-354 14l-1-7 3 7zm220-4l2-2 4 5zm-239 15l-3 4 1-6z"/><path class="p" d="m104 51v-6l2 4-1 2zm53 129h-4l4-5 6 3zm-33 10l6-1 1 3-5 3-6 2-10 1 1-7h6zm2 8l6-2 6 12-3 4-10-5-13-1-5-4 13-2zm77 28l-3-7 4 3v2zm-159 8l2-8h9l1 8zm48 44l25-2 5 6h8l6 20-22-2v-3l-3-16v15 10h-8l-3 8h-7zm58 161v-4l4-2 1 6zm-71 7l5-2v1l-6 3zm37 8v-4h7l1 2 1 5zm-44 136v-4h4l1 3zm2 133l3-1 3 5v5l-1 2h-3l-2-9zm148 208l1-6 5 7-3 2zm-16 8l1-2 2 1 4 8-7-4zm20 27l1-2h2l4 5zm257 48h6l-4 2zm26 26l2-11 7-1v8zm-98 34l-1-6h6l-1 6z"/><path fill-rule="evenodd" class="q" d="m81 75l2-5 2 1-2 5zm71 47l2-4v4l3 1-2 2-6 7-3 3-3-2 2-3zm7 5l8-3-2 6h-5zm-8 5l5-5h2v6l-9 5-1-1zm-2 10l10-6 2 2-10 9h-1zm-36 46l-1-3 8-11 5 11 4 1-5 2zm19 0l4-1v3l-2 2h-3l-1-3zm-40 84h5l12-14h8l8 8h7l-2 16h-8l-5-6-25 2zm60 108v7l-2-7zm30 41l-3-6 4-3 4 4-3 1v5zm-115 69l-4-8h7v4l-1 3zm1 22l-4-2v-5l4-1zm16 13l-1-5 4-3 4 2-1 4-2 3zm-17 56l-3-1 2-9 1 7zm-26-7l4-1 2 15-3-4-3-8zm109 80h5l-1 5h-4zm-94 6v-3l4 1 1 2v12l-2 6-2-10zm118 163l1-5 4 1 5 4-2 4-3-4zm-26 22l2-3 3 5-3 2z"/><path class="r" d="m164 70l5-1-2 7-5 4-15-1-3-2 1-1 8-1zm-23 17l1-6 4 1 11 4-16 4zm-63 24l7-6h4l-3 5-1 1-8 8-1-1zm58 76l4-2 3 2-7 3zm-44 85l-2-19 4-12 5-5h14l11 7 7 9 1 14h-7l-8-8h-8l-12 14zm67 116l5-28 13 2-1 7-4 15-2 4-11 2zm-159 98v-6h2l8 4v2zm14-3l3-1 5 1-3 13v4 1 1h-7v-6zm20 6l2-6 2 2v10l2 12v3l5 63-4 1-2-18-3-12-1-8v-3l-1-4 1-9v-4-6-2l1-6-1-3v-6zm-9 52v-3l5 1v4l1 7-1 8zm47 131l4-1 1 4-5 1zm121 31l-4-4 4-4 5 3v4zm-38 105l5-1 1 9-4 2zm17 11l3-1-1 5h-2zm-11 58l5-1 25 39-1 3h4v1l-7 3-24-27-8-17zm-101 28l1-11h1l1 3 1 18v14l-7 1 2-19zm188 46l5-1 1 2-4 5zm15 12l-3-3 2-3h3 1l3 2-2 4zm-41 2l2-4 3 3-1 2zm-130 15l5-4 3 4-1 7h-3zm368 42l4-5 19-3 2 2-6 10-17-1zm-350 12l-5-4v-4l6-2 4 6zm408-6l1-2 6 2v6l-5 7-9 8-14 5 12-14 9-4z"/><path fill-rule="evenodd" class="s" d="m160 9l-2-9h24v1l-2 1-8 2-4 4zm49 36l1-5h7l2 4-2 3h-6zm-114 16l-4-6 4-8h4l-1 8-2 7zm116-10l9-1 2 8-10 10h-6l-1-7-1-8 4-2zm-131 8l5-2 4 6v3 1l-3 3-1 1-2-1-2-5zm25 6l1-5 4 2 2 6 8 2h6l2 4 11 5 1 5-4 1-6 3-1 4 1 9 7 6v6 4 4l2-2 2-15 2 5 3 1 7 3-2 4-9 1 5 1v3l-3 4-9 1-11 3-6 1-10 13-4 1-3 10-5 5-7 3-6 1-12-8-2-4v-9l1-5v-9l2-10 4-1 1 1-1 5 3 1 9-13 5-8-2-4 1-2v-2l1-4-3-9 2-7 4-6 4-4zm-38 15h3v-7h4l3 2h3 1l2 1-1 3-4 11-2 4-7 2-8-5v-1zm64 12l5-5h5v3l-1 2-4 7-4-1zm-77 5l6-2 6 4h4 1l1 1-2 8-2 20-1 5-5-1v-27zm113 41l5-3v-8l5 2-1 15 4 3v10l-8-1-9 3-9 11-1 3-9 2-1-8 1-4 8-13 12-10zm-8-4l1-4h5 4l-3 6-3 2h-2l-2-2zm-16 11l6-3 1 5-8-1zm22 16l7-2 9 1 13 4-7 5-1 1-5 2h-1l-1 1-9 3-13-3v-1zm-43 7l12-6 2 4 1 4v6l3 7-8 3h-3l-4-1-5-11zm63 4l11-7h5l9 9-1 6-14-4-16 1h-3v-1l1-1 7-2zm-5 7l14-1 16 6 4 7-8-3-6-2-6-2-14-4zm-23 4l17-2 5 1 14 4 6 2 6 2 7 4-6 8h-7l-6 4-2-2-4-5-28-8-7-5zm-22 11l16-4 5 4 15 21 11 21 4 14-5 2v13l-11 4-7-23-8-28-8-8-9-2-6-12zm-75 12l10-2-2 32-10 8-1-2-1-8-1-8h-9l-2 8-2 4-8-3 2-25 3-4h13l3 3zm113 7l-5-9 11 2 2 19h-1zm-101 89l6-2v-29l5-39 23-18v-8h6l13 1 10 5 16 15h-8l-3-4h-13l-1 6 10 5 6 7 6 55 4 5 1 17 7 3v7l-2 12-19-3-3-35-6-20 2-16-1-14-7-9-11-7h-14l-5 5-4 12 2 19v6l1 36 4 36 4 27 1 6 1 5 1 10 1 22-5 6-5 4-6 6-12 9-7 4-5 1-13 9-12 11-18 13-5-1 2-10 31-46h4l6-8 31-25-1-15zm131-76l1-2 22 27 22 42-6 7-10 1-21-53zm2 74l1-12 5-11 2 1 1 3 10 51-8 3v21l-7 5-3-5-1-12v-5l-1-3-1-10v-3l1-15 1-3zm-41 60l4-40h20v4l-2 10-6 20-3 8zm34-30l3 2 1 12v2l-2 2-5-4zm-18 68l10-35h3l8 26-11 8-10 8-1-2v-2zm41-14l-5-12h16l10 36v2l-9 6-18 8h-6v-22l16-7v-6zm-62 6l11-2-1 6-2 6-1 5-3 9-5-8zm28 26l7-1 9-9 3 1v17 3l-12 7-2-3-8-9v-5zm-85 11l3-2 3 2v11 4l1 15 7-3 9 3 1 4 1 11-25 2-1-3-2-15v-2l-4-9-2 2-9-2v-1l7-7 5-5zm-102 29h8l24-30 8 1-9 14-4-2-16 18-9 23h-2zm68-2l4-2h1l-3 30h-7l-6-5-4 7-15 1-2-2 6-10 13-11zm-68 90v-58h10l-1 10-4 24 6 11 4 11 3 8 2-7 4 11h-4l-11-10zm210-37v-6l4-1 12 4 2 15 8 14-2 17-5 2-7-29-7-8-1-6-4-1zm-192 22l-7-14 1-13h7l1 5 2 15 1 3v9l-1 1zm87 38v-1h20l1 6-1 9-5 2-6 12 11 8 1 7v6l1 10-4 3 3 3v9 13 24 9l1 5-1 35 1 24v3l2 20v3 3 3l1 9-3 6 8 12 8 20-4 1 2 4 1 1 6 9 2 4 2 6 5 10 3 6 1 6-6 1-10-16-15-26-4-11-11-29-3-12-6-21-1-10v-3-3-3l1-16-2-15 1-29v-6l-1-3 2-7-3-20 2-25-2-26 2-4-2-10v-6l1-5zm122 0l1-1 7 6 2 21 7 9v22l-5 12 3 50-4 15-5 5-1 15-4 6 4 12v19l-6 5v-10l3-1-6-4 3-58 4-7v-4l-4-1-4-43 6-27zm-157 198l-1-16 7 1 1 1 5 8 2 23 2 10 16 47 49 110-7-3-6-11-1-9-16-16-17 1-3-5-8-24-6-18-8-27 1-3 2 6 2-2-6-13-2-4-4 1-2 2-1-6v-5l-1-5v-2l4 1-1-5v-20-11zm153 38l1-14 10 4 2 25-4 3-15-13 1-2zm-36 119l7-3 10 12-3 4 6 2-1 2-3-1v3l3 1 7 4 11 15-2 4-8-3-9-7-11-22zm-130 8l7-1 1 15v7 2 3 2 3l-1 8-2 9v3l-1 3-4 33v3l1 16-6 6h-10l5-31 2-9 1-14 5-33 1-5zm13 10l3-2 4 18 6 24 3 23-14 4-1 14-8 5v-5l1-5 1-24 1-8v-5l1-10 1-7 1-4v-11l1-4zm380 70l13-6h32l4 4v7l-10-1h-6l-19 3-4 5h-2l-8-11zm67 10l2-4h12v40l-14 3-2 3h-21l-1-5 4-3 14-5 9-8 5-7v-6l-6-2zm-389 18l3-8h2l13 15-2 4-8 1-3-13zm300 18l3-4 6 2-7 26h-31l1-12h2l9 6h4l1-6 5-5 10-2z"/><path fill-rule="evenodd" class="t" d="m0 456v-456h158l2 9-15 7-12 14-1 5 5 7-27 6-4 1-2-4-3-1-2 3h-4l-3-2-7 8-7 4-2 7 3 3v5h-3l-6-2-3 10-6 10-4 1-6 1-3 7-2 5 5-4 3-3 8 8v27l5 1v21l1 2 3 8 21 10 4 13 1 5v8h-3l-5-1h-14l-15 3-8 4h-13l-3 4-2 25 8 3 1 5 3 18 7 33 2 21v1l-1 1-10 4-5 6 1 8 11 22h5l5-5 5 12 2 12v11l-13 19-15 21-8-1-24 30zm182-455v-1h349v1016h-12l-2 4-18-5v-7l-4-4h-32l-13 6-12-10-28-15-69-57-8-11-31-28-5-9-14-8-7-11-17-14-27-26 4-3-2-25-10-4 2-26 6-5v-19l-4-12 4-6 1-15 5-5 4-15-3-50 5-12v-22l-7-9-2-21-7-6 1-14 5-2 2-17-8-14-2-15-12-4-1-4-4-10-3-10-1-4v-4l-1-3-2-9-3-8-2-8 13-7 7-4 17-10 9-7 4-2v-6l-4-36-1-3-4-41-6-23 10-1 6-7 5 10 6 23 3 14 1 4 2 15 3 1-3-17-1-2v-1l-3-14-6-23-11-27-17-26-7-13-16-18-11-13 6-4h7l6-8h5l1-3-9-11 1-6-9-9h-5l-1-4-8-2-3-1h-2l-2-1v-10l-4-3 1-15 8-3 5-6 5-5-3-11 4-24 2-7 1-1 7-4h6l10-10-2-8-1-6-2-4h-7l-1-10-16-14-1-6-5-3 1-4-5-1zm-107 202l8-1 3 1 16 2 4 1v8l-23 18-5 39v29l-6 2-3-8-8-35-3-15 10-8 2-32zm85 118l-7-3-1-17-4-5-6-55-6-7-10-5 1-6h13l3 4h9l7 18 8 29v8l-3 22-2 10v1l-1 3v3zm10-52l11-4v-13l5-2 1 1 5 20 2 10 2 12-4 10-4 17h-20l1-6v-12l1-5zm39 92l7-5v-21l8-3 8 40h-16zm-107 113l25-2 1 18-1 6v4l-1 15-1 3v48h-20l-1-4-1-34-1-26-1-25zm-102 606v-536h9l11 10h4l2 8 2 11 6 8 2 27 10 62 4 23 1 4v3l1 3v4l1 4 3 27v6l1 3v41l-1 9-2 40-1 3-1 25-1 6-2 17-2 8-1 7-2 7-4 18-10 53-1 3v2l-1 7-1 6-2 8-7 40-1 3-1 13 1 4 8 1 3 1h8l6-27h10l6-6 4-1 1-9 8-5 1-14 14-4 4 6 4 29 1 3 2 11 3 13 11-3 3-4 3 3h6l11-4 2-7 8-1 2-4 33 14 4-1v-4l-10-12-12-6-6-7-29-62-22-56 17-1 16 16 1 9 6 11 7 3 1 1 2 9h4l11 19 22 12 19 9 18 3 6 4 28 1 25 8 16 3 6 1 31-1 7 4 4 4 6 3 1 2 2 1 5 4 23 16v5l6 6 6 5-1 12zm456-38l21 6 16 9 1 5h21l2-3 14-3v24h-101l7-26 4-5 5-5z"/><path class="a" d="m163 95h3l-2 3-16 5 2-4zm-62 18l-5 5 2-14 9-7 2 3h7v2l-3-1-6 8-6-1zm-21 25l2-2 6 1 3 6zm-2 8v-1l15 2v1l-7 3-1-3h-7z"/><path class="c" d="m116 100v-6h2l5 1 5 6 1 4-4 1zm-9 9l6-8 3 1 7 5 3 10h-6-3l-6-2-1-4h-2z"/><path class="d" d="m76 140l4-2 11 5 2 2v2l-15-2 1-3zm10 11l-6 4-4-5 2-2h7z"/><path class="g" d="m111 95l5-1v6h-7l-2-3z"/><path class="i" d="m93 147v-2l2 3h-2zm154 261v-4 6z"/><path fill-rule="evenodd" class="j" d="m101 113v-5l6 1 1 2-2 3-2 1zm-16-3h1v1h-1zm5 18l3 3-7 1z"/><path class="k" d="m54 316h1v1h-1z"/><path class="l" d="m76 140l-4-5 4 1 3-3 3 3-2 2zm2 6l-2-6 3 2-1 3z"/><path fill-rule="evenodd" class="m" d="m138 31l5 11-7-6zm-34 84l2-1 2 3z"/><path fill-rule="evenodd" class="n" d="m186 170h1v-1h-1zm-7 3h1v-1h-1zm-3 3h1v-1h-1zm-14 288l4-1-3-4zm-21 372h1v-1h-1zm73 52l5-1-4-6z"/><path fill-rule="evenodd" class="o" d="m116 102v-2l9 6-2 1zm32 74l2 3-4 1zm-69 303l3 3-5 3zm90 66l3 1v5h-3z"/><path class="p" d="m183 511v-1h3v3zm-106 27h3v5l-4-1zm105 198h3l-3 6zm-1 58l5 2v4l-8 2z"/><path fill-rule="evenodd" class="q" d="m87 488l4 2v4l-6-2zm96 23l-5 2-2-4 6-3 1 4zm3-1l3-1 2 4-1 2-4-2zm-110 40l16 5v3l-4 2-5-4-7 1zm-21 2h3v6l-3 1zm105 159l4 4-6 3zm60 121l4 3-3 1z"/><path fill-rule="evenodd" class="r" d="m177 443l6 4-1 5-6 2-3-8zm20 45l4 7-4 3-5-1v-5zm-121 153l3 4-4 2zm101 136l7 2v7l-7 1zm-17 47h3v5h-4zm-54 177l7 3 1 7-8-3z"/><path class="t" d="m111 95l-3-6 1-7 9 2v10h-2zm-28 311l7 2v16l-6 6-16-2v-8z"/></svg>